<?xml version="1.0" encoding="UTF-8" standalone="yes"?>
<!DOCTYPE svg PUBLIC "-//W3C//DTD SVG 1.1//EN" "http://www.w3.org/Graphics/SVG/1.1/DTD/svg11.dtd">

<svg width="1020.68" height="3275" version="1.1" xmlns="http://www.w3.org/2000/svg" xmlns:xlink="http://www.w3.org/1999/xlink">
<!-- Generated at Thu Oct 26 20:10:00 2006 by:
  Graph::Easy v0.48
  Graph::Easy::As_svg v0.20
-->

<title>Untitled graph</title>
<defs>
 <!-- open arrow head -->
 <g id="ah" stroke-linecap="round" stroke-width="1">
  <line x1="-8" y1="-4" x2="1" y2="0" />
  <line x1="1" y1="0" x2="-8" y2="4" />
 </g>

 <!-- class definitions -->
 <style type="text/css"><![CDATA[
 .edge {
  fill: inherit;
  font-family: monospaced, courier-new, courier, sans-serif;
  font-size: 13px;
  stroke: black;
  text-anchor: middle;
 }
 .node,.node_action,.node_anon,.node_question,.node_start {
  text-anchor: middle;
  fill: white;
  font-size: 16px;
 }
 .node_action {
  fill: #8bef91;
 }
 .node_question {
  fill: #ffff8a;
 }
 .node_start {
  fill: #ffbfc9;
 }
 ]]></style>
</defs>

<!-- graph background with border (mainly for printing) -->
<rect x="0" y="0" width="1028.68" height="3283" fill="white" stroke="none" stroke-dasharray="" stroke-width="1" />

<g class="edge">
 <!-- from frameMinimumStopTest to if And(Not(frameBound,\nNot(reverse)) -->
 <!-- north/east corner -->
 <g stroke="#000000" stroke-width="1">
  <line x1="444.84" y1="1988" x2="444.84" y2="2103.5" />
  <line x1="444.34" y1="2103" x2="490.66" y2="2103" />
 </g>

 <!-- south/west corner -->
 <g stroke="#000000" stroke-width="1">
  <line x1="444.84" y1="1963.5" x2="444.84" y2="1988" />
  <line x1="387.56" y1="1964" x2="445.34" y2="1964" />
 </g>

 <!-- horizontal -->
 <line x1="241" y1="1964" x2="355.56" y2="1964" stroke="#000000" stroke-width="1" />
 <text x="298" y="1956" fill="#000000" stroke="none">then</text>

 <!-- south/east corner -->
 <g stroke="#000000" stroke-width="1">
  <line x1="124.5" y1="1963.5" x2="124.5" y2="1982.2" />
  <line x1="124" y1="1964" x2="241" y2="1964" />
 </g>
 <use stroke="#000000" xlink:href="#ah" transform="translate(124.5 1983.2)rotate(90)"/>
</g>

<g class="edge">
 <!-- from domainBound = then to if iteration ==\nmaxWideningIterations -->
 <!-- vertical -->
 <line x1="700.62" y1="1605" x2="700.62" y2="1624.8" stroke="#000000" stroke-width="1" />
 <use stroke="#000000" xlink:href="#ah" transform="translate(700.62 1625.8)rotate(90)"/>
</g>

<g class="edge">
 <!-- from Given: f, a, c,\nlimitLeft,\nlimitRight,\nreverse,\nshrinkFactor,\ngrowthFactor,\nmaxWideningIterations,\nmaxNarrowingIterations to {fa,fc} =\n{f(a),f(c)} -->
 <!-- vertical -->
 <line x1="700.62" y1="178" x2="700.62" y2="197.8" stroke="#000000" stroke-width="1" />
 <use stroke="#000000" xlink:href="#ah" transform="translate(700.62 198.8)rotate(90)"/>
</g>

<g class="edge">
 <!-- from iteration = 1 to if fc &gt; fb -->
 <!-- vertical -->
 <line x1="700.62" y1="1000" x2="700.62" y2="1019.8" stroke="#000000" stroke-width="1" />
 <use stroke="#000000" xlink:href="#ah" transform="translate(700.62 1020.8)rotate(90)"/>
</g>

<g class="edge">
 <!-- from iterationBound = then to frameMinimumStopTest -->
 <!-- vertical -->
 <line x1="700.62" y1="1948" x2="700.62" y2="1982.2" stroke="#000000" stroke-width="1" />
 <use stroke="#000000" xlink:href="#ah" transform="translate(700.62 1983.2)rotate(90)"/>
</g>

<g class="edge">
 <!-- from fb = f(b) to iteration = 1 -->
 <!-- vertical -->
 <line x1="700.62" y1="932" x2="700.62" y2="951.8" stroke="#000000" stroke-width="1" />
 <use stroke="#000000" xlink:href="#ah" transform="translate(700.62 952.8)rotate(90)"/>
</g>

<g class="edge">
 <!-- from iteration++ to newOrdinate =\nf(newAbscissa) -->
 <!-- vertical -->
 <line x1="700.62" y1="3104" x2="700.62" y2="3123.8" stroke="#000000" stroke-width="1" />
 <use stroke="#000000" xlink:href="#ah" transform="translate(700.62 3124.8)rotate(90)"/>
</g>

<g class="edge">
 <!-- from if iteration ==\nmaxWideningIterations to iterationBound = then -->
 <!-- vertical -->
 <line x1="700.62" y1="1848" x2="700.62" y2="1896.6" stroke="#000000" stroke-width="1" />
 <use stroke="#000000" xlink:href="#ah" transform="translate(700.62 1897.6)rotate(90)"/>
 <text x="708" y="1872" fill="#000000" stroke="none" text-anchor="start">then</text>
</g>

<g class="edge">
 <!-- from newOrdinate =\nf(newAbscissa) to {fa,a,fb,b,fc,c} =\n{fb,b,fc,c,newOrdinate,newAbscissa} -->
 <!-- vertical -->
 <line x1="700.62" y1="3190" x2="700.62" y2="3209.8" stroke="#000000" stroke-width="1" />
 <use stroke="#000000" xlink:href="#ah" transform="translate(700.62 3210.8)rotate(90)"/>
</g>

<g class="edge">
 <!-- from cdomain to if iteration ==\nmaxWideningIterations -->
 <!-- south/east corner -->
 <g stroke="#000000" stroke-width="1">
  <line x1="444.84" y1="1387.5" x2="444.84" y2="1497" />
  <line x1="444.34" y1="1388" x2="490.66" y2="1388" />
 </g>

 <!-- vertical -->
 <line x1="444.84" y1="1497" x2="444.84" y2="1629" stroke="#000000" stroke-width="1" />
 <text x="452" y="1563" fill="#000000" stroke="none" text-anchor="start">else</text>

 <!-- north/east corner -->
 <g stroke="#000000" stroke-width="1">
  <line x1="444.84" y1="1629" x2="444.84" y2="1735" />
  <line x1="444.34" y1="1734.5" x2="489.66" y2="1734.5" />
 </g>
 <use stroke="#000000" xlink:href="#ah" x="490.66" y="1734.5"/>
</g>

<g class="edge">
 <!-- from if And(Not(frameBound,\nNot(reverse)) to something -->
 <!-- south/west corner -->
 <g stroke="#000000" stroke-width="1">
  <line x1="298.28" y1="2102.5" x2="298.28" y2="2218" />
  <line x1="252.46" y1="2103" x2="298.78" y2="2103" />
 </g>

 <!-- vertical -->
 <line x1="298.28" y1="2218" x2="298.28" y2="2404" stroke="#000000" stroke-width="1" />
 <text x="306" y="2311" fill="#000000" stroke="none" text-anchor="start">else</text>

 <!-- north/west corner -->
 <g stroke="#000000" stroke-width="1">
  <line x1="298.28" y1="2404" x2="298.28" y2="2502.5" />
  <line x1="253.46" y1="2502" x2="298.78" y2="2502" />
 </g>
 <use stroke="#000000" xlink:href="#ah" transform="translate(252.46 2502)rotate(180)"/>
</g>

<g class="edge">
 <!-- from b = c + shrinkFactor*(a-c) to fb = f(b) -->
 <!-- vertical -->
 <line x1="700.62" y1="864" x2="700.62" y2="883.8" stroke="#000000" stroke-width="1" />
 <use stroke="#000000" xlink:href="#ah" transform="translate(700.62 884.8)rotate(90)"/>
</g>

<g class="edge">
 <!-- from if fc &gt; fb to frameBound = then -->
 <!-- vertical -->
 <line x1="700.62" y1="1155" x2="700.62" y2="1203.6" stroke="#000000" stroke-width="1" />
 <use stroke="#000000" xlink:href="#ah" transform="translate(700.62 1204.6)rotate(90)"/>
 <text x="708" y="1179" fill="#000000" stroke="none" text-anchor="start">then</text>
</g>

<g class="edge">
 <!-- from if newAbscissa &lt;=\nlowerLimit to if newAbscissa &gt;=\nupperLimit -->
 <!-- south/west corner -->
 <g stroke="#000000" stroke-width="1">
  <line x1="956.4" y1="2501.5" x2="956.4" y2="2600" />
  <line x1="910.58" y1="2502" x2="956.9" y2="2502" />
 </g>

 <!-- vertical -->
 <line x1="956.4" y1="2600" x2="956.4" y2="2732" stroke="#000000" stroke-width="1" />
 <text x="964" y="2666" fill="#000000" stroke="none" text-anchor="start">else</text>

 <!-- north/west corner -->
 <g stroke="#000000" stroke-width="1">
  <line x1="956.4" y1="2732" x2="956.4" y2="2830.5" />
  <line x1="911.58" y1="2830" x2="956.9" y2="2830" />
 </g>
 <use stroke="#000000" xlink:href="#ah" transform="translate(910.58 2830)rotate(180)"/>
</g>

<g class="edge">
 <!-- from newAbscissa = lowerLimit to if newAbscissa &gt;=\nupperLimit -->
 <!-- vertical -->
 <line x1="700.62" y1="2708" x2="700.62" y2="2727.8" stroke="#000000" stroke-width="1" />
 <use stroke="#000000" xlink:href="#ah" transform="translate(700.62 2728.8)rotate(90)"/>
</g>

<g class="edge">
 <!-- from cdomain to domainBound = then -->
 <!-- vertical -->
 <line x1="700.62" y1="1505" x2="700.62" y2="1553.6" stroke="#000000" stroke-width="1" />
 <use stroke="#000000" xlink:href="#ah" transform="translate(700.62 1554.6)rotate(90)"/>
 <text x="708" y="1529" fill="#000000" stroke="none" text-anchor="start">then</text>
</g>

<g class="edge">
 <!-- from if reverse to {fc,c,fa,a} =\n{fa,a,fc,c} -->
 <!-- vertical -->
 <line x1="700.62" y1="678" x2="700.62" y2="726.6" stroke="#000000" stroke-width="1" />
 <use stroke="#000000" xlink:href="#ah" transform="translate(700.62 727.6)rotate(90)"/>
 <text x="708" y="702" fill="#000000" stroke="none" text-anchor="start">then</text>
</g>

<g class="edge">
 <!-- from newAbscissa = upperLimit to iteration++ -->
 <!-- vertical -->
 <line x1="700.62" y1="3036" x2="700.62" y2="3055.8" stroke="#000000" stroke-width="1" />
 <use stroke="#000000" xlink:href="#ah" transform="translate(700.62 3056.8)rotate(90)"/>
</g>

<g class="edge">
 <!-- from frameBound = then to cdomain -->
 <!-- vertical -->
 <line x1="700.62" y1="1255" x2="700.62" y2="1274.8" stroke="#000000" stroke-width="1" />
 <use stroke="#000000" xlink:href="#ah" transform="translate(700.62 1275.8)rotate(90)"/>
</g>

<g class="edge">
 <!-- from if fc &gt; fa to {fa,a,fc,c} =\n{fc,c,fa,a} -->
 <!-- vertical -->
 <line x1="700.62" y1="418" x2="700.62" y2="466.6" stroke="#000000" stroke-width="1" />
 <use stroke="#000000" xlink:href="#ah" transform="translate(700.62 467.6)rotate(90)"/>
 <text x="708" y="442" fill="#000000" stroke="none" text-anchor="start">then</text>
</g>

<g class="edge">
 <!-- from if fc &gt; fb to cdomain -->
 <!-- south/west corner -->
 <g stroke="#000000" stroke-width="1">
  <line x1="956.4" y1="1085" x2="956.4" y2="1147" />
  <line x1="910.58" y1="1085.5" x2="956.9" y2="1085.5" />
 </g>

 <!-- vertical -->
 <line x1="956.4" y1="1147" x2="956.4" y2="1279" stroke="#000000" stroke-width="1" />
 <text x="964" y="1213" fill="#000000" stroke="none" text-anchor="start">else</text>

 <!-- north/west corner -->
 <g stroke="#000000" stroke-width="1">
  <line x1="956.4" y1="1279" x2="956.4" y2="1388.5" />
  <line x1="911.58" y1="1388" x2="956.9" y2="1388" />
 </g>
 <use stroke="#000000" xlink:href="#ah" transform="translate(910.58 1388)rotate(180)"/>
</g>

<g class="edge">
 <!-- from Sow (a.k.a. store)\nthe results of running\nthis algorithm with\nreverse = False to something -->
 <!-- vertical -->
 <line x1="124.5" y1="2380" x2="124.5" y2="2399.8" stroke="#000000" stroke-width="1" />
 <use stroke="#000000" xlink:href="#ah" transform="translate(124.5 2400.8)rotate(90)"/>
</g>

<g class="edge">
 <!-- from if newAbscissa &gt;=\nupperLimit to newAbscissa = upperLimit -->
 <!-- vertical -->
 <line x1="700.62" y1="2936" x2="700.62" y2="2984.6" stroke="#000000" stroke-width="1" />
 <use stroke="#000000" xlink:href="#ah" transform="translate(700.62 2985.6)rotate(90)"/>
 <text x="708" y="2960" fill="#000000" stroke="none" text-anchor="start">then</text>
</g>

<g class="edge">
 <!-- from {fc,c,fa,a} =\n{fa,a,fc,c} to b = c + shrinkFactor*(a-c) -->
 <!-- vertical -->
 <line x1="700.62" y1="796" x2="700.62" y2="815.8" stroke="#000000" stroke-width="1" />
 <use stroke="#000000" xlink:href="#ah" transform="translate(700.62 816.8)rotate(90)"/>
</g>

<g class="edge">
 <!-- from if iteration ==\nmaxWideningIterations to frameMinimumStopTest -->
 <!-- south/west corner -->
 <g stroke="#000000" stroke-width="1">
  <line x1="956.4" y1="1734" x2="956.4" y2="1840" />
  <line x1="910.58" y1="1734.5" x2="956.9" y2="1734.5" />
 </g>

 <!-- vertical -->
 <line x1="956.4" y1="1840" x2="956.4" y2="1988" stroke="#000000" stroke-width="1" />
 <text x="964" y="1914" fill="#000000" stroke="none" text-anchor="start">else</text>

 <!-- north/west corner -->
 <g stroke="#000000" stroke-width="1">
  <line x1="956.4" y1="1988" x2="956.4" y2="2103.5" />
  <line x1="911.58" y1="2103" x2="956.9" y2="2103" />
 </g>
 <use stroke="#000000" xlink:href="#ah" transform="translate(910.58 2103)rotate(180)"/>
</g>

<g class="edge">
 <!-- from {fa,a,fb,b,fc,c} =\n{fb,b,fc,c,newOrdinate,newAbscissa} to if fc &gt; fb -->
 <!-- north/east corner -->
 <g stroke="#000000" stroke-width="1">
  <line x1="444.84" y1="3214" x2="444.84" y2="3241.5" />
  <line x1="444.34" y1="3241" x2="490.66" y2="3241" />
 </g>

 <!-- vertical -->
 <line x1="444.84" y1="3128" x2="444.84" y2="3214" stroke="#000000" stroke-width="1" />

 <!-- south/west corner -->
 <g stroke="#000000" stroke-width="1">
  <line x1="444.84" y1="3111.5" x2="444.84" y2="3128" />
  <line x1="387.56" y1="3112" x2="445.34" y2="3112" />
 </g>

 <!-- north/east corner -->
 <g stroke="#000000" stroke-width="1">
  <line x1="371.56" y1="3096" x2="371.56" y2="3112.5" />
  <line x1="371.06" y1="3112" x2="387.56" y2="3112" />
 </g>

 <!-- vertical -->
 <line x1="371.56" y1="1988" x2="371.56" y2="3096" stroke="#000000" stroke-width="1" />

 <!-- crossing -->
 <g stroke="#000000" stroke-width="1">
  <line x1="355.56" y1="1964" x2="387.56" y2="1964" />
  <line x1="371.56" y1="1940" x2="371.56" y2="1988" stroke="#000000" stroke-dasharray="1 0"/>
 </g>

 <!-- vertical -->
 <line x1="371.56" y1="1147" x2="371.56" y2="1940" stroke="#000000" stroke-width="1" />

 <!-- south/east corner -->
 <g stroke="#000000" stroke-width="1">
  <line x1="371.56" y1="1085" x2="371.56" y2="1147" />
  <line x1="371.06" y1="1085.5" x2="387.56" y2="1085.5" />
 </g>

 <!-- horizontal -->
 <line x1="387.56" y1="1085.5" x2="489.66" y2="1085.5" stroke="#000000" stroke-width="1" />
 <use stroke="#000000" xlink:href="#ah" x="490.66" y="1085.5"/>
</g>

<g class="edge">
 <!-- from if newAbscissa &lt;=\nlowerLimit to newAbscissa = lowerLimit -->
 <!-- vertical -->
 <line x1="700.62" y1="2608" x2="700.62" y2="2656.6" stroke="#000000" stroke-width="1" />
 <use stroke="#000000" xlink:href="#ah" transform="translate(700.62 2657.6)rotate(90)"/>
 <text x="708" y="2632" fill="#000000" stroke="none" text-anchor="start">then</text>
</g>

<g class="edge">
 <!-- from {fa,a,fc,c} =\n{fc,c,fa,a} to if reverse -->
 <!-- vertical -->
 <line x1="700.62" y1="536" x2="700.62" y2="555.8" stroke="#000000" stroke-width="1" />
 <use stroke="#000000" xlink:href="#ah" transform="translate(700.62 556.8)rotate(90)"/>
</g>

<g class="edge">
 <!-- from if reverse to b = c + shrinkFactor*(a-c) -->
 <!-- south/east corner -->
 <g stroke="#000000" stroke-width="1">
  <line x1="444.84" y1="614.5" x2="444.84" y2="670" />
  <line x1="444.34" y1="615" x2="490.66" y2="615" />
 </g>

 <!-- vertical -->
 <line x1="444.84" y1="670" x2="444.84" y2="820" stroke="#000000" stroke-width="1" />
 <text x="452" y="745" fill="#000000" stroke="none" text-anchor="start">else</text>

 <!-- north/east corner -->
 <g stroke="#000000" stroke-width="1">
  <line x1="444.84" y1="820" x2="444.84" y2="838.5" />
  <line x1="444.34" y1="838" x2="489.66" y2="838" />
 </g>
 <use stroke="#000000" xlink:href="#ah" x="490.66" y="838"/>
</g>

<g class="edge">
 <!-- from if newAbscissa &gt;=\nupperLimit to iteration++ -->
 <!-- south/east corner -->
 <g stroke="#000000" stroke-width="1">
  <line x1="444.84" y1="2829.5" x2="444.84" y2="2928" />
  <line x1="444.34" y1="2830" x2="490.66" y2="2830" />
 </g>

 <!-- vertical -->
 <line x1="444.84" y1="2928" x2="444.84" y2="3060" stroke="#000000" stroke-width="1" />
 <text x="452" y="2994" fill="#000000" stroke="none" text-anchor="start">else</text>

 <!-- north/east corner -->
 <g stroke="#000000" stroke-width="1">
  <line x1="444.84" y1="3060" x2="444.84" y2="3078.5" />
  <line x1="444.34" y1="3078" x2="489.66" y2="3078" />
 </g>
 <use stroke="#000000" xlink:href="#ah" x="490.66" y="3078"/>
</g>

<g class="edge">
 <!-- from {fa,fc} =\n{f(a),f(c)} to if fc &gt; fa -->
 <!-- vertical -->
 <line x1="700.62" y1="264" x2="700.62" y2="283.8" stroke="#000000" stroke-width="1" />
 <use stroke="#000000" xlink:href="#ah" transform="translate(700.62 284.8)rotate(90)"/>
</g>

<g class="edge">
 <!-- from if And(Not(frameBound,\nNot(reverse)) to Sow (a.k.a. store)\nthe results of running\nthis algorithm with\nreverse = False -->
 <!-- vertical -->
 <line x1="124.5" y1="2226" x2="124.5" y2="2274.6" stroke="#000000" stroke-width="1" />
 <use stroke="#000000" xlink:href="#ah" transform="translate(124.5 2275.6)rotate(90)"/>
 <text x="132" y="2250" fill="#000000" stroke="none" text-anchor="start">then</text>
</g>

<g class="edge">
 <!-- from if fc &gt; fa to if reverse -->
 <!-- south/west corner -->
 <g stroke="#000000" stroke-width="1">
  <line x1="956.4" y1="348.5" x2="956.4" y2="410" />
  <line x1="910.58" y1="349" x2="956.9" y2="349" />
 </g>

 <!-- vertical -->
 <line x1="956.4" y1="410" x2="956.4" y2="560" stroke="#000000" stroke-width="1" />
 <text x="964" y="485" fill="#000000" stroke="none" text-anchor="start">else</text>

 <!-- north/west corner -->
 <g stroke="#000000" stroke-width="1">
  <line x1="956.4" y1="560" x2="956.4" y2="615.5" />
  <line x1="911.58" y1="615" x2="956.9" y2="615" />
 </g>
 <use stroke="#000000" xlink:href="#ah" transform="translate(910.58 615)rotate(180)"/>
</g>

<g class="edge">
 <!-- from newAbscissa = c + growthFactor*(c-b) to if newAbscissa &lt;=\nlowerLimit -->
 <!-- vertical -->
 <line x1="700.62" y1="2380" x2="700.62" y2="2399.8" stroke="#000000" stroke-width="1" />
 <use stroke="#000000" xlink:href="#ah" transform="translate(700.62 2400.8)rotate(90)"/>
</g>

<g class="edge">
 <!-- from frameMinimumStopTest to newAbscissa = c + growthFactor*(c-b) -->
 <!-- vertical -->
 <line x1="700.62" y1="2226" x2="700.62" y2="2274.6" stroke="#000000" stroke-width="1" />
 <use stroke="#000000" xlink:href="#ah" transform="translate(700.62 2275.6)rotate(90)"/>
 <text x="708" y="2250" fill="#000000" stroke="none" text-anchor="start">else</text>
</g>

<g class="node-start">
 <!-- Given: f, a, c,\nlimitLeft,\nlimitRight,\nreverse,\nshrinkFactor,\ngrowthFactor,\nmaxWideningIterations,\nmaxNarrowingIterations, rounded -->
 <rect fill="#ffbfc9" height="161" rx="15" ry="15" stroke="#000000" width="396" x="502.62"
   y="8.5" />
 <text x="700" y="32" fill="#000000" text-anchor="middle">
  <tspan x="700" y="30">Given: f, a, c,</tspan>
  <tspan x="700" y="48">limitLeft,</tspan>
  <tspan x="700" y="66">limitRight,</tspan>
  <tspan x="700" y="84">reverse,</tspan>
  <tspan x="700" y="102">shrinkFactor,</tspan>
  <tspan x="700" y="120">growthFactor,</tspan>
  <tspan x="700" y="138">maxWideningIterations,</tspan>
  <tspan x="700" y="156">maxNarrowingIterations</tspan>
 </text>
</g>

<g class="node-action">
 <!-- {fa,fc} =\n{f(a),f(c)}, rounded -->
 <rect fill="#8bef91" height="53" rx="15" ry="15" stroke="#000000" width="396" x="502.62"
   y="202.5" />
 <text x="700" y="226" fill="#000000" text-anchor="middle">
  <tspan x="700" y="224">{fa,fc} =</tspan>
  <tspan x="700" y="242">{f(a),f(c)}</tspan>
 </text>
</g>

<g class="node-question">
 <!-- if fc &gt; fa, diamond -->
 <polygon points="502.79,349, 700.62,288.5, 898.45,349, 700.62,409.5" fill="#ffff8a" stroke="#000000" />
 <text x="700" y="355" fill="#000000" text-anchor="middle">if fc &gt; fa</text>
</g>

<g class="node-action">
 <!-- {fa,a,fc,c} =\n{fc,c,fa,a}, rounded -->
 <rect fill="#8bef91" height="53" rx="15" ry="15" stroke="#000000" width="396" x="502.62"
   y="474.5" />
 <text x="700" y="498" fill="#000000" text-anchor="middle">
  <tspan x="700" y="496">{fa,a,fc,c} =</tspan>
  <tspan x="700" y="514">{fc,c,fa,a}</tspan>
 </text>
</g>

<g class="node-question">
 <!-- if reverse, diamond -->
 <polygon points="502.79,615, 700.62,560.5, 898.45,615, 700.62,669.5" fill="#ffff8a" stroke="#000000" />
 <text x="700" y="621" fill="#000000" text-anchor="middle">if reverse</text>
</g>

<g class="node-action">
 <!-- {fc,c,fa,a} =\n{fa,a,fc,c}, rounded -->
 <rect fill="#8bef91" height="53" rx="15" ry="15" stroke="#000000" width="396" x="502.62"
   y="734.5" />
 <text x="700" y="758" fill="#000000" text-anchor="middle">
  <tspan x="700" y="756">{fc,c,fa,a} =</tspan>
  <tspan x="700" y="774">{fa,a,fc,c}</tspan>
 </text>
</g>

<g class="node-action">
 <!-- b = c + shrinkFactor*(a-c), rounded -->
 <rect fill="#8bef91" height="35" rx="15" ry="15" stroke="#000000" width="396" x="502.62"
   y="820.5" />
 <text x="700" y="844" fill="#000000" text-anchor="middle">b = c + shrinkFactor*(a-c)</text>
</g>

<g class="node-action">
 <!-- fb = f(b), rounded -->
 <rect fill="#8bef91" height="35" rx="15" ry="15" stroke="#000000" width="396" x="502.62"
   y="888.5" />
 <text x="700" y="912" fill="#000000" text-anchor="middle">fb = f(b)</text>
</g>

<g class="node-action">
 <!-- iteration = 1, rounded -->
 <rect fill="#8bef91" height="35" rx="15" ry="15" stroke="#000000" width="396" x="502.62"
   y="956.5" />
 <text x="700" y="980" fill="#000000" text-anchor="middle">iteration = 1</text>
</g>

<g class="node-question">
 <!-- if fc &gt; fb, diamond -->
 <polygon points="502.79,1085.5, 700.62,1024.5, 898.45,1085.5, 700.62,1146.5" fill="#ffff8a" stroke="#000000" />
 <text x="700" y="1091" fill="#000000" text-anchor="middle">if fc &gt; fb</text>
</g>

<g class="node-action">
 <!-- frameBound = then, rounded -->
 <rect fill="#8bef91" height="35" rx="15" ry="15" stroke="#000000" width="396" x="502.62"
   y="1211.5" />
 <text x="700" y="1235" fill="#000000" text-anchor="middle">frameBound = then</text>
</g>

<g class="node-question">
 <!-- if Or(c == limitLeft,\nc == limitRight), diamond -->
 <polygon points="502.79,1388, 700.62,1279.5, 898.45,1388, 700.62,1496.5" fill="#ffff8a" stroke="#000000" />
 <text x="700" y="1385" fill="#000000" text-anchor="middle">
  <tspan x="700" y="1383">if Or(c == limitLeft,</tspan>
  <tspan x="700" y="1401">c == limitRight)</tspan>
 </text>
</g>

<g class="node-action">
 <!-- domainBound = then, rounded -->
 <rect fill="#8bef91" height="35" rx="15" ry="15" stroke="#000000" width="396" x="502.62"
   y="1561.5" />
 <text x="700" y="1585" fill="#000000" text-anchor="middle">domainBound = then</text>
</g>

<g class="node-question">
 <!-- if iteration ==\nmaxWideningIterations, diamond -->
 <polygon points="502.79,1734.5, 700.62,1629.5, 898.45,1734.5, 700.62,1839.5" fill="#ffff8a" stroke="#000000" />
 <text x="700" y="1731" fill="#000000" text-anchor="middle">
  <tspan x="700" y="1729">if iteration ==</tspan>
  <tspan x="700" y="1747">maxWideningIterations</tspan>
 </text>
</g>

<g class="node-action">
 <!-- iterationBound = then, rounded -->
 <rect fill="#8bef91" height="35" rx="15" ry="15" stroke="#000000" width="396" x="502.62"
   y="1904.5" />
 <text x="700" y="1928" fill="#000000" text-anchor="middle">iterationBound = then</text>
</g>

<g class="node-question">
 <!-- if Or(frameBound,\ndomainBound,\niterationBound), diamond -->
 <polygon points="502.79,2103, 700.62,1988.5, 898.45,2103, 700.62,2217.5" fill="#ffff8a" stroke="#000000" />
 <text x="700" y="2091" fill="#000000" text-anchor="middle">
  <tspan x="700" y="2089">if Or(frameBound,</tspan>
  <tspan x="700" y="2107">domainBound,</tspan>
  <tspan x="700" y="2125">iterationBound)</tspan>
 </text>
</g>

<g class="node-question">
 <!-- if And(Not(frameBound,\nNot(reverse)), diamond -->
 <polygon points="8.67,2103, 124.5,1988.5, 240.33,2103, 124.5,2217.5" fill="#ffff8a" stroke="#000000" />
 <text x="124" y="2100" fill="#000000" text-anchor="middle">
  <tspan x="124" y="2098">if And(Not(frameBound,</tspan>
  <tspan x="124" y="2116">Not(reverse))</tspan>
 </text>
</g>

<g class="node-action">
 <!-- Sow (a.k.a. store)\nthe results of running\nthis algorithm with\nreverse = False, rounded -->
 <rect fill="#8bef91" height="89" rx="15" ry="15" stroke="#000000" width="232" x="8.5"
   y="2282.5" />
 <text x="124" y="2306" fill="#000000" text-anchor="middle">
  <tspan x="124" y="2304">Sow (a.k.a. store)</tspan>
  <tspan x="124" y="2322">the results of running</tspan>
  <tspan x="124" y="2340">this algorithm with</tspan>
  <tspan x="124" y="2358">reverse = False</tspan>
 </text>
</g>

<g class="node">
 <!-- something, rect -->
 <rect fill="#ffffff" height="195" stroke="#000000" width="232" x="8.5" y="2404.5" />
 <text x="124" y="2508" fill="#000000" text-anchor="middle">something</text>
</g>

<g class="node-action">
 <!-- newAbscissa = c + growthFactor*(c-b), rounded -->
 <rect fill="#8bef91" height="89" rx="15" ry="15" stroke="#000000" width="396" x="502.62"
   y="2282.5" />
 <text x="700" y="2333" fill="#000000" text-anchor="middle">newAbscissa = c + growthFactor*(c-b)</text>
</g>

<g class="node-question">
 <!-- if newAbscissa &lt;=\nlowerLimit, diamond -->
 <polygon points="502.79,2502, 700.62,2404.5, 898.45,2502, 700.62,2599.5" fill="#ffff8a" stroke="#000000" />
 <text x="700" y="2499" fill="#000000" text-anchor="middle">
  <tspan x="700" y="2497">if newAbscissa &lt;=</tspan>
  <tspan x="700" y="2515">lowerLimit</tspan>
 </text>
</g>

<g class="node-action">
 <!-- newAbscissa = lowerLimit, rounded -->
 <rect fill="#8bef91" height="35" rx="15" ry="15" stroke="#000000" width="396" x="502.62"
   y="2664.5" />
 <text x="700" y="2688" fill="#000000" text-anchor="middle">newAbscissa = lowerLimit</text>
</g>

<g class="node-question">
 <!-- if newAbscissa &gt;=\nupperLimit, diamond -->
 <polygon points="502.79,2830, 700.62,2732.5, 898.45,2830, 700.62,2927.5" fill="#ffff8a" stroke="#000000" />
 <text x="700" y="2827" fill="#000000" text-anchor="middle">
  <tspan x="700" y="2825">if newAbscissa &gt;=</tspan>
  <tspan x="700" y="2843">upperLimit</tspan>
 </text>
</g>

<g class="node-action">
 <!-- newAbscissa = upperLimit, rounded -->
 <rect fill="#8bef91" height="35" rx="15" ry="15" stroke="#000000" width="396" x="502.62"
   y="2992.5" />
 <text x="700" y="3016" fill="#000000" text-anchor="middle">newAbscissa = upperLimit</text>
</g>

<g class="node-action">
 <!-- iteration++, rounded -->
 <rect fill="#8bef91" height="35" rx="15" ry="15" stroke="#000000" width="396" x="502.62"
   y="3060.5" />
 <text x="700" y="3084" fill="#000000" text-anchor="middle">iteration++</text>
</g>

<g class="node-action">
 <!-- newOrdinate =\nf(newAbscissa), rounded -->
 <rect fill="#8bef91" height="53" rx="15" ry="15" stroke="#000000" width="396" x="502.62"
   y="3128.5" />
 <text x="700" y="3152" fill="#000000" text-anchor="middle">
  <tspan x="700" y="3150">newOrdinate =</tspan>
  <tspan x="700" y="3168">f(newAbscissa)</tspan>
 </text>
</g>

<g class="node-action">
 <!-- {fa,a,fb,b,fc,c} =\n{fb,b,fc,c,newOrdinate,newAbscissa}, rounded -->
 <rect fill="#8bef91" height="53" rx="15" ry="15" stroke="#000000" width="396" x="502.62"
   y="3214.5" />
 <text x="700" y="3238" fill="#000000" text-anchor="middle">
  <tspan x="700" y="3236">{fa,a,fb,b,fc,c} =</tspan>
  <tspan x="700" y="3254">{fb,b,fc,c,newOrdinate,newAbscissa}</tspan>
 </text>
</g>

</svg>
