<?xml version="1.0" encoding="UTF-8" standalone="yes"?>
<!DOCTYPE svg PUBLIC "-//W3C//DTD SVG 1.1//EN" "http://www.w3.org/Graphics/SVG/1.1/DTD/svg11.dtd">

<svg width="2723.92" height="4096" version="1.1" xmlns="http://www.w3.org/2000/svg" xmlns:xlink="http://www.w3.org/1999/xlink">
<!-- Generated at Fri Oct 27 14:59:25 2006 by:
  Graph::Easy v0.48
  Graph::Easy::As_svg v0.20
-->

<title>Untitled graph</title>
<defs>
 <!-- open arrow head -->
 <g id="ah" stroke-linecap="round" stroke-width="1">
  <line x1="-8" y1="-4" x2="1" y2="0" />
  <line x1="1" y1="0" x2="-8" y2="4" />
 </g>

 <!-- class definitions -->
 <style type="text/css"><![CDATA[
 .edge {
  fill: inherit;
  font-family: monospaced, courier-new, courier, sans-serif;
  font-size: 13px;
  stroke: black;
  text-anchor: middle;
 }
 .node,.node_action,.node_anon,.node_question,.node_start {
  text-anchor: middle;
  fill: white;
  font-size: 16px;
 }
 .node_action {
  fill: #8bef91;
 }
 .node_question {
  fill: #ffff8a;
 }
 .node_start {
  fill: #ffbfc9;
 }
 ]]></style>
</defs>

<!-- graph background with border (mainly for printing) -->
<rect x="0" y="0" width="2731.92" height="4104" fill="white" stroke="none" stroke-dasharray="" stroke-width="1" />

<g class="edge">
 <!-- from if Abs(sameTestAbscissas(j) -\nperturbed(i)) &lt; ptol to perturbed(i) =\n perturbed(i) +\nperturbFactor*tol -->
 <!-- vertical -->
 <line x1="1739.06" y1="1897" x2="1739.06" y2="1945.6" stroke="#000000" stroke-width="1" />
 <use stroke="#000000" xlink:href="#ah" transform="translate(1739.06 1946.6)rotate(90)"/>
 <text x="1747" y="1921" fill="#000000" stroke="none" text-anchor="start">then</text>
</g>

<g class="edge">
 <!-- from if newAbscissa == {}\n(if no perturbed points\nmet the criteria) to newAbscissa =\nperturbed =\ncandidateAbscissa =\n{candidateAbsicssa(2)} -->
 <!-- vertical -->
 <line x1="1086" y1="2414" x2="1086" y2="2462.6" stroke="#000000" stroke-width="1" />
 <use stroke="#000000" xlink:href="#ah" transform="translate(1086 2463.6)rotate(90)"/>
 <text x="1094" y="2438" fill="#000000" stroke="none" text-anchor="start">then</text>
</g>

<g class="edge">
 <!-- from if j &gt;\nLength(sameTestAbscissas) to i++ -->
 <!-- horizontal -->
 <line x1="2485.82" y1="2719.5" x2="2588.92" y2="2719.5" stroke="#000000" stroke-width="1" />

 <!-- north/west corner -->
 <g stroke="#000000" stroke-width="1">
  <line x1="2636.92" y1="2592" x2="2636.92" y2="2720" />
  <line x1="2620.92" y1="2719.5" x2="2637.42" y2="2719.5" />
 </g>

 <!-- vertical -->
 <line x1="2636.92" y1="1561" x2="2636.92" y2="2592" stroke="#000000" stroke-width="1" />

 <!-- south/west corner -->
 <g stroke="#000000" stroke-width="1">
  <line x1="2636.92" y1="1536.5" x2="2636.92" y2="1561" />
  <line x1="2620.92" y1="1537" x2="2637.42" y2="1537" />
 </g>

 <!-- horizontal -->
 <line x1="1516.56" y1="1537" x2="2620.92" y2="1537" stroke="#000000" stroke-width="1" />

 <!-- horizontal -->
 <line x1="1414.46" y1="1537" x2="1516.56" y2="1537" stroke="#000000" stroke-width="1" />
 <use stroke="#000000" xlink:href="#ah" transform="translate(1413.46 1537)rotate(180)"/>
 <text x="1462" y="1529" fill="#000000" stroke="none">then</text>
</g>

<g class="edge">
 <!-- from if newAbscissa == {}\n(if no perturbed points\nmet the criteria) to newAbscissa = newAbscissa(1) -->
 <!-- south/west corner -->
 <g stroke="#000000" stroke-width="1">
  <line x1="1459.28" y1="2285" x2="1459.28" y2="2406" />
  <line x1="1413.46" y1="2285.5" x2="1459.78" y2="2285.5" />
 </g>

 <!-- vertical -->
 <line x1="1459.28" y1="2406" x2="1459.28" y2="2592" stroke="#000000" stroke-width="1" />
 <text x="1467" y="2499" fill="#000000" stroke="none" text-anchor="start">else</text>

 <!-- north/west corner -->
 <g stroke="#000000" stroke-width="1">
  <line x1="1459.28" y1="2592" x2="1459.28" y2="2720" />
  <line x1="1414.46" y1="2719.5" x2="1459.78" y2="2719.5" />
 </g>
 <use stroke="#000000" xlink:href="#ah" transform="translate(1413.46 2719.5)rotate(180)"/>
</g>

<g class="edge">
 <!-- from if newAbscissa &gt;= x (part 2) to {fa,a,fc,c,fu,u,fv,v,fw,w,fx,x} =\n{newOrdinate,newAbscissa,fc,c,newOrdinate,newAbscissa,vwxSequence} -->
 <!-- vertical -->
 <line x1="1086" y1="3915" x2="1086" y2="3963.6" stroke="#000000" stroke-width="1" />
 <use stroke="#000000" xlink:href="#ah" transform="translate(1086 3964.6)rotate(90)"/>
 <text x="1094" y="3939" fill="#000000" stroke="none" text-anchor="start">else</text>
</g>

<g class="edge">
 <!-- from perturbed(i) =\n perturbed(i) +\nperturbFactor*tol to ptol = 10^-accuracyGoal +\nAbs(perturbed(i))*10^-precisionGoal -->
 <!-- horizontal -->
 <line x1="1968.44" y1="2043" x2="2022.48" y2="2043" stroke="#000000" stroke-width="1" />
 <use stroke="#000000" xlink:href="#ah" x="2023.48" y="2043"/>
</g>

<g class="edge">
 <!-- from i++ to if i &gt;\nLength(perturbed) -->
 <!-- vertical -->
 <line x1="1086" y1="1569" x2="1086" y2="1588.8" stroke="#000000" stroke-width="1" />
 <use stroke="#000000" xlink:href="#ah" transform="translate(1086 1589.8)rotate(90)"/>
</g>

<g class="edge">
 <!-- from Given: f, a, c,\nlimitLeft,\nlimitRight,\nreverse,\nshrinkFactor,\ngrowthFactor,\naccuracyGoal,\nprecisionGoal,\nmaxWideningIterations,\nmaxNarrowingIterations to xtol = 10^-accuracyGoal +\nAbs(x)*10^-precisionGoal -->
 <!-- vertical -->
 <line x1="1086" y1="278" x2="1086" y2="297.8" stroke="#000000" stroke-width="1" />
 <use stroke="#000000" xlink:href="#ah" transform="translate(1086 298.8)rotate(90)"/>
</g>

<g class="edge">
 <!-- from perturbed = candidateAbscissa to perturbationFactor =\nSign(e)/2 -->
 <!-- vertical -->
 <line x1="1086" y1="1249" x2="1086" y2="1268.8" stroke="#000000" stroke-width="1" />
 <use stroke="#000000" xlink:href="#ah" transform="translate(1086 1269.8)rotate(90)"/>
</g>

<g class="edge">
 <!-- from if newOrdinate &lt; fx to if newAbscissa &gt;= x (part 2) -->
 <!-- vertical -->
 <line x1="1086" y1="3629" x2="1086" y2="3677.6" stroke="#000000" stroke-width="1" />
 <use stroke="#000000" xlink:href="#ah" transform="translate(1086 3678.6)rotate(90)"/>
 <text x="1094" y="3653" fill="#000000" stroke="none" text-anchor="start">else</text>
</g>

<g class="edge">
 <!-- from Select from perturbed\na list containing\nthe first and\nonly the first\nabscissa between\na and c that represents\na displacement less than\nmaxAcceptableDisplacement from x.\nCall it newAbscissa. to if newAbscissa == {}\n(if no perturbed points\nmet the criteria) -->
 <!-- vertical -->
 <line x1="1086" y1="2141" x2="1086" y2="2160.8" stroke="#000000" stroke-width="1" />
 <use stroke="#000000" xlink:href="#ah" transform="translate(1086 2161.8)rotate(90)"/>
</g>

<g class="edge">
 <!-- from candidateAbscissa(2) = x + e*shrinkFactor to perturbed = candidateAbscissa -->
 <!-- vertical -->
 <line x1="1086" y1="1181" x2="1086" y2="1200.8" stroke="#000000" stroke-width="1" />
 <use stroke="#000000" xlink:href="#ah" transform="translate(1086 1201.8)rotate(90)"/>
</g>

<g class="edge">
 <!-- from maxAcceptableDisplacement =\nMax(Abs({(newAbscissa-x)/2,\nnewAbscissa-candidateAbscissa})) to store lowest three points of\n{fv,v,fw,w,fx,x,newOrdinate,newAbscissa}\npair sorted in order\nof decreasing ordinate\nas vwxSequence -->
 <!-- vertical -->
 <line x1="1086" y1="3235" x2="1086" y2="3254.8" stroke="#000000" stroke-width="1" />
 <use stroke="#000000" xlink:href="#ah" transform="translate(1086 3255.8)rotate(90)"/>
</g>

<g class="edge">
 <!-- from if newAbscissa &gt;= x (part 2) to {fa,a,fc,c,fu,u,fv,v,fw,w,fx,x} =\n{fa,a,newOrdinate,newAbscissa,newOrdinate,newAbscissa,vwxSequence} -->
 <!-- south/west corner -->
 <g stroke="#000000" stroke-width="1">
  <line x1="1459.28" y1="3795.5" x2="1459.28" y2="3907" />
  <line x1="1413.46" y1="3796" x2="1459.78" y2="3796" />
 </g>

 <!-- vertical -->
 <line x1="1459.28" y1="3907" x2="1459.28" y2="4025" stroke="#000000" stroke-width="1" />

 <!-- north/west corner -->
 <g stroke="#000000" stroke-width="1">
  <line x1="1459.28" y1="4057" x2="1459.28" y2="4073.5" />
  <line x1="1402" y1="4073" x2="1459.78" y2="4073" />
 </g>

 <!-- horizontal -->
 <line x1="674" y1="4073" x2="1402" y2="4073" stroke="#000000" stroke-width="1" />

 <!-- north/east corner -->
 <g stroke="#000000" stroke-width="1">
  <line x1="357" y1="4057" x2="357" y2="4073.5" />
  <line x1="356.5" y1="4073" x2="674" y2="4073" />
 </g>

 <!-- vertical -->
 <line x1="357" y1="3971" x2="357" y2="4057" stroke="#000000" stroke-width="1" />

 <!-- vertical -->
 <line x1="357" y1="3914.4" x2="357" y2="3971" stroke="#000000" stroke-width="1" />
 <use stroke="#000000" xlink:href="#ah" transform="translate(357 3913.4)rotate(-90)"/>
 <text x="365" y="3939" fill="#000000" stroke="none" text-anchor="start">then</text>
</g>

<g class="edge">
 <!-- from if i &gt;\nLength(perturbed) to Select from perturbed\na list containing\nthe first and\nonly the first\nabscissa between\na and c that represents\na displacement less than\nmaxAcceptableDisplacement from x.\nCall it newAbscissa. -->
 <!-- vertical -->
 <line x1="1086" y1="1897" x2="1086" y2="1945.6" stroke="#000000" stroke-width="1" />
 <use stroke="#000000" xlink:href="#ah" transform="translate(1086 1946.6)rotate(90)"/>
 <text x="1094" y="1921" fill="#000000" stroke="none" text-anchor="start">then</text>
</g>

<g class="edge">
 <!-- from {fa,a,fc,c,fu,u,fv,v,fw,w,fx,x} =\n{fa,a,newOrdinate,newAbscissa,newOrdinate,newAbscissa,vwxSequence} to if And(Abs(a-x) &lt; xtol,\nAbs(c-x) &lt; xtol) -->
 <!-- vertical -->
 <line x1="357" y1="3621" x2="357" y2="3677" stroke="#000000" stroke-width="1" />

 <!-- vertical -->
 <line x1="357" y1="1137" x2="357" y2="3621" stroke="#000000" stroke-width="1" />

 <!-- south/west corner -->
 <g stroke="#000000" stroke-width="1">
  <line x1="357" y1="1120.5" x2="357" y2="1137" />
  <line x1="40" y1="1121" x2="357.5" y2="1121" />
 </g>

 <!-- north/east corner -->
 <g stroke="#000000" stroke-width="1">
  <line x1="24" y1="1105" x2="24" y2="1121.5" />
  <line x1="23.5" y1="1121" x2="40" y2="1121" />
 </g>

 <!-- vertical -->
 <line x1="24" y1="40" x2="24" y2="1105" stroke="#000000" stroke-width="1" />

 <!-- south/east corner -->
 <g stroke="#000000" stroke-width="1">
  <line x1="24" y1="23.5" x2="24" y2="40" />
  <line x1="23.5" y1="24" x2="40" y2="24" />
 </g>

 <!-- horizontal -->
 <line x1="40" y1="24" x2="2030.36" y2="24" stroke="#000000" stroke-width="1" />

 <!-- south/west corner -->
 <g stroke="#000000" stroke-width="1">
  <line x1="2252.36" y1="23.5" x2="2252.36" y2="40" />
  <line x1="2030.36" y1="24" x2="2252.86" y2="24" />
 </g>

 <!-- vertical -->
 <line x1="2252.36" y1="40" x2="2252.36" y2="388" stroke="#000000" stroke-width="1" />

 <!-- north/west corner -->
 <g stroke="#000000" stroke-width="1">
  <line x1="2252.36" y1="388" x2="2252.36" y2="429.5" />
  <line x1="2030.36" y1="429" x2="2252.86" y2="429" />
 </g>
</g>

<g class="edge">
 <!-- from iteration++ to candidateAbscissa =\ncandidateAbsicssa(i)\nwhere i is the position\nthat matches position(i)\nto newAbscissa -->
 <!-- vertical -->
 <line x1="1086" y1="2991" x2="1086" y2="3010.8" stroke="#000000" stroke-width="1" />
 <use stroke="#000000" xlink:href="#ah" transform="translate(1086 3011.8)rotate(90)"/>
</g>

<g class="edge">
 <!-- from define candidateAbsicssa(1)\nvia inverse polynomial\ninterpolation to candidateAbscissa(2) = x + e*shrinkFactor -->
 <!-- vertical -->
 <line x1="1086" y1="1113" x2="1086" y2="1132.8" stroke="#000000" stroke-width="1" />
 <use stroke="#000000" xlink:href="#ah" transform="translate(1086 1133.8)rotate(90)"/>
</g>

<g class="edge">
 <!-- from perturbationFactor =\nSign(e)/2 to sameTestAbscissas =\n{x,u,c,a,w,c} -->
 <!-- vertical -->
 <line x1="1086" y1="1335" x2="1086" y2="1354.8" stroke="#000000" stroke-width="1" />
 <use stroke="#000000" xlink:href="#ah" transform="translate(1086 1355.8)rotate(90)"/>
</g>

<g class="edge">
 <!-- from if Abs(sameTestAbscissas(j) -\nperturbed(i)) &lt; ptol to j++ -->
 <!-- horizontal -->
 <line x1="1968.44" y1="1741" x2="2030.36" y2="1741" stroke="#000000" stroke-width="1" />

 <!-- horizontal -->
 <line x1="2030.36" y1="1741" x2="2474.36" y2="1741" stroke="#000000" stroke-width="1" />

 <!-- south/west corner -->
 <g stroke="#000000" stroke-width="1">
  <line x1="2531.64" y1="1740.5" x2="2531.64" y2="1889" />
  <line x1="2474.36" y1="1741" x2="2532.14" y2="1741" />
 </g>

 <!-- vertical -->
 <line x1="2531.64" y1="1889" x2="2531.64" y2="1953" stroke="#000000" stroke-width="1" />

 <!-- crossing -->
 <g stroke="#000000" stroke-width="1">
  <line x1="2486.82" y1="2043" x2="2588.92" y2="2043" />
  <line x1="2531.64" y1="1953" x2="2531.64" y2="2133" stroke="#000000" stroke-dasharray="1 0"/>
 </g>
 <use stroke="#000000" xlink:href="#ah" transform="translate(2485.82 2043)rotate(180)"/>
 <text x="2531" y="2035" fill="#000000" stroke="none" text-anchor="start">else</text>

 <!-- vertical -->
 <line x1="2531.64" y1="2133" x2="2531.64" y2="2470" stroke="#000000" stroke-width="1" />
 <text x="2539" y="2301" fill="#000000" stroke="none" text-anchor="start">else</text>

 <!-- north/west corner -->
 <g stroke="#000000" stroke-width="1">
  <line x1="2531.64" y1="2470" x2="2531.64" y2="2515.5" />
  <line x1="2486.82" y1="2515" x2="2532.14" y2="2515" />
 </g>
 <use stroke="#000000" xlink:href="#ah" transform="translate(2485.82 2515)rotate(180)"/>
</g>

<g class="edge">
 <!-- from i = 0 to i++ -->
 <!-- vertical -->
 <line x1="1086" y1="1489" x2="1086" y2="1508.8" stroke="#000000" stroke-width="1" />
 <use stroke="#000000" xlink:href="#ah" transform="translate(1086 1509.8)rotate(90)"/>
</g>

<g class="edge">
 <!-- from if x &gt; (a + c)/2 to e = a - x -->
 <!-- south/west corner -->
 <g stroke="#000000" stroke-width="1">
  <line x1="1459.28" y1="798.5" x2="1459.28" y2="901" />
  <line x1="1413.46" y1="799" x2="1459.78" y2="799" />
 </g>

 <!-- north/east corner -->
 <g stroke="#000000" stroke-width="1">
  <line x1="1459.28" y1="901" x2="1459.28" y2="933.5" />
  <line x1="1458.78" y1="933" x2="1516.56" y2="933" />
 </g>

 <!-- horizontal -->
 <line x1="1516.56" y1="933" x2="1961.56" y2="933" stroke="#000000" stroke-width="1" />

 <!-- north/west corner -->
 <g stroke="#000000" stroke-width="1">
  <line x1="1995.96" y1="901" x2="1995.96" y2="933.5" />
  <line x1="1961.56" y1="933" x2="1996.46" y2="933" />
 </g>

 <!-- vertical -->
 <line x1="1995.96" y1="633" x2="1995.96" y2="901" stroke="#000000" stroke-width="1" />

 <!-- crossing -->
 <g stroke="#000000" stroke-width="1">
  <line x1="1969.44" y1="592.5" x2="2030.36" y2="592.5" />
  <line x1="1995.96" y1="552" x2="1995.96" y2="633" stroke="#000000" stroke-dasharray="1 0"/>
 </g>
 <use stroke="#000000" xlink:href="#ah" transform="translate(1968.44 592.5)rotate(180)"/>
 <text x="1995" y="584" fill="#000000" stroke="none" text-anchor="start">then</text>

 <!-- crossing -->
 <g stroke="#000000" stroke-width="1">
  <line x1="1969.44" y1="511" x2="2030.36" y2="511" />
  <line x1="1995.96" y1="470" x2="1995.96" y2="552" stroke="#000000" stroke-dasharray="1 0"/>
 </g>
 <use stroke="#000000" xlink:href="#ah" transform="translate(1968.44 511)rotate(180)"/>
 <text x="1995" y="503" fill="#000000" stroke="none" text-anchor="start">then</text>

 <!-- crossing -->
 <g stroke="#000000" stroke-width="1">
  <line x1="1969.44" y1="429" x2="2030.36" y2="429" />
  <line x1="1995.96" y1="388" x2="1995.96" y2="470" stroke="#000000" stroke-dasharray="1 0"/>
 </g>
 <use stroke="#000000" xlink:href="#ah" transform="translate(1968.44 429)rotate(180)"/>
 <text x="1995" y="421" fill="#000000" stroke="none" text-anchor="start">then</text>

 <!-- vertical -->
 <line x1="1995.96" y1="72" x2="1995.96" y2="388" stroke="#000000" stroke-width="1" />

 <!-- south/west corner -->
 <g stroke="#000000" stroke-width="1">
  <line x1="1995.96" y1="55.5" x2="1995.96" y2="72" />
  <line x1="1961.56" y1="56" x2="1996.46" y2="56" />
 </g>

 <!-- horizontal -->
 <line x1="674" y1="56" x2="1961.56" y2="56" stroke="#000000" stroke-width="1" />

 <!-- south/east corner -->
 <g stroke="#000000" stroke-width="1">
  <line x1="357" y1="55.5" x2="357" y2="72" />
  <line x1="356.5" y1="56" x2="674" y2="56" />
 </g>

 <!-- vertical -->
 <line x1="357" y1="72" x2="357" y2="633" stroke="#000000" stroke-width="1" />

 <!-- vertical -->
 <line x1="357" y1="633" x2="357" y2="689.6" stroke="#000000" stroke-width="1" />
 <use stroke="#000000" xlink:href="#ah" transform="translate(357 690.6)rotate(90)"/>
 <text x="365" y="665" fill="#000000" stroke="none" text-anchor="start">then</text>
</g>

<g class="edge">
 <!-- from if x &gt; (a + c)/2 to e = c - x -->
 <!-- vertical -->
 <line x1="1086" y1="909" x2="1086" y2="957.6" stroke="#000000" stroke-width="1" />
 <use stroke="#000000" xlink:href="#ah" transform="translate(1086 958.6)rotate(90)"/>
 <text x="1094" y="933" fill="#000000" stroke="none" text-anchor="start">else</text>
</g>

<g class="edge">
 <!-- from {fa,a,fc,c,fu,u,fv,v,fw,w,fx,x} =\n{fa,a,fx,x,newOrdinate,newAbscissa,vwxSequence} to if And(Abs(a-x) &lt; xtol,\nAbs(c-x) &lt; xtol) -->
 <!-- horizontal -->
 <line x1="1968.44" y1="3796" x2="2030.36" y2="3796" stroke="#000000" stroke-width="1" />

 <!-- horizontal -->
 <line x1="2030.36" y1="3796" x2="2474.36" y2="3796" stroke="#000000" stroke-width="1" />

 <!-- north/west corner -->
 <g stroke="#000000" stroke-width="1">
  <line x1="2531.64" y1="3685" x2="2531.64" y2="3796.5" />
  <line x1="2474.36" y1="3796" x2="2532.14" y2="3796" />
 </g>

 <!-- vertical -->
 <line x1="2531.64" y1="2915" x2="2531.64" y2="3685" stroke="#000000" stroke-width="1" />

 <!-- crossing -->
 <g stroke="#000000" stroke-width="1">
  <line x1="2474.36" y1="2897" x2="2588.92" y2="2897" />
  <line x1="2531.64" y1="2879" x2="2531.64" y2="2915" stroke="#000000" stroke-dasharray="1 0"/>
 </g>

 <!-- south/east corner -->
 <g stroke="#000000" stroke-width="1">
  <line x1="2531.64" y1="2862.5" x2="2531.64" y2="2879" />
  <line x1="2531.14" y1="2863" x2="2588.92" y2="2863" />
 </g>

 <!-- horizontal -->
 <line x1="2620.92" y1="2863" x2="2652.92" y2="2863" stroke="#000000" stroke-width="1" />

 <!-- north/west corner -->
 <g stroke="#000000" stroke-width="1">
  <line x1="2668.92" y1="2847" x2="2668.92" y2="2863.5" />
  <line x1="2652.92" y1="2863" x2="2669.42" y2="2863" />
 </g>

 <!-- vertical -->
 <line x1="2668.92" y1="633" x2="2668.92" y2="2847" stroke="#000000" stroke-width="1" />

 <!-- south/west corner -->
 <g stroke="#000000" stroke-width="1">
  <line x1="2668.92" y1="592" x2="2668.92" y2="633" />
  <line x1="2652.92" y1="592.5" x2="2669.42" y2="592.5" />
 </g>

 <!-- horizontal -->
 <line x1="2030.36" y1="592.5" x2="2652.92" y2="592.5" stroke="#000000" stroke-width="1" />
</g>

<g class="edge">
 <!-- from if newOrdinate &lt; fx to if newAbscissa &gt;= x (part 1) -->
 <!-- horizontal -->
 <line x1="1413.46" y1="3510" x2="1504.1" y2="3510" stroke="#000000" stroke-width="1" />
 <use stroke="#000000" xlink:href="#ah" x="1505.1" y="3510"/>
 <text x="1455" y="3502" fill="#000000" stroke="none">then</text>
</g>

<g class="edge">
 <!-- from sameTestAbscissas =\n{x,u,c,a,w,c} to i = 0 -->
 <!-- vertical -->
 <line x1="1086" y1="1421" x2="1086" y2="1440.8" stroke="#000000" stroke-width="1" />
 <use stroke="#000000" xlink:href="#ah" transform="translate(1086 1441.8)rotate(90)"/>
</g>

<g class="edge">
 <!-- from candidateAbscissa =\ncandidateAbsicssa(i)\nwhere i is the position\nthat matches position(i)\nto newAbscissa to maxAcceptableDisplacement =\nMax(Abs({(newAbscissa-x)/2,\nnewAbscissa-candidateAbscissa})) -->
 <!-- vertical -->
 <line x1="1086" y1="3131" x2="1086" y2="3150.8" stroke="#000000" stroke-width="1" />
 <use stroke="#000000" xlink:href="#ah" transform="translate(1086 3151.8)rotate(90)"/>
</g>

<g class="edge">
 <!-- from if newAbscissa &gt;= x (part 1) to {fa,a,fc,c,fu,u,fv,v,fw,w,fx,x} =\n{fa,a,fx,x,newOrdinate,newAbscissa,vwxSequence} -->
 <!-- vertical -->
 <line x1="1739.06" y1="3629" x2="1739.06" y2="3677.6" stroke="#000000" stroke-width="1" />
 <use stroke="#000000" xlink:href="#ah" transform="translate(1739.06 3678.6)rotate(90)"/>
 <text x="1747" y="3653" fill="#000000" stroke="none" text-anchor="start">else</text>
</g>

<g class="edge">
 <!-- from store lowest three points of\n{fv,v,fw,w,fx,x,newOrdinate,newAbscissa}\npair sorted in order\nof decreasing ordinate\nas vwxSequence to if newOrdinate &lt; fx -->
 <!-- vertical -->
 <line x1="1086" y1="3375" x2="1086" y2="3394.8" stroke="#000000" stroke-width="1" />
 <use stroke="#000000" xlink:href="#ah" transform="translate(1086 3395.8)rotate(90)"/>
</g>

<g class="edge">
 <!-- from if j &gt;\nLength(sameTestAbscissas) to if Abs(sameTestAbscissas(j) -\nperturbed(i)) &lt; ptol -->
 <!-- horizontal -->
 <line x1="1961.56" y1="2719.5" x2="2023.48" y2="2719.5" stroke="#000000" stroke-width="1" />

 <!-- north/east corner -->
 <g stroke="#000000" stroke-width="1">
  <line x1="1739.06" y1="2592" x2="1739.06" y2="2720" />
  <line x1="1738.56" y1="2719.5" x2="1961.56" y2="2719.5" />
 </g>

 <!-- vertical -->
 <line x1="1739.06" y1="2165" x2="1739.06" y2="2592" stroke="#000000" stroke-width="1" />

 <!-- south/west corner -->
 <g stroke="#000000" stroke-width="1">
  <line x1="1739.06" y1="2148.5" x2="1739.06" y2="2165" />
  <line x1="1516.56" y1="2149" x2="1739.56" y2="2149" />
 </g>

 <!-- north/east corner -->
 <g stroke="#000000" stroke-width="1">
  <line x1="1459.28" y1="2133" x2="1459.28" y2="2149.5" />
  <line x1="1458.78" y1="2149" x2="1516.56" y2="2149" />
 </g>

 <!-- vertical -->
 <line x1="1459.28" y1="1889" x2="1459.28" y2="2133" stroke="#000000" stroke-width="1" />
 <text x="1467" y="2011" fill="#000000" stroke="none" text-anchor="start">else</text>

 <!-- south/east corner -->
 <g stroke="#000000" stroke-width="1">
  <line x1="1459.28" y1="1740.5" x2="1459.28" y2="1889" />
  <line x1="1458.78" y1="1741" x2="1504.1" y2="1741" />
 </g>
 <use stroke="#000000" xlink:href="#ah" x="1505.1" y="1741"/>
</g>

<g class="edge">
 <!-- from if And(Abs(a-x) &lt; xtol,\nAbs(c-x) &lt; xtol) to done with frame narrow -->
 <!-- vertical -->
 <line x1="1739.06" y1="641" x2="1739.06" y2="689.6" stroke="#000000" stroke-width="1" />
 <use stroke="#000000" xlink:href="#ah" transform="translate(1739.06 690.6)rotate(90)"/>
 <text x="1747" y="665" fill="#000000" stroke="none" text-anchor="start">then</text>
</g>

<g class="edge">
 <!-- from if newAbscissa &gt;= x (part 1) to {fa,a,fc,c,fu,u,fv,v,fw,w,fx,x} =\n{fx,x,fc,c,newOrdinate,newAbscissa,vwxSequence} -->
 <!-- horizontal -->
 <line x1="1968.44" y1="3510" x2="2022.48" y2="3510" stroke="#000000" stroke-width="1" />
 <use stroke="#000000" xlink:href="#ah" x="2023.48" y="3510"/>
 <text x="1991" y="3502" fill="#000000" stroke="none">then</text>
</g>

<g class="edge">
 <!-- from newAbscissa = newAbscissa(1) to newOrdinate = f(newAbscissa) -->
 <!-- vertical -->
 <line x1="1086" y1="2855" x2="1086" y2="2874.8" stroke="#000000" stroke-width="1" />
 <use stroke="#000000" xlink:href="#ah" transform="translate(1086 2875.8)rotate(90)"/>
</g>

<g class="edge">
 <!-- from {fa,a,fc,c,fu,u,fv,v,fw,w,fx,x} =\n{fx,x,fc,c,newOrdinate,newAbscissa,vwxSequence} to if And(Abs(a-x) &lt; xtol,\nAbs(c-x) &lt; xtol) -->
 <!-- vertical -->
 <line x1="2252.36" y1="3367" x2="2252.36" y2="3391" stroke="#000000" stroke-width="1" />

 <!-- vertical -->
 <line x1="2252.36" y1="2915" x2="2252.36" y2="3367" stroke="#000000" stroke-width="1" />

 <!-- south/east corner -->
 <g stroke="#000000" stroke-width="1">
  <line x1="2252.36" y1="2896.5" x2="2252.36" y2="2915" />
  <line x1="2251.86" y1="2897" x2="2474.36" y2="2897" />
 </g>

 <!-- horizontal -->
 <line x1="2620.92" y1="2897" x2="2684.92" y2="2897" stroke="#000000" stroke-width="1" />

 <!-- north/west corner -->
 <g stroke="#000000" stroke-width="1">
  <line x1="2700.92" y1="2879" x2="2700.92" y2="2897.5" />
  <line x1="2684.92" y1="2897" x2="2701.42" y2="2897" />
 </g>

 <!-- vertical -->
 <line x1="2700.92" y1="552" x2="2700.92" y2="2879" stroke="#000000" stroke-width="1" />

 <!-- south/west corner -->
 <g stroke="#000000" stroke-width="1">
  <line x1="2700.92" y1="510.5" x2="2700.92" y2="552" />
  <line x1="2684.92" y1="511" x2="2701.42" y2="511" />
 </g>

 <!-- horizontal -->
 <line x1="2030.36" y1="511" x2="2684.92" y2="511" stroke="#000000" stroke-width="1" />
</g>

<g class="edge">
 <!-- from e = a - x to define candidateAbsicssa(1)\nvia inverse polynomial\ninterpolation -->
 <!-- vertical -->
 <line x1="357" y1="909" x2="357" y2="965" stroke="#000000" stroke-width="1" />

 <!-- vertical -->
 <line x1="357" y1="965" x2="357" y2="1033" stroke="#000000" stroke-width="1" />

 <!-- north/east corner -->
 <g stroke="#000000" stroke-width="1">
  <line x1="357" y1="1033" x2="357" y2="1069.5" />
  <line x1="356.5" y1="1069" x2="674" y2="1069" />
 </g>

 <!-- horizontal -->
 <line x1="674" y1="1069" x2="722" y2="1069" stroke="#000000" stroke-width="1" />
</g>

<g class="edge">
 <!-- from ptol = 10^-accuracyGoal +\nAbs(perturbed(i))*10^-precisionGoal to j = 0 -->
 <!-- vertical -->
 <line x1="2252.36" y1="2141" x2="2252.36" y2="2160.8" stroke="#000000" stroke-width="1" />
 <use stroke="#000000" xlink:href="#ah" transform="translate(2252.36 2161.8)rotate(90)"/>
</g>

<g class="edge">
 <!-- from {fa,a,fc,c,fu,u,fv,v,fw,w,fx,x} =\n{newOrdinate,newAbscissa,fc,c,newOrdinate,newAbscissa,vwxSequence} to if And(Abs(a-x) &lt; xtol,\nAbs(c-x) &lt; xtol) -->
 <!-- north/east corner -->
 <g stroke="#000000" stroke-width="1">
  <line x1="746" y1="3971" x2="746" y2="3998.5" />
  <line x1="745.5" y1="3998" x2="765.2" y2="3998" />
 </g>

 <!-- vertical -->
 <line x1="746" y1="1889" x2="746" y2="3971" stroke="#000000" stroke-width="1" />

 <!-- crossing -->
 <g stroke="#000000" stroke-width="1">
  <line x1="722" y1="1741" x2="765.2" y2="1741" />
  <line x1="746" y1="1593" x2="746" y2="1889" stroke="#000000" stroke-dasharray="1 0"/>
 </g>

 <!-- vertical -->
 <line x1="746" y1="1105" x2="746" y2="1593" stroke="#000000" stroke-width="1" />

 <!-- crossing -->
 <g stroke="#000000" stroke-width="1">
  <line x1="722" y1="1069" x2="764.2" y2="1069" />
  <line x1="746" y1="1033" x2="746" y2="1105" stroke="#000000" stroke-dasharray="1 0"/>
 </g>
 <use stroke="#000000" xlink:href="#ah" x="765.2" y="1069"/>

 <!-- vertical -->
 <line x1="746" y1="633" x2="746" y2="1033" stroke="#000000" stroke-width="1" />

 <!-- south/east corner -->
 <g stroke="#000000" stroke-width="1">
  <line x1="746" y1="592" x2="746" y2="633" />
  <line x1="745.5" y1="592.5" x2="764.2" y2="592.5" />
 </g>
 <use stroke="#000000" xlink:href="#ah" x="765.2" y="592.5"/>
</g>

<g class="edge">
 <!-- from if And(Abs(a-x) &lt; xtol,\nAbs(c-x) &lt; xtol) to if x &gt; (a + c)/2 -->
 <!-- vertical -->
 <line x1="1086" y1="641" x2="1086" y2="689.6" stroke="#000000" stroke-width="1" />
 <use stroke="#000000" xlink:href="#ah" transform="translate(1086 690.6)rotate(90)"/>
 <text x="1094" y="665" fill="#000000" stroke="none" text-anchor="start">else</text>
</g>

<g class="edge">
 <!-- from newOrdinate = f(newAbscissa) to iteration++ -->
 <!-- vertical -->
 <line x1="1086" y1="2923" x2="1086" y2="2942.8" stroke="#000000" stroke-width="1" />
 <use stroke="#000000" xlink:href="#ah" transform="translate(1086 2943.8)rotate(90)"/>
</g>

<g class="edge">
 <!-- from xtol = 10^-accuracyGoal +\nAbs(x)*10^-precisionGoal to if And(Abs(a-x) &lt; xtol,\nAbs(c-x) &lt; xtol) -->
 <!-- vertical -->
 <line x1="1086" y1="364" x2="1086" y2="383.8" stroke="#000000" stroke-width="1" />
 <use stroke="#000000" xlink:href="#ah" transform="translate(1086 384.8)rotate(90)"/>
</g>

<g class="edge">
 <!-- from j = 0 to j++ -->
 <!-- vertical -->
 <line x1="2252.36" y1="2414" x2="2252.36" y2="2462.6" stroke="#000000" stroke-width="1" />
 <use stroke="#000000" xlink:href="#ah" transform="translate(2252.36 2463.6)rotate(90)"/>
</g>

<g class="edge">
 <!-- from newAbscissa =\nperturbed =\ncandidateAbscissa =\n{candidateAbsicssa(2)} to newAbscissa = newAbscissa(1) -->
 <!-- vertical -->
 <line x1="1086" y1="2568" x2="1086" y2="2587.8" stroke="#000000" stroke-width="1" />
 <use stroke="#000000" xlink:href="#ah" transform="translate(1086 2588.8)rotate(90)"/>
</g>

<g class="edge">
 <!-- from if i &gt;\nLength(perturbed) to ptol = 10^-accuracyGoal +\nAbs(perturbed(i))*10^-precisionGoal -->
 <!-- south/east corner -->
 <g stroke="#000000" stroke-width="1">
  <line x1="706" y1="1740.5" x2="706" y2="1889" />
  <line x1="705.5" y1="1741" x2="722" y2="1741" />
 </g>

 <!-- vertical -->
 <line x1="706" y1="1889" x2="706" y2="4025" stroke="#000000" stroke-width="1" />

 <!-- north/east corner -->
 <g stroke="#000000" stroke-width="1">
  <line x1="706" y1="4025" x2="706" y2="4041.5" />
  <line x1="705.5" y1="4041" x2="722" y2="4041" />
 </g>

 <!-- horizontal -->
 <line x1="722" y1="4041" x2="1402" y2="4041" stroke="#000000" stroke-width="1" />

 <!-- crossing -->
 <g stroke="#000000" stroke-width="1">
  <line x1="1402" y1="4041" x2="1516.56" y2="4041" />
  <line x1="1459.28" y1="4025" x2="1459.28" y2="4057" stroke="#000000" stroke-dasharray="1 0"/>
 </g>

 <!-- horizontal -->
 <line x1="1516.56" y1="4041" x2="2588.92" y2="4041" stroke="#000000" stroke-width="1" />

 <!-- north/west corner -->
 <g stroke="#000000" stroke-width="1">
  <line x1="2604.92" y1="4025" x2="2604.92" y2="4041.5" />
  <line x1="2588.92" y1="4041" x2="2605.42" y2="4041" />
 </g>

 <!-- vertical -->
 <line x1="2604.92" y1="2915" x2="2604.92" y2="4025" stroke="#000000" stroke-width="1" />

 <!-- crossing -->
 <g stroke="#000000" stroke-width="1">
  <line x1="2588.92" y1="2897" x2="2620.92" y2="2897" />
  <line x1="2604.92" y1="2879" x2="2604.92" y2="2915" stroke="#000000" stroke-dasharray="1 0"/>
 </g>

 <!-- crossing -->
 <g stroke="#000000" stroke-width="1">
  <line x1="2588.92" y1="2863" x2="2620.92" y2="2863" />
  <line x1="2604.92" y1="2847" x2="2604.92" y2="2879" stroke="#000000" stroke-dasharray="1 0"/>
 </g>

 <!-- crossing -->
 <g stroke="#000000" stroke-width="1">
  <line x1="2588.92" y1="2719.5" x2="2620.92" y2="2719.5" />
  <line x1="2604.92" y1="2592" x2="2604.92" y2="2847" stroke="#000000" stroke-dasharray="1 0"/>
 </g>

 <!-- vertical -->
 <line x1="2604.92" y1="2133" x2="2604.92" y2="2592" stroke="#000000" stroke-width="1" />

 <!-- south/west corner -->
 <g stroke="#000000" stroke-width="1">
  <line x1="2604.92" y1="2042.5" x2="2604.92" y2="2133" />
  <line x1="2588.92" y1="2043" x2="2605.42" y2="2043" />
 </g>
</g>

<g class="edge">
 <!-- from j++ to if j &gt;\nLength(sameTestAbscissas) -->
 <!-- vertical -->
 <line x1="2252.36" y1="2568" x2="2252.36" y2="2587.8" stroke="#000000" stroke-width="1" />
 <use stroke="#000000" xlink:href="#ah" transform="translate(2252.36 2588.8)rotate(90)"/>
</g>

<g class="edge">
 <!-- from e = c - x to define candidateAbsicssa(1)\nvia inverse polynomial\ninterpolation -->
 <!-- vertical -->
 <line x1="1086" y1="1009" x2="1086" y2="1028.8" stroke="#000000" stroke-width="1" />
 <use stroke="#000000" xlink:href="#ah" transform="translate(1086 1029.8)rotate(90)"/>
</g>

<g class="node-start">
 <!-- Given: f, a, c,\nlimitLeft,\nlimitRight,\nreverse,\nshrinkFactor,\ngrowthFactor,\naccuracyGoal,\nprecisionGoal,\nmaxWideningIterations,\nmaxNarrowingIterations, rounded -->
 <rect fill="#ffbfc9" height="197" rx="15" ry="15" stroke="#000000" width="631" x="770.5"
   y="72.5" />
 <text x="1086" y="96" fill="#000000" text-anchor="middle">
  <tspan x="1086" y="94">Given: f, a, c,</tspan>
  <tspan x="1086" y="112">limitLeft,</tspan>
  <tspan x="1086" y="130">limitRight,</tspan>
  <tspan x="1086" y="148">reverse,</tspan>
  <tspan x="1086" y="166">shrinkFactor,</tspan>
  <tspan x="1086" y="184">growthFactor,</tspan>
  <tspan x="1086" y="202">accuracyGoal,</tspan>
  <tspan x="1086" y="220">precisionGoal,</tspan>
  <tspan x="1086" y="238">maxWideningIterations,</tspan>
  <tspan x="1086" y="256">maxNarrowingIterations</tspan>
 </text>
</g>

<g class="node-action">
 <!-- xtol = 10^-accuracyGoal +\nAbs(x)*10^-precisionGoal, rounded -->
 <rect fill="#8bef91" height="53" rx="15" ry="15" stroke="#000000" width="631" x="770.5"
   y="302.5" />
 <text x="1086" y="326" fill="#000000" text-anchor="middle">
  <tspan x="1086" y="324">xtol = 10^-accuracyGoal +</tspan>
  <tspan x="1086" y="342">Abs(x)*10^-precisionGoal</tspan>
 </text>
</g>

<g class="node-question">
 <!-- if And(Abs(a-x) &lt; xtol,\nAbs(c-x) &lt; xtol), diamond -->
 <polygon points="770.67,510.5, 1365.78,388.5, 1960.89,510.5, 1365.78,632.5" fill="#ffff8a" stroke="#000000" />
 <text x="1365" y="507" fill="#000000" text-anchor="middle">
  <tspan x="1365" y="505">if And(Abs(a-x) &lt; xtol,</tspan>
  <tspan x="1365" y="523">Abs(c-x) &lt; xtol)</tspan>
 </text>
</g>

<g class="node">
 <!-- done with frame narrow, rect -->
 <rect fill="#ffffff" height="203" stroke="#000000" width="444" x="1517.06" y="697.5" />
 <text x="1739" y="805" fill="#000000" text-anchor="middle">done with frame narrow</text>
</g>

<g class="node-question">
 <!-- if x &gt; (a + c)/2, diamond -->
 <polygon points="770.67,799, 1086,697.5, 1401.33,799, 1086,900.5" fill="#ffff8a" stroke="#000000" />
 <text x="1086" y="805" fill="#000000" text-anchor="middle">if x &gt; (a + c)/2</text>
</g>

<g class="node-action">
 <!-- e = a - x, rounded -->
 <rect fill="#8bef91" height="203" rx="15" ry="15" stroke="#000000" width="633" x="40.5"
   y="697.5" />
 <text x="357" y="805" fill="#000000" text-anchor="middle">e = a - x</text>
</g>

<g class="node-action">
 <!-- define candidateAbsicssa(1)\nvia inverse polynomial\ninterpolation, rounded -->
 <rect fill="#8bef91" height="71" rx="15" ry="15" stroke="#000000" width="631" x="770.5"
   y="1033.5" />
 <text x="1086" y="1057" fill="#000000" text-anchor="middle">
  <tspan x="1086" y="1055">define candidateAbsicssa(1)</tspan>
  <tspan x="1086" y="1073">via inverse polynomial</tspan>
  <tspan x="1086" y="1091">interpolation</tspan>
 </text>
</g>

<g class="node-action">
 <!-- candidateAbscissa(2) = x + e*shrinkFactor, rounded -->
 <rect fill="#8bef91" height="35" rx="15" ry="15" stroke="#000000" width="631" x="770.5"
   y="1137.5" />
 <text x="1086" y="1161" fill="#000000" text-anchor="middle">candidateAbscissa(2) = x + e*shrinkFactor</text>
</g>

<g class="node-action">
 <!-- perturbed = candidateAbscissa, rounded -->
 <rect fill="#8bef91" height="35" rx="15" ry="15" stroke="#000000" width="631" x="770.5"
   y="1205.5" />
 <text x="1086" y="1229" fill="#000000" text-anchor="middle">perturbed = candidateAbscissa</text>
</g>

<g class="node-action">
 <!-- perturbationFactor =\nSign(e)/2, rounded -->
 <rect fill="#8bef91" height="53" rx="15" ry="15" stroke="#000000" width="631" x="770.5"
   y="1273.5" />
 <text x="1086" y="1297" fill="#000000" text-anchor="middle">
  <tspan x="1086" y="1295">perturbationFactor =</tspan>
  <tspan x="1086" y="1313">Sign(e)/2</tspan>
 </text>
</g>

<g class="node-action">
 <!-- sameTestAbscissas =\n{x,u,c,a,w,c}, rounded -->
 <rect fill="#8bef91" height="53" rx="15" ry="15" stroke="#000000" width="631" x="770.5"
   y="1359.5" />
 <text x="1086" y="1383" fill="#000000" text-anchor="middle">
  <tspan x="1086" y="1381">sameTestAbscissas =</tspan>
  <tspan x="1086" y="1399">{x,u,c,a,w,c}</tspan>
 </text>
</g>

<g class="node-action">
 <!-- i = 0, rounded -->
 <rect fill="#8bef91" height="35" rx="15" ry="15" stroke="#000000" width="631" x="770.5"
   y="1445.5" />
 <text x="1086" y="1469" fill="#000000" text-anchor="middle">i = 0</text>
</g>

<g class="node-action">
 <!-- i++, rounded -->
 <rect fill="#8bef91" height="47" rx="15" ry="15" stroke="#000000" width="631" x="770.5"
   y="1513.5" />
 <text x="1086" y="1543" fill="#000000" text-anchor="middle">i++</text>
</g>

<g class="node-question">
 <!-- if i &gt;\nLength(perturbed), diamond -->
 <polygon points="770.67,1741, 1086,1593.5, 1401.33,1741, 1086,1888.5" fill="#ffff8a" stroke="#000000" />
 <text x="1086" y="1738" fill="#000000" text-anchor="middle">
  <tspan x="1086" y="1736">if i &gt;</tspan>
  <tspan x="1086" y="1754">Length(perturbed)</tspan>
 </text>
</g>

<g class="node-action">
 <!-- Select from perturbed\na list containing\nthe first and\nonly the first\nabscissa between\na and c that represents\na displacement less than\nmaxAcceptableDisplacement from x.\nCall it newAbscissa., rounded -->
 <rect fill="#8bef91" height="179" rx="15" ry="15" stroke="#000000" width="631" x="770.5"
   y="1953.5" />
 <text x="1086" y="1977" fill="#000000" text-anchor="middle">
  <tspan x="1086" y="1975">Select from perturbed</tspan>
  <tspan x="1086" y="1993">a list containing</tspan>
  <tspan x="1086" y="2011">the first and</tspan>
  <tspan x="1086" y="2029">only the first</tspan>
  <tspan x="1086" y="2047">abscissa between</tspan>
  <tspan x="1086" y="2065">a and c that represents</tspan>
  <tspan x="1086" y="2083">a displacement less than</tspan>
  <tspan x="1086" y="2101">maxAcceptableDisplacement from x.</tspan>
  <tspan x="1086" y="2119">Call it newAbscissa.</tspan>
 </text>
</g>

<g class="node-question">
 <!-- if newAbscissa == {}\n(if no perturbed points\nmet the criteria), diamond -->
 <polygon points="770.67,2285.5, 1086,2165.5, 1401.33,2285.5, 1086,2405.5" fill="#ffff8a" stroke="#000000" />
 <text x="1086" y="2273" fill="#000000" text-anchor="middle">
  <tspan x="1086" y="2271">if newAbscissa == {}</tspan>
  <tspan x="1086" y="2289">(if no perturbed points</tspan>
  <tspan x="1086" y="2307">met the criteria)</tspan>
 </text>
</g>

<g class="node-action">
 <!-- newAbscissa =\nperturbed =\ncandidateAbscissa =\n{candidateAbsicssa(2)}, rounded -->
 <rect fill="#8bef91" height="89" rx="15" ry="15" stroke="#000000" width="631" x="770.5"
   y="2470.5" />
 <text x="1086" y="2494" fill="#000000" text-anchor="middle">
  <tspan x="1086" y="2492">newAbscissa =</tspan>
  <tspan x="1086" y="2510">perturbed =</tspan>
  <tspan x="1086" y="2528">candidateAbscissa =</tspan>
  <tspan x="1086" y="2546">{candidateAbsicssa(2)}</tspan>
 </text>
</g>

<g class="node-action">
 <!-- newAbscissa = newAbscissa(1), rounded -->
 <rect fill="#8bef91" height="254" rx="15" ry="15" stroke="#000000" width="631" x="770.5"
   y="2592.5" />
 <text x="1086" y="2725" fill="#000000" text-anchor="middle">newAbscissa = newAbscissa(1)</text>
</g>

<g class="node-action">
 <!-- newOrdinate = f(newAbscissa), rounded -->
 <rect fill="#8bef91" height="35" rx="15" ry="15" stroke="#000000" width="631" x="770.5"
   y="2879.5" />
 <text x="1086" y="2903" fill="#000000" text-anchor="middle">newOrdinate = f(newAbscissa)</text>
</g>

<g class="node-action">
 <!-- iteration++, rounded -->
 <rect fill="#8bef91" height="35" rx="15" ry="15" stroke="#000000" width="631" x="770.5"
   y="2947.5" />
 <text x="1086" y="2971" fill="#000000" text-anchor="middle">iteration++</text>
</g>

<g class="node-action">
 <!-- candidateAbscissa =\ncandidateAbsicssa(i)\nwhere i is the position\nthat matches position(i)\nto newAbscissa, rounded -->
 <rect fill="#8bef91" height="107" rx="15" ry="15" stroke="#000000" width="631" x="770.5"
   y="3015.5" />
 <text x="1086" y="3039" fill="#000000" text-anchor="middle">
  <tspan x="1086" y="3037">candidateAbscissa =</tspan>
  <tspan x="1086" y="3055">candidateAbsicssa(i)</tspan>
  <tspan x="1086" y="3073">where i is the position</tspan>
  <tspan x="1086" y="3091">that matches position(i)</tspan>
  <tspan x="1086" y="3109">to newAbscissa</tspan>
 </text>
</g>

<g class="node-action">
 <!-- maxAcceptableDisplacement =\nMax(Abs({(newAbscissa-x)/2,\nnewAbscissa-candidateAbscissa})), rounded -->
 <rect fill="#8bef91" height="71" rx="15" ry="15" stroke="#000000" width="631" x="770.5"
   y="3155.5" />
 <text x="1086" y="3179" fill="#000000" text-anchor="middle">
  <tspan x="1086" y="3177">maxAcceptableDisplacement =</tspan>
  <tspan x="1086" y="3195">Max(Abs({(newAbscissa-x)/2,</tspan>
  <tspan x="1086" y="3213">newAbscissa-candidateAbscissa}))</tspan>
 </text>
</g>

<g class="node-action">
 <!-- store lowest three points of\n{fv,v,fw,w,fx,x,newOrdinate,newAbscissa}\npair sorted in order\nof decreasing ordinate\nas vwxSequence, rounded -->
 <rect fill="#8bef91" height="107" rx="15" ry="15" stroke="#000000" width="631" x="770.5"
   y="3259.5" />
 <text x="1086" y="3283" fill="#000000" text-anchor="middle">
  <tspan x="1086" y="3281">store lowest three points of</tspan>
  <tspan x="1086" y="3299">{fv,v,fw,w,fx,x,newOrdinate,newAbscissa}</tspan>
  <tspan x="1086" y="3317">pair sorted in order</tspan>
  <tspan x="1086" y="3335">of decreasing ordinate</tspan>
  <tspan x="1086" y="3353">as vwxSequence</tspan>
 </text>
</g>

<g class="node-question">
 <!-- if newOrdinate &lt; fx, diamond -->
 <polygon points="770.67,3510, 1086,3399.5, 1401.33,3510, 1086,3620.5" fill="#ffff8a" stroke="#000000" />
 <text x="1086" y="3516" fill="#000000" text-anchor="middle">if newOrdinate &lt; fx</text>
</g>

<g class="node-question">
 <!-- if newAbscissa &gt;= x, diamond -->
 <polygon points="1517.23,3510, 1739.06,3399.5, 1960.89,3510, 1739.06,3620.5" fill="#ffff8a" stroke="#000000" />
 <text x="1739" y="3516" fill="#000000" text-anchor="middle">if newAbscissa &gt;= x</text>
</g>

<g class="node-action">
 <!-- {fa,a,fc,c,fu,u,fv,v,fw,w,fx,x} =\n{fx,x,fc,c,newOrdinate,newAbscissa,vwxSequence}, rounded -->
 <rect fill="#8bef91" height="221" rx="15" ry="15" stroke="#000000" width="443" x="2030.86"
   y="3399.5" />
 <text x="2252" y="3507" fill="#000000" text-anchor="middle">
  <tspan x="2252" y="3505">{fa,a,fc,c,fu,u,fv,v,fw,w,fx,x} =</tspan>
  <tspan x="2252" y="3523">{fx,x,fc,c,newOrdinate,newAbscissa,vwxSequence}</tspan>
 </text>
</g>

<g class="node-action">
 <!-- e = c - x, rounded -->
 <rect fill="#8bef91" height="35" rx="15" ry="15" stroke="#000000" width="631" x="770.5"
   y="965.5" />
 <text x="1086" y="989" fill="#000000" text-anchor="middle">e = c - x</text>
</g>

<g class="node-action">
 <!-- ptol = 10^-accuracyGoal +\nAbs(perturbed(i))*10^-precisionGoal, rounded -->
 <rect fill="#8bef91" height="179" rx="15" ry="15" stroke="#000000" width="443" x="2030.86"
   y="1953.5" />
 <text x="2252" y="2040" fill="#000000" text-anchor="middle">
  <tspan x="2252" y="2038">ptol = 10^-accuracyGoal +</tspan>
  <tspan x="2252" y="2056">Abs(perturbed(i))*10^-precisionGoal</tspan>
 </text>
</g>

<g class="node-action">
 <!-- j = 0, rounded -->
 <rect fill="#8bef91" height="240" rx="15" ry="15" stroke="#000000" width="443" x="2030.86"
   y="2165.5" />
 <text x="2252" y="2291" fill="#000000" text-anchor="middle">j = 0</text>
</g>

<g class="node-action">
 <!-- j++, rounded -->
 <rect fill="#8bef91" height="89" rx="15" ry="15" stroke="#000000" width="443" x="2030.86"
   y="2470.5" />
 <text x="2252" y="2521" fill="#000000" text-anchor="middle">j++</text>
</g>

<g class="node-question">
 <!-- if j &gt;\nLength(sameTestAbscissas), diamond -->
 <polygon points="2031.03,2719.5, 2252.36,2592.5, 2473.69,2719.5, 2252.36,2846.5" fill="#ffff8a" stroke="#000000" />
 <text x="2252" y="2716" fill="#000000" text-anchor="middle">
  <tspan x="2252" y="2714">if j &gt;</tspan>
  <tspan x="2252" y="2732">Length(sameTestAbscissas)</tspan>
 </text>
</g>

<g class="node-question">
 <!-- if Abs(sameTestAbscissas(j) -\nperturbed(i)) &lt; ptol, diamond -->
 <polygon points="1517.23,1741, 1739.06,1593.5, 1960.89,1741, 1739.06,1888.5" fill="#ffff8a" stroke="#000000" />
 <text x="1739" y="1738" fill="#000000" text-anchor="middle">
  <tspan x="1739" y="1736">if Abs(sameTestAbscissas(j) -</tspan>
  <tspan x="1739" y="1754">perturbed(i)) &lt; ptol</tspan>
 </text>
</g>

<g class="node-action">
 <!-- perturbed(i) =\n perturbed(i) +\nperturbFactor*tol, rounded -->
 <rect fill="#8bef91" height="179" rx="15" ry="15" stroke="#000000" width="444" x="1517.06"
   y="1953.5" />
 <text x="1739" y="2031" fill="#000000" text-anchor="middle">
  <tspan x="1739" y="2029">perturbed(i) =</tspan>
  <tspan x="1739" y="2047">perturbed(i) +</tspan>
  <tspan x="1739" y="2065">perturbFactor*tol</tspan>
 </text>
</g>

<g class="node-question">
 <!-- if newAbscissa &gt;= x, diamond -->
 <polygon points="770.67,3796, 1086,3685.5, 1401.33,3796, 1086,3906.5" fill="#ffff8a" stroke="#000000" />
 <text x="1086" y="3802" fill="#000000" text-anchor="middle">if newAbscissa &gt;= x</text>
</g>

<g class="node-action">
 <!-- {fa,a,fc,c,fu,u,fv,v,fw,w,fx,x} =\n{fa,a,newOrdinate,newAbscissa,newOrdinate,newAbscissa,vwxSequence}, rounded -->
 <rect fill="#8bef91" height="221" rx="15" ry="15" stroke="#000000" width="633" x="40.5"
   y="3685.5" />
 <text x="357" y="3793" fill="#000000" text-anchor="middle">
  <tspan x="357" y="3791">{fa,a,fc,c,fu,u,fv,v,fw,w,fx,x} =</tspan>
  <tspan x="357" y="3809">{fa,a,newOrdinate,newAbscissa,newOrdinate,newAbscissa,vwxSequence}</tspan>
 </text>
</g>

<g class="node-action">
 <!-- {fa,a,fc,c,fu,u,fv,v,fw,w,fx,x} =\n{fa,a,fx,x,newOrdinate,newAbscissa,vwxSequence}, rounded -->
 <rect fill="#8bef91" height="221" rx="15" ry="15" stroke="#000000" width="444" x="1517.06"
   y="3685.5" />
 <text x="1739" y="3793" fill="#000000" text-anchor="middle">
  <tspan x="1739" y="3791">{fa,a,fc,c,fu,u,fv,v,fw,w,fx,x} =</tspan>
  <tspan x="1739" y="3809">{fa,a,fx,x,newOrdinate,newAbscissa,vwxSequence}</tspan>
 </text>
</g>

<g class="node-action">
 <!-- {fa,a,fc,c,fu,u,fv,v,fw,w,fx,x} =\n{newOrdinate,newAbscissa,fc,c,newOrdinate,newAbscissa,vwxSequence}, rounded -->
 <rect fill="#8bef91" height="53" rx="15" ry="15" stroke="#000000" width="631" x="770.5"
   y="3971.5" />
 <text x="1086" y="3995" fill="#000000" text-anchor="middle">
  <tspan x="1086" y="3993">{fa,a,fc,c,fu,u,fv,v,fw,w,fx,x} =</tspan>
  <tspan x="1086" y="4011">{newOrdinate,newAbscissa,fc,c,newOrdinate,newAbscissa,vwxSequence}</tspan>
 </text>
</g>

</svg>
