<?xml version="1.0" encoding="UTF-8" standalone="yes"?>
<!DOCTYPE svg PUBLIC "-//W3C//DTD SVG 1.1//EN" "http://www.w3.org/Graphics/SVG/1.1/DTD/svg11.dtd">

<svg width="971.92" height="3205" version="1.1" xmlns="http://www.w3.org/2000/svg" xmlns:xlink="http://www.w3.org/1999/xlink">
<!-- Generated at Thu Oct 26 19:49:34 2006 by:
  Graph::Easy v0.48
  Graph::Easy::As_svg v0.20
-->

<title>Untitled graph</title>
<defs>
 <!-- open arrow head -->
 <g id="ah" stroke-linecap="round" stroke-width="1">
  <line x1="-8" y1="-4" x2="1" y2="0" />
  <line x1="1" y1="0" x2="-8" y2="4" />
 </g>

 <!-- class definitions -->
 <style type="text/css"><![CDATA[
 .edge {
  fill: inherit;
  font-family: monospaced, courier-new, courier, sans-serif;
  font-size: 13px;
  stroke: black;
  text-anchor: middle;
 }
 .node,.node_action,.node_anon,.node_question,.node_start {
  text-anchor: middle;
  fill: white;
  font-size: 16px;
 }
 .node_action {
  fill: #8bef91;
 }
 .node_question {
  fill: #ffff8a;
 }
 .node_start {
  fill: #ffbfc9;
 }
 ]]></style>
</defs>

<!-- graph background with border (mainly for printing) -->
<rect x="0" y="0" width="979.92" height="3213" fill="white" stroke="none" stroke-dasharray="" stroke-width="1" />

<g class="edge">
 <!-- from if fc &gt; fa to if reverse -->
 <!-- south/west corner -->
 <g stroke="#000000" stroke-width="1">
  <line x1="907.64" y1="348.5" x2="907.64" y2="410" />
  <line x1="861.82" y1="349" x2="908.14" y2="349" />
 </g>

 <!-- vertical -->
 <line x1="907.64" y1="410" x2="907.64" y2="560" stroke="#000000" stroke-width="1" />
 <text x="915" y="485" fill="#000000" stroke="none" text-anchor="start">else</text>

 <!-- north/west corner -->
 <g stroke="#000000" stroke-width="1">
  <line x1="907.64" y1="560" x2="907.64" y2="615.5" />
  <line x1="862.82" y1="615" x2="908.14" y2="615" />
 </g>
 <use stroke="#000000" xlink:href="#ah" transform="translate(861.82 615)rotate(180)"/>
</g>

<g class="edge">
 <!-- from frameMinimumStopTest to if And(Not(frameBound,\nNot(reverse)) -->
 <!-- horizontal -->
 <line x1="338.8" y1="2087" x2="441.9" y2="2087" stroke="#000000" stroke-width="1" />

 <!-- horizontal -->
 <line x1="245.88" y1="2087" x2="306.8" y2="2087" stroke="#000000" stroke-width="1" />
 <use stroke="#000000" xlink:href="#ah" transform="translate(244.88 2087)rotate(180)"/>
 <text x="275" y="2079" fill="#000000" stroke="none">then</text>
</g>

<g class="edge">
 <!-- from domainBound = then to if iteration ==\nmaxWideningIterations -->
 <!-- vertical -->
 <line x1="651.86" y1="1605" x2="651.86" y2="1624.8" stroke="#000000" stroke-width="1" />
 <use stroke="#000000" xlink:href="#ah" transform="translate(651.86 1625.8)rotate(90)"/>
</g>

<g class="edge">
 <!-- from Given: f, a, c,\nlimitLeft,\nlimitRight,\nreverse,\nshrinkFactor,\ngrowthFactor,\nmaxWideningIterations,\nmaxNarrowingIterations to {fa,fc} =\n{f(a),f(c)} -->
 <!-- vertical -->
 <line x1="651.86" y1="178" x2="651.86" y2="197.8" stroke="#000000" stroke-width="1" />
 <use stroke="#000000" xlink:href="#ah" transform="translate(651.86 198.8)rotate(90)"/>
</g>

<g class="edge">
 <!-- from iteration = 1 to if fc &gt; fb -->
 <!-- vertical -->
 <line x1="651.86" y1="1000" x2="651.86" y2="1019.8" stroke="#000000" stroke-width="1" />
 <use stroke="#000000" xlink:href="#ah" transform="translate(651.86 1020.8)rotate(90)"/>
</g>

<g class="edge">
 <!-- from iterationBound = then to frameMinimumStopTest -->
 <!-- vertical -->
 <line x1="651.86" y1="1948" x2="651.86" y2="1967.8" stroke="#000000" stroke-width="1" />
 <use stroke="#000000" xlink:href="#ah" transform="translate(651.86 1968.8)rotate(90)"/>
</g>

<g class="edge">
 <!-- from fb = f(b) to iteration = 1 -->
 <!-- vertical -->
 <line x1="651.86" y1="932" x2="651.86" y2="951.8" stroke="#000000" stroke-width="1" />
 <use stroke="#000000" xlink:href="#ah" transform="translate(651.86 952.8)rotate(90)"/>
</g>

<g class="edge">
 <!-- from if newAbscissa &lt;=\nlowerLimit to if newAbscissa &gt;=\nupperLimit -->
 <!-- south/west corner -->
 <g stroke="#000000" stroke-width="1">
  <line x1="907.64" y1="2431.5" x2="907.64" y2="2530" />
  <line x1="861.82" y1="2432" x2="908.14" y2="2432" />
 </g>

 <!-- vertical -->
 <line x1="907.64" y1="2530" x2="907.64" y2="2662" stroke="#000000" stroke-width="1" />
 <text x="915" y="2596" fill="#000000" stroke="none" text-anchor="start">else</text>

 <!-- north/west corner -->
 <g stroke="#000000" stroke-width="1">
  <line x1="907.64" y1="2662" x2="907.64" y2="2760.5" />
  <line x1="862.82" y1="2760" x2="908.14" y2="2760" />
 </g>
 <use stroke="#000000" xlink:href="#ah" transform="translate(861.82 2760)rotate(180)"/>
</g>

<g class="edge">
 <!-- from if iteration ==\nmaxWideningIterations to iterationBound = then -->
 <!-- vertical -->
 <line x1="651.86" y1="1848" x2="651.86" y2="1896.6" stroke="#000000" stroke-width="1" />
 <use stroke="#000000" xlink:href="#ah" transform="translate(651.86 1897.6)rotate(90)"/>
 <text x="659" y="1872" fill="#000000" stroke="none" text-anchor="start">then</text>
</g>

<g class="edge">
 <!-- from b = c + shrinkFactor*(a-c) to fb = f(b) -->
 <!-- vertical -->
 <line x1="651.86" y1="864" x2="651.86" y2="883.8" stroke="#000000" stroke-width="1" />
 <use stroke="#000000" xlink:href="#ah" transform="translate(651.86 884.8)rotate(90)"/>
</g>

<g class="edge">
 <!-- from if fc &gt; fb to frameBound = then -->
 <!-- vertical -->
 <line x1="651.86" y1="1155" x2="651.86" y2="1203.6" stroke="#000000" stroke-width="1" />
 <use stroke="#000000" xlink:href="#ah" transform="translate(651.86 1204.6)rotate(90)"/>
 <text x="659" y="1179" fill="#000000" stroke="none" text-anchor="start">then</text>
</g>

<g class="edge">
 <!-- from newAbscissa = upperLimit to iteration++ -->
 <!-- vertical -->
 <line x1="651.86" y1="2966" x2="651.86" y2="2985.8" stroke="#000000" stroke-width="1" />
 <use stroke="#000000" xlink:href="#ah" transform="translate(651.86 2986.8)rotate(90)"/>
</g>

<g class="edge">
 <!-- from cdomain to domainBound = then -->
 <!-- vertical -->
 <line x1="651.86" y1="1505" x2="651.86" y2="1553.6" stroke="#000000" stroke-width="1" />
 <use stroke="#000000" xlink:href="#ah" transform="translate(651.86 1554.6)rotate(90)"/>
 <text x="659" y="1529" fill="#000000" stroke="none" text-anchor="start">then</text>
</g>

<g class="edge">
 <!-- from if reverse to {fc,c,fa,a} =\n{fa,a,fc,c} -->
 <!-- vertical -->
 <line x1="651.86" y1="678" x2="651.86" y2="726.6" stroke="#000000" stroke-width="1" />
 <use stroke="#000000" xlink:href="#ah" transform="translate(651.86 727.6)rotate(90)"/>
 <text x="659" y="702" fill="#000000" stroke="none" text-anchor="start">then</text>
</g>

<g class="edge">
 <!-- from if fc &gt; fb to cdomain -->
 <!-- south/west corner -->
 <g stroke="#000000" stroke-width="1">
  <line x1="907.64" y1="1085" x2="907.64" y2="1147" />
  <line x1="861.82" y1="1085.5" x2="908.14" y2="1085.5" />
 </g>

 <!-- vertical -->
 <line x1="907.64" y1="1147" x2="907.64" y2="1279" stroke="#000000" stroke-width="1" />
 <text x="915" y="1213" fill="#000000" stroke="none" text-anchor="start">else</text>

 <!-- north/west corner -->
 <g stroke="#000000" stroke-width="1">
  <line x1="907.64" y1="1279" x2="907.64" y2="1388.5" />
  <line x1="862.82" y1="1388" x2="908.14" y2="1388" />
 </g>
 <use stroke="#000000" xlink:href="#ah" transform="translate(861.82 1388)rotate(180)"/>
</g>

<g class="edge">
 <!-- from newOrdinate =\nf(newAbscissa) to {fa,a,fb,b,fc,c} =\n{fb,b,fc,c,newOrdinate,newAbscissa} -->
 <!-- vertical -->
 <line x1="651.86" y1="3120" x2="651.86" y2="3139.8" stroke="#000000" stroke-width="1" />
 <use stroke="#000000" xlink:href="#ah" transform="translate(651.86 3140.8)rotate(90)"/>
</g>

<g class="edge">
 <!-- from frameBound = then to cdomain -->
 <!-- vertical -->
 <line x1="651.86" y1="1255" x2="651.86" y2="1274.8" stroke="#000000" stroke-width="1" />
 <use stroke="#000000" xlink:href="#ah" transform="translate(651.86 1275.8)rotate(90)"/>
</g>

<g class="edge">
 <!-- from if fc &gt; fa to {fa,a,fc,c} =\n{fc,c,fa,a} -->
 <!-- vertical -->
 <line x1="651.86" y1="418" x2="651.86" y2="466.6" stroke="#000000" stroke-width="1" />
 <use stroke="#000000" xlink:href="#ah" transform="translate(651.86 467.6)rotate(90)"/>
 <text x="659" y="442" fill="#000000" stroke="none" text-anchor="start">then</text>
</g>

<g class="edge">
 <!-- from frameMinimumStopTest to newAbscissa = c + growthFactor*(c-b) -->
 <!-- vertical -->
 <line x1="651.86" y1="2210" x2="651.86" y2="2258.6" stroke="#000000" stroke-width="1" />
 <use stroke="#000000" xlink:href="#ah" transform="translate(651.86 2259.6)rotate(90)"/>
 <text x="659" y="2234" fill="#000000" stroke="none" text-anchor="start">else</text>
</g>

<g class="edge">
 <!-- from cdomain to if iteration ==\nmaxWideningIterations -->
 <!-- south/east corner -->
 <g stroke="#000000" stroke-width="1">
  <line x1="396.08" y1="1387.5" x2="396.08" y2="1497" />
  <line x1="395.58" y1="1388" x2="441.9" y2="1388" />
 </g>

 <!-- vertical -->
 <line x1="396.08" y1="1497" x2="396.08" y2="1629" stroke="#000000" stroke-width="1" />
 <text x="404" y="1563" fill="#000000" stroke="none" text-anchor="start">else</text>

 <!-- north/east corner -->
 <g stroke="#000000" stroke-width="1">
  <line x1="396.08" y1="1629" x2="396.08" y2="1735" />
  <line x1="395.58" y1="1734.5" x2="440.9" y2="1734.5" />
 </g>
 <use stroke="#000000" xlink:href="#ah" x="441.9" y="1734.5"/>
</g>

<g class="edge">
 <!-- from iteration++ to newOrdinate =\nf(newAbscissa) -->
 <!-- vertical -->
 <line x1="651.86" y1="3034" x2="651.86" y2="3053.8" stroke="#000000" stroke-width="1" />
 <use stroke="#000000" xlink:href="#ah" transform="translate(651.86 3054.8)rotate(90)"/>
</g>

<g class="edge">
 <!-- from {fc,c,fa,a} =\n{fa,a,fc,c} to b = c + shrinkFactor*(a-c) -->
 <!-- vertical -->
 <line x1="651.86" y1="796" x2="651.86" y2="815.8" stroke="#000000" stroke-width="1" />
 <use stroke="#000000" xlink:href="#ah" transform="translate(651.86 816.8)rotate(90)"/>
</g>

<g class="edge">
 <!-- from newAbscissa = c + growthFactor*(c-b) to if newAbscissa &lt;=\nlowerLimit -->
 <!-- vertical -->
 <line x1="651.86" y1="2310" x2="651.86" y2="2329.8" stroke="#000000" stroke-width="1" />
 <use stroke="#000000" xlink:href="#ah" transform="translate(651.86 2330.8)rotate(90)"/>
</g>

<g class="edge">
 <!-- from if newAbscissa &gt;=\nupperLimit to newAbscissa = upperLimit -->
 <!-- vertical -->
 <line x1="651.86" y1="2866" x2="651.86" y2="2914.6" stroke="#000000" stroke-width="1" />
 <use stroke="#000000" xlink:href="#ah" transform="translate(651.86 2915.6)rotate(90)"/>
 <text x="659" y="2890" fill="#000000" stroke="none" text-anchor="start">then</text>
</g>

<g class="edge">
 <!-- from {fa,a,fc,c} =\n{fc,c,fa,a} to if reverse -->
 <!-- vertical -->
 <line x1="651.86" y1="536" x2="651.86" y2="555.8" stroke="#000000" stroke-width="1" />
 <use stroke="#000000" xlink:href="#ah" transform="translate(651.86 556.8)rotate(90)"/>
</g>

<g class="edge">
 <!-- from {fa,fc} =\n{f(a),f(c)} to if fc &gt; fa -->
 <!-- vertical -->
 <line x1="651.86" y1="264" x2="651.86" y2="283.8" stroke="#000000" stroke-width="1" />
 <use stroke="#000000" xlink:href="#ah" transform="translate(651.86 284.8)rotate(90)"/>
</g>

<g class="edge">
 <!-- from if reverse to b = c + shrinkFactor*(a-c) -->
 <!-- south/east corner -->
 <g stroke="#000000" stroke-width="1">
  <line x1="396.08" y1="614.5" x2="396.08" y2="670" />
  <line x1="395.58" y1="615" x2="441.9" y2="615" />
 </g>

 <!-- vertical -->
 <line x1="396.08" y1="670" x2="396.08" y2="820" stroke="#000000" stroke-width="1" />
 <text x="404" y="745" fill="#000000" stroke="none" text-anchor="start">else</text>

 <!-- north/east corner -->
 <g stroke="#000000" stroke-width="1">
  <line x1="396.08" y1="820" x2="396.08" y2="838.5" />
  <line x1="395.58" y1="838" x2="440.9" y2="838" />
 </g>
 <use stroke="#000000" xlink:href="#ah" x="441.9" y="838"/>
</g>

<g class="edge">
 <!-- from if newAbscissa &gt;=\nupperLimit to iteration++ -->
 <!-- south/east corner -->
 <g stroke="#000000" stroke-width="1">
  <line x1="396.08" y1="2759.5" x2="396.08" y2="2858" />
  <line x1="395.58" y1="2760" x2="441.9" y2="2760" />
 </g>

 <!-- vertical -->
 <line x1="396.08" y1="2858" x2="396.08" y2="2990" stroke="#000000" stroke-width="1" />
 <text x="404" y="2924" fill="#000000" stroke="none" text-anchor="start">else</text>

 <!-- north/east corner -->
 <g stroke="#000000" stroke-width="1">
  <line x1="396.08" y1="2990" x2="396.08" y2="3008.5" />
  <line x1="395.58" y1="3008" x2="440.9" y2="3008" />
 </g>
 <use stroke="#000000" xlink:href="#ah" x="441.9" y="3008"/>
</g>

<g class="edge">
 <!-- from if iteration ==\nmaxWideningIterations to frameMinimumStopTest -->
 <!-- south/west corner -->
 <g stroke="#000000" stroke-width="1">
  <line x1="907.64" y1="1734" x2="907.64" y2="1840" />
  <line x1="861.82" y1="1734.5" x2="908.14" y2="1734.5" />
 </g>

 <!-- vertical -->
 <line x1="907.64" y1="1840" x2="907.64" y2="1972" stroke="#000000" stroke-width="1" />
 <text x="915" y="1906" fill="#000000" stroke="none" text-anchor="start">else</text>

 <!-- north/west corner -->
 <g stroke="#000000" stroke-width="1">
  <line x1="907.64" y1="1972" x2="907.64" y2="2087.5" />
  <line x1="862.82" y1="2087" x2="908.14" y2="2087" />
 </g>
 <use stroke="#000000" xlink:href="#ah" transform="translate(861.82 2087)rotate(180)"/>
</g>

<g class="edge">
 <!-- from newAbscissa = lowerLimit to if newAbscissa &gt;=\nupperLimit -->
 <!-- vertical -->
 <line x1="651.86" y1="2638" x2="651.86" y2="2657.8" stroke="#000000" stroke-width="1" />
 <use stroke="#000000" xlink:href="#ah" transform="translate(651.86 2658.8)rotate(90)"/>
</g>

<g class="edge">
 <!-- from if newAbscissa &lt;=\nlowerLimit to newAbscissa = lowerLimit -->
 <!-- vertical -->
 <line x1="651.86" y1="2538" x2="651.86" y2="2586.6" stroke="#000000" stroke-width="1" />
 <use stroke="#000000" xlink:href="#ah" transform="translate(651.86 2587.6)rotate(90)"/>
 <text x="659" y="2562" fill="#000000" stroke="none" text-anchor="start">then</text>
</g>

<g class="edge">
 <!-- from {fa,a,fb,b,fc,c} =\n{fb,b,fc,c,newOrdinate,newAbscissa} to if fc &gt; fb -->
 <!-- north/east corner -->
 <g stroke="#000000" stroke-width="1">
  <line x1="396.08" y1="3144" x2="396.08" y2="3171.5" />
  <line x1="395.58" y1="3171" x2="441.9" y2="3171" />
 </g>

 <!-- vertical -->
 <line x1="396.08" y1="3058" x2="396.08" y2="3144" stroke="#000000" stroke-width="1" />

 <!-- south/west corner -->
 <g stroke="#000000" stroke-width="1">
  <line x1="396.08" y1="3041.5" x2="396.08" y2="3058" />
  <line x1="338.8" y1="3042" x2="396.58" y2="3042" />
 </g>

 <!-- north/east corner -->
 <g stroke="#000000" stroke-width="1">
  <line x1="322.8" y1="3026" x2="322.8" y2="3042.5" />
  <line x1="322.3" y1="3042" x2="338.8" y2="3042" />
 </g>

 <!-- vertical -->
 <line x1="322.8" y1="2202" x2="322.8" y2="3026" stroke="#000000" stroke-width="1" />

 <!-- crossing -->
 <g stroke="#000000" stroke-width="1">
  <line x1="306.8" y1="2087" x2="338.8" y2="2087" />
  <line x1="322.8" y1="1972" x2="322.8" y2="2202" stroke="#000000" stroke-dasharray="1 0"/>
 </g>

 <!-- vertical -->
 <line x1="322.8" y1="1147" x2="322.8" y2="1972" stroke="#000000" stroke-width="1" />

 <!-- south/east corner -->
 <g stroke="#000000" stroke-width="1">
  <line x1="322.8" y1="1085" x2="322.8" y2="1147" />
  <line x1="322.3" y1="1085.5" x2="338.8" y2="1085.5" />
 </g>

 <!-- horizontal -->
 <line x1="338.8" y1="1085.5" x2="440.9" y2="1085.5" stroke="#000000" stroke-width="1" />
 <use stroke="#000000" xlink:href="#ah" x="441.9" y="1085.5"/>
</g>

<g class="node-start">
 <!-- Given: f, a, c,\nlimitLeft,\nlimitRight,\nreverse,\nshrinkFactor,\ngrowthFactor,\nmaxWideningIterations,\nmaxNarrowingIterations, rounded -->
 <rect fill="#ffbfc9" height="161" rx="15" ry="15" stroke="#000000" width="396" x="453.86"
   y="8.5" />
 <text x="651" y="32" fill="#000000" text-anchor="middle">
  <tspan x="651" y="30">Given: f, a, c,</tspan>
  <tspan x="651" y="48">limitLeft,</tspan>
  <tspan x="651" y="66">limitRight,</tspan>
  <tspan x="651" y="84">reverse,</tspan>
  <tspan x="651" y="102">shrinkFactor,</tspan>
  <tspan x="651" y="120">growthFactor,</tspan>
  <tspan x="651" y="138">maxWideningIterations,</tspan>
  <tspan x="651" y="156">maxNarrowingIterations</tspan>
 </text>
</g>

<g class="node-action">
 <!-- {fa,fc} =\n{f(a),f(c)}, rounded -->
 <rect fill="#8bef91" height="53" rx="15" ry="15" stroke="#000000" width="396" x="453.86"
   y="202.5" />
 <text x="651" y="226" fill="#000000" text-anchor="middle">
  <tspan x="651" y="224">{fa,fc} =</tspan>
  <tspan x="651" y="242">{f(a),f(c)}</tspan>
 </text>
</g>

<g class="node-question">
 <!-- if fc &gt; fa, diamond -->
 <polygon points="454.03,349, 651.86,288.5, 849.69,349, 651.86,409.5" fill="#ffff8a" stroke="#000000" />
 <text x="651" y="355" fill="#000000" text-anchor="middle">if fc &gt; fa</text>
</g>

<g class="node-action">
 <!-- {fa,a,fc,c} =\n{fc,c,fa,a}, rounded -->
 <rect fill="#8bef91" height="53" rx="15" ry="15" stroke="#000000" width="396" x="453.86"
   y="474.5" />
 <text x="651" y="498" fill="#000000" text-anchor="middle">
  <tspan x="651" y="496">{fa,a,fc,c} =</tspan>
  <tspan x="651" y="514">{fc,c,fa,a}</tspan>
 </text>
</g>

<g class="node-question">
 <!-- if reverse, diamond -->
 <polygon points="454.03,615, 651.86,560.5, 849.69,615, 651.86,669.5" fill="#ffff8a" stroke="#000000" />
 <text x="651" y="621" fill="#000000" text-anchor="middle">if reverse</text>
</g>

<g class="node-action">
 <!-- {fc,c,fa,a} =\n{fa,a,fc,c}, rounded -->
 <rect fill="#8bef91" height="53" rx="15" ry="15" stroke="#000000" width="396" x="453.86"
   y="734.5" />
 <text x="651" y="758" fill="#000000" text-anchor="middle">
  <tspan x="651" y="756">{fc,c,fa,a} =</tspan>
  <tspan x="651" y="774">{fa,a,fc,c}</tspan>
 </text>
</g>

<g class="node-action">
 <!-- b = c + shrinkFactor*(a-c), rounded -->
 <rect fill="#8bef91" height="35" rx="15" ry="15" stroke="#000000" width="396" x="453.86"
   y="820.5" />
 <text x="651" y="844" fill="#000000" text-anchor="middle">b = c + shrinkFactor*(a-c)</text>
</g>

<g class="node-action">
 <!-- fb = f(b), rounded -->
 <rect fill="#8bef91" height="35" rx="15" ry="15" stroke="#000000" width="396" x="453.86"
   y="888.5" />
 <text x="651" y="912" fill="#000000" text-anchor="middle">fb = f(b)</text>
</g>

<g class="node-action">
 <!-- iteration = 1, rounded -->
 <rect fill="#8bef91" height="35" rx="15" ry="15" stroke="#000000" width="396" x="453.86"
   y="956.5" />
 <text x="651" y="980" fill="#000000" text-anchor="middle">iteration = 1</text>
</g>

<g class="node-question">
 <!-- if fc &gt; fb, diamond -->
 <polygon points="454.03,1085.5, 651.86,1024.5, 849.69,1085.5, 651.86,1146.5" fill="#ffff8a" stroke="#000000" />
 <text x="651" y="1091" fill="#000000" text-anchor="middle">if fc &gt; fb</text>
</g>

<g class="node-action">
 <!-- frameBound = then, rounded -->
 <rect fill="#8bef91" height="35" rx="15" ry="15" stroke="#000000" width="396" x="453.86"
   y="1211.5" />
 <text x="651" y="1235" fill="#000000" text-anchor="middle">frameBound = then</text>
</g>

<g class="node-question">
 <!-- if Or(c == limitLeft,\nc == limitRight), diamond -->
 <polygon points="454.03,1388, 651.86,1279.5, 849.69,1388, 651.86,1496.5" fill="#ffff8a" stroke="#000000" />
 <text x="651" y="1385" fill="#000000" text-anchor="middle">
  <tspan x="651" y="1383">if Or(c == limitLeft,</tspan>
  <tspan x="651" y="1401">c == limitRight)</tspan>
 </text>
</g>

<g class="node-action">
 <!-- domainBound = then, rounded -->
 <rect fill="#8bef91" height="35" rx="15" ry="15" stroke="#000000" width="396" x="453.86"
   y="1561.5" />
 <text x="651" y="1585" fill="#000000" text-anchor="middle">domainBound = then</text>
</g>

<g class="node-question">
 <!-- if iteration ==\nmaxWideningIterations, diamond -->
 <polygon points="454.03,1734.5, 651.86,1629.5, 849.69,1734.5, 651.86,1839.5" fill="#ffff8a" stroke="#000000" />
 <text x="651" y="1731" fill="#000000" text-anchor="middle">
  <tspan x="651" y="1729">if iteration ==</tspan>
  <tspan x="651" y="1747">maxWideningIterations</tspan>
 </text>
</g>

<g class="node-action">
 <!-- iterationBound = then, rounded -->
 <rect fill="#8bef91" height="35" rx="15" ry="15" stroke="#000000" width="396" x="453.86"
   y="1904.5" />
 <text x="651" y="1928" fill="#000000" text-anchor="middle">iterationBound = then</text>
</g>

<g class="node-question">
 <!-- if Or(frameBound,\ndomainBound,\niterationBound), diamond -->
 <polygon points="454.03,2087, 651.86,1972.5, 849.69,2087, 651.86,2201.5" fill="#ffff8a" stroke="#000000" />
 <text x="651" y="2075" fill="#000000" text-anchor="middle">
  <tspan x="651" y="2073">if Or(frameBound,</tspan>
  <tspan x="651" y="2091">domainBound,</tspan>
  <tspan x="651" y="2109">iterationBound)</tspan>
 </text>
</g>

<g class="node-question">
 <!-- if And(Not(frameBound,\nNot(reverse)), diamond -->
 <polygon points="8.67,2087, 123,1972.5, 237.33,2087, 123,2201.5" fill="#ffff8a" stroke="#000000" />
 <text x="123" y="2084" fill="#000000" text-anchor="middle">
  <tspan x="123" y="2082">if And(Not(frameBound,</tspan>
  <tspan x="123" y="2100">Not(reverse))</tspan>
 </text>
</g>

<g class="node-action">
 <!-- newAbscissa = c + growthFactor*(c-b), rounded -->
 <rect fill="#8bef91" height="35" rx="15" ry="15" stroke="#000000" width="396" x="453.86"
   y="2266.5" />
 <text x="651" y="2290" fill="#000000" text-anchor="middle">newAbscissa = c + growthFactor*(c-b)</text>
</g>

<g class="node-question">
 <!-- if newAbscissa &lt;=\nlowerLimit, diamond -->
 <polygon points="454.03,2432, 651.86,2334.5, 849.69,2432, 651.86,2529.5" fill="#ffff8a" stroke="#000000" />
 <text x="651" y="2429" fill="#000000" text-anchor="middle">
  <tspan x="651" y="2427">if newAbscissa &lt;=</tspan>
  <tspan x="651" y="2445">lowerLimit</tspan>
 </text>
</g>

<g class="node-action">
 <!-- newAbscissa = lowerLimit, rounded -->
 <rect fill="#8bef91" height="35" rx="15" ry="15" stroke="#000000" width="396" x="453.86"
   y="2594.5" />
 <text x="651" y="2618" fill="#000000" text-anchor="middle">newAbscissa = lowerLimit</text>
</g>

<g class="node-question">
 <!-- if newAbscissa &gt;=\nupperLimit, diamond -->
 <polygon points="454.03,2760, 651.86,2662.5, 849.69,2760, 651.86,2857.5" fill="#ffff8a" stroke="#000000" />
 <text x="651" y="2757" fill="#000000" text-anchor="middle">
  <tspan x="651" y="2755">if newAbscissa &gt;=</tspan>
  <tspan x="651" y="2773">upperLimit</tspan>
 </text>
</g>

<g class="node-action">
 <!-- newAbscissa = upperLimit, rounded -->
 <rect fill="#8bef91" height="35" rx="15" ry="15" stroke="#000000" width="396" x="453.86"
   y="2922.5" />
 <text x="651" y="2946" fill="#000000" text-anchor="middle">newAbscissa = upperLimit</text>
</g>

<g class="node-action">
 <!-- iteration++, rounded -->
 <rect fill="#8bef91" height="35" rx="15" ry="15" stroke="#000000" width="396" x="453.86"
   y="2990.5" />
 <text x="651" y="3014" fill="#000000" text-anchor="middle">iteration++</text>
</g>

<g class="node-action">
 <!-- newOrdinate =\nf(newAbscissa), rounded -->
 <rect fill="#8bef91" height="53" rx="15" ry="15" stroke="#000000" width="396" x="453.86"
   y="3058.5" />
 <text x="651" y="3082" fill="#000000" text-anchor="middle">
  <tspan x="651" y="3080">newOrdinate =</tspan>
  <tspan x="651" y="3098">f(newAbscissa)</tspan>
 </text>
</g>

<g class="node-action">
 <!-- {fa,a,fb,b,fc,c} =\n{fb,b,fc,c,newOrdinate,newAbscissa}, rounded -->
 <rect fill="#8bef91" height="53" rx="15" ry="15" stroke="#000000" width="396" x="453.86"
   y="3144.5" />
 <text x="651" y="3168" fill="#000000" text-anchor="middle">
  <tspan x="651" y="3166">{fa,a,fb,b,fc,c} =</tspan>
  <tspan x="651" y="3184">{fb,b,fc,c,newOrdinate,newAbscissa}</tspan>
 </text>
</g>

</svg>
