<?xml version="1.0" encoding="UTF-8" standalone="yes"?>
<!DOCTYPE svg PUBLIC "-//W3C//DTD SVG 1.1//EN" "http://www.w3.org/Graphics/SVG/1.1/DTD/svg11.dtd">

<svg width="578.72" height="1963" version="1.1" xmlns="http://www.w3.org/2000/svg" xmlns:xlink="http://www.w3.org/1999/xlink">
<!-- Generated at Thu Oct 26 18:39:45 2006 by:
  Graph::Easy v0.48
  Graph::Easy::As_svg v0.20
-->

<title>Untitled graph</title>
<defs>
 <!-- open arrow head -->
 <g id="ah" stroke-linecap="round" stroke-width="1">
  <line x1="-8" y1="-4" x2="1" y2="0" />
  <line x1="1" y1="0" x2="-8" y2="4" />
 </g>

 <!-- class definitions -->
 <style type="text/css"><![CDATA[
 .edge {
  fill: inherit;
  font-family: monospaced, courier-new, courier, sans-serif;
  font-size: 13px;
  stroke: black;
  text-anchor: middle;
 }
 .node,.node_action,.node_anon,.node_question,.node_start {
  text-anchor: middle;
  fill: white;
  font-size: 16px;
 }
 .node_action {
  fill: #8bef91;
 }
 .node_question {
  fill: #ffff8a;
 }
 .node_start {
  fill: #ffbfc9;
 }
 ]]></style>
</defs>

<!-- graph background with border (mainly for printing) -->
<rect x="0" y="0" width="586.72" height="1971" fill="white" stroke="none" stroke-dasharray="" stroke-width="1" />

<g class="edge">
 <!-- from cdomain to if iteration ==\nmaxWideningIterations -->
 <!-- south/east corner -->
 <g stroke="#000000" stroke-width="1">
  <line x1="75.68" y1="1395.5" x2="75.68" y2="1513" />
  <line x1="75.18" y1="1396" x2="129.82" y2="1396" />
 </g>

 <!-- vertical -->
 <line x1="75.68" y1="1513" x2="75.68" y2="1645" stroke="#000000" stroke-width="1" />
 <text x="83" y="1579" fill="#000000" stroke="none" text-anchor="start">False</text>

 <!-- north/east corner -->
 <g stroke="#000000" stroke-width="1">
  <line x1="75.68" y1="1645" x2="75.68" y2="1751" />
  <line x1="75.18" y1="1750.5" x2="128.82" y2="1750.5" />
 </g>
 <use stroke="#000000" xlink:href="#ah" x="129.82" y="1750.5"/>
</g>

<g class="edge">
 <!-- from domainBound = True to if iteration ==\nmaxWideningIterations -->
 <!-- vertical -->
 <line x1="289.86" y1="1621" x2="289.86" y2="1640.8" stroke="#000000" stroke-width="1" />
 <use stroke="#000000" xlink:href="#ah" transform="translate(289.86 1641.8)rotate(90)"/>
</g>

<g class="edge">
 <!-- from Given: f, a, c,\nlimitLeft,\nlimitRight,\nreverse,\nshrinkFactor,\ngrowthFactor,\nmaxWideningIterations,\nmaxNarrowingIterations to {fa,fc} =\n{f(a),f(c)} -->
 <!-- vertical -->
 <line x1="289.86" y1="178" x2="289.86" y2="197.8" stroke="#000000" stroke-width="1" />
 <use stroke="#000000" xlink:href="#ah" transform="translate(289.86 198.8)rotate(90)"/>
</g>

<g class="edge">
 <!-- from frameBound = True to cdomain -->
 <!-- vertical -->
 <line x1="289.86" y1="1255" x2="289.86" y2="1274.8" stroke="#000000" stroke-width="1" />
 <use stroke="#000000" xlink:href="#ah" transform="translate(289.86 1275.8)rotate(90)"/>
</g>

<g class="edge">
 <!-- from iteration = 1 to if fc &gt; fb -->
 <!-- vertical -->
 <line x1="289.86" y1="1000" x2="289.86" y2="1019.8" stroke="#000000" stroke-width="1" />
 <use stroke="#000000" xlink:href="#ah" transform="translate(289.86 1020.8)rotate(90)"/>
</g>

<g class="edge">
 <!-- from if reverse to b = c + shrinkFactor*(a-c) -->
 <!-- south/east corner -->
 <g stroke="#000000" stroke-width="1">
  <line x1="75.68" y1="614.5" x2="75.68" y2="670" />
  <line x1="75.18" y1="615" x2="129.82" y2="615" />
 </g>

 <!-- vertical -->
 <line x1="75.68" y1="670" x2="75.68" y2="820" stroke="#000000" stroke-width="1" />
 <text x="83" y="745" fill="#000000" stroke="none" text-anchor="start">False</text>

 <!-- north/east corner -->
 <g stroke="#000000" stroke-width="1">
  <line x1="75.68" y1="820" x2="75.68" y2="838.5" />
  <line x1="75.18" y1="838" x2="128.82" y2="838" />
 </g>
 <use stroke="#000000" xlink:href="#ah" x="129.82" y="838"/>
</g>

<g class="edge">
 <!-- from fb = f(b) to iteration = 1 -->
 <!-- vertical -->
 <line x1="289.86" y1="932" x2="289.86" y2="951.8" stroke="#000000" stroke-width="1" />
 <use stroke="#000000" xlink:href="#ah" transform="translate(289.86 952.8)rotate(90)"/>
</g>

<g class="edge">
 <!-- from if fc &gt; fa to if reverse -->
 <!-- south/west corner -->
 <g stroke="#000000" stroke-width="1">
  <line x1="504.04" y1="348.5" x2="504.04" y2="410" />
  <line x1="449.9" y1="349" x2="504.54" y2="349" />
 </g>

 <!-- vertical -->
 <line x1="504.04" y1="410" x2="504.04" y2="560" stroke="#000000" stroke-width="1" />
 <text x="512" y="485" fill="#000000" stroke="none" text-anchor="start">False</text>

 <!-- north/west corner -->
 <g stroke="#000000" stroke-width="1">
  <line x1="504.04" y1="560" x2="504.04" y2="615.5" />
  <line x1="450.9" y1="615" x2="504.54" y2="615" />
 </g>
 <use stroke="#000000" xlink:href="#ah" transform="translate(449.9 615)rotate(180)"/>
</g>

<g class="edge">
 <!-- from if fc &gt; fa to {fa,a,fc,c} =\n{fc,c,fa,a} -->
 <!-- vertical -->
 <line x1="289.86" y1="418" x2="289.86" y2="466.6" stroke="#000000" stroke-width="1" />
 <use stroke="#000000" xlink:href="#ah" transform="translate(289.86 467.6)rotate(90)"/>
 <text x="297" y="442" fill="#000000" stroke="none" text-anchor="start">True</text>
</g>

<g class="edge">
 <!-- from if iteration ==\nmaxWideningIterations to iterationBound = True -->
 <!-- vertical -->
 <line x1="289.86" y1="1864" x2="289.86" y2="1912.6" stroke="#000000" stroke-width="1" />
 <use stroke="#000000" xlink:href="#ah" transform="translate(289.86 1913.6)rotate(90)"/>
 <text x="297" y="1888" fill="#000000" stroke="none" text-anchor="start">True</text>
</g>

<g class="edge">
 <!-- from {fc,c,fa,a} =\n{fa,a,fc,c} to b = c + shrinkFactor*(a-c) -->
 <!-- vertical -->
 <line x1="289.86" y1="796" x2="289.86" y2="815.8" stroke="#000000" stroke-width="1" />
 <use stroke="#000000" xlink:href="#ah" transform="translate(289.86 816.8)rotate(90)"/>
</g>

<g class="edge">
 <!-- from b = c + shrinkFactor*(a-c) to fb = f(b) -->
 <!-- vertical -->
 <line x1="289.86" y1="864" x2="289.86" y2="883.8" stroke="#000000" stroke-width="1" />
 <use stroke="#000000" xlink:href="#ah" transform="translate(289.86 884.8)rotate(90)"/>
</g>

<g class="edge">
 <!-- from if fc &gt; fb to frameBound = True -->
 <!-- vertical -->
 <line x1="289.86" y1="1155" x2="289.86" y2="1203.6" stroke="#000000" stroke-width="1" />
 <use stroke="#000000" xlink:href="#ah" transform="translate(289.86 1204.6)rotate(90)"/>
 <text x="297" y="1179" fill="#000000" stroke="none" text-anchor="start">True</text>
</g>

<g class="edge">
 <!-- from {fa,a,fc,c} =\n{fc,c,fa,a} to if reverse -->
 <!-- vertical -->
 <line x1="289.86" y1="536" x2="289.86" y2="555.8" stroke="#000000" stroke-width="1" />
 <use stroke="#000000" xlink:href="#ah" transform="translate(289.86 556.8)rotate(90)"/>
</g>

<g class="edge">
 <!-- from {fa,fc} =\n{f(a),f(c)} to if fc &gt; fa -->
 <!-- vertical -->
 <line x1="289.86" y1="264" x2="289.86" y2="283.8" stroke="#000000" stroke-width="1" />
 <use stroke="#000000" xlink:href="#ah" transform="translate(289.86 284.8)rotate(90)"/>
</g>

<g class="edge">
 <!-- from cdomain to domainBound = True -->
 <!-- vertical -->
 <line x1="289.86" y1="1521" x2="289.86" y2="1569.6" stroke="#000000" stroke-width="1" />
 <use stroke="#000000" xlink:href="#ah" transform="translate(289.86 1570.6)rotate(90)"/>
 <text x="297" y="1545" fill="#000000" stroke="none" text-anchor="start">True</text>
</g>

<g class="edge">
 <!-- from if reverse to {fc,c,fa,a} =\n{fa,a,fc,c} -->
 <!-- vertical -->
 <line x1="289.86" y1="678" x2="289.86" y2="726.6" stroke="#000000" stroke-width="1" />
 <use stroke="#000000" xlink:href="#ah" transform="translate(289.86 727.6)rotate(90)"/>
 <text x="297" y="702" fill="#000000" stroke="none" text-anchor="start">True</text>
</g>

<g class="edge">
 <!-- from if fc &gt; fb to cdomain -->
 <!-- south/west corner -->
 <g stroke="#000000" stroke-width="1">
  <line x1="504.04" y1="1085" x2="504.04" y2="1147" />
  <line x1="449.9" y1="1085.5" x2="504.54" y2="1085.5" />
 </g>

 <!-- vertical -->
 <line x1="504.04" y1="1147" x2="504.04" y2="1279" stroke="#000000" stroke-width="1" />
 <text x="512" y="1213" fill="#000000" stroke="none" text-anchor="start">False</text>

 <!-- north/west corner -->
 <g stroke="#000000" stroke-width="1">
  <line x1="504.04" y1="1279" x2="504.04" y2="1396.5" />
  <line x1="450.9" y1="1396" x2="504.54" y2="1396" />
 </g>
 <use stroke="#000000" xlink:href="#ah" transform="translate(449.9 1396)rotate(180)"/>
</g>

<g class="node-start">
 <!-- Given: f, a, c,\nlimitLeft,\nlimitRight,\nreverse,\nshrinkFactor,\ngrowthFactor,\nmaxWideningIterations,\nmaxNarrowingIterations, rounded -->
 <rect fill="#ffbfc9" height="161" rx="15" ry="15" stroke="#000000" width="292" x="143.86"
   y="8.5" />
 <text x="289" y="32" fill="#000000" text-anchor="middle">
  <tspan x="289" y="30">Given: f, a, c,</tspan>
  <tspan x="289" y="48">limitLeft,</tspan>
  <tspan x="289" y="66">limitRight,</tspan>
  <tspan x="289" y="84">reverse,</tspan>
  <tspan x="289" y="102">shrinkFactor,</tspan>
  <tspan x="289" y="120">growthFactor,</tspan>
  <tspan x="289" y="138">maxWideningIterations,</tspan>
  <tspan x="289" y="156">maxNarrowingIterations</tspan>
 </text>
</g>

<g class="node-action">
 <!-- {fa,fc} =\n{f(a),f(c)}, rounded -->
 <rect fill="#8bef91" height="53" rx="15" ry="15" stroke="#000000" width="292" x="143.86"
   y="202.5" />
 <text x="289" y="226" fill="#000000" text-anchor="middle">
  <tspan x="289" y="224">{fa,fc} =</tspan>
  <tspan x="289" y="242">{f(a),f(c)}</tspan>
 </text>
</g>

<g class="node-question">
 <!-- if fc &gt; fa, diamond -->
 <polygon points="144.03,349, 289.86,288.5, 435.69,349, 289.86,409.5" fill="#ffff8a" stroke="#000000" />
 <text x="289" y="355" fill="#000000" text-anchor="middle">if fc &gt; fa</text>
</g>

<g class="node-action">
 <!-- {fa,a,fc,c} =\n{fc,c,fa,a}, rounded -->
 <rect fill="#8bef91" height="53" rx="15" ry="15" stroke="#000000" width="292" x="143.86"
   y="474.5" />
 <text x="289" y="498" fill="#000000" text-anchor="middle">
  <tspan x="289" y="496">{fa,a,fc,c} =</tspan>
  <tspan x="289" y="514">{fc,c,fa,a}</tspan>
 </text>
</g>

<g class="node-question">
 <!-- if reverse, diamond -->
 <polygon points="144.03,615, 289.86,560.5, 435.69,615, 289.86,669.5" fill="#ffff8a" stroke="#000000" />
 <text x="289" y="621" fill="#000000" text-anchor="middle">if reverse</text>
</g>

<g class="node-action">
 <!-- {fc,c,fa,a} =\n{fa,a,fc,c}, rounded -->
 <rect fill="#8bef91" height="53" rx="15" ry="15" stroke="#000000" width="292" x="143.86"
   y="734.5" />
 <text x="289" y="758" fill="#000000" text-anchor="middle">
  <tspan x="289" y="756">{fc,c,fa,a} =</tspan>
  <tspan x="289" y="774">{fa,a,fc,c}</tspan>
 </text>
</g>

<g class="node-action">
 <!-- b = c + shrinkFactor*(a-c), rounded -->
 <rect fill="#8bef91" height="35" rx="15" ry="15" stroke="#000000" width="292" x="143.86"
   y="820.5" />
 <text x="289" y="844" fill="#000000" text-anchor="middle">b = c + shrinkFactor*(a-c)</text>
</g>

<g class="node-action">
 <!-- fb = f(b), rounded -->
 <rect fill="#8bef91" height="35" rx="15" ry="15" stroke="#000000" width="292" x="143.86"
   y="888.5" />
 <text x="289" y="912" fill="#000000" text-anchor="middle">fb = f(b)</text>
</g>

<g class="node-action">
 <!-- iteration = 1, rounded -->
 <rect fill="#8bef91" height="35" rx="15" ry="15" stroke="#000000" width="292" x="143.86"
   y="956.5" />
 <text x="289" y="980" fill="#000000" text-anchor="middle">iteration = 1</text>
</g>

<g class="node-question">
 <!-- if fc &gt; fb, diamond -->
 <polygon points="144.03,1085.5, 289.86,1024.5, 435.69,1085.5, 289.86,1146.5" fill="#ffff8a" stroke="#000000" />
 <text x="289" y="1091" fill="#000000" text-anchor="middle">if fc &gt; fb</text>
</g>

<g class="node-action">
 <!-- frameBound = True, rounded -->
 <rect fill="#8bef91" height="35" rx="15" ry="15" stroke="#000000" width="292" x="143.86"
   y="1211.5" />
 <text x="289" y="1235" fill="#000000" text-anchor="middle">frameBound = True</text>
</g>

<g class="node-question">
 <!-- if Or( c == limitLeft,\nc == limitRight ), diamond -->
 <polygon points="144.03,1396, 289.86,1279.5, 435.69,1396, 289.86,1512.5" fill="#ffff8a" stroke="#000000" />
 <text x="289" y="1393" fill="#000000" text-anchor="middle">
  <tspan x="289" y="1391">if Or( c == limitLeft,</tspan>
  <tspan x="289" y="1409">c == limitRight )</tspan>
 </text>
</g>

<g class="node-action">
 <!-- domainBound = True, rounded -->
 <rect fill="#8bef91" height="35" rx="15" ry="15" stroke="#000000" width="292" x="143.86"
   y="1577.5" />
 <text x="289" y="1601" fill="#000000" text-anchor="middle">domainBound = True</text>
</g>

<g class="node-question">
 <!-- if iteration ==\nmaxWideningIterations, diamond -->
 <polygon points="144.03,1750.5, 289.86,1645.5, 435.69,1750.5, 289.86,1855.5" fill="#ffff8a" stroke="#000000" />
 <text x="289" y="1747" fill="#000000" text-anchor="middle">
  <tspan x="289" y="1745">if iteration ==</tspan>
  <tspan x="289" y="1763">maxWideningIterations</tspan>
 </text>
</g>

<g class="node-action">
 <!-- iterationBound = True, rounded -->
 <rect fill="#8bef91" height="35" rx="15" ry="15" stroke="#000000" width="292" x="143.86"
   y="1920.5" />
 <text x="289" y="1944" fill="#000000" text-anchor="middle">iterationBound = True</text>
</g>

</svg>
