<?xml version="1.0" encoding="UTF-8" standalone="yes"?>
<!DOCTYPE svg PUBLIC "-//W3C//DTD SVG 1.1//EN" "http://www.w3.org/Graphics/SVG/1.1/DTD/svg11.dtd">

<svg width="897.92" height="2299" version="1.1" xmlns="http://www.w3.org/2000/svg" xmlns:xlink="http://www.w3.org/1999/xlink">
<!-- Generated at Fri Oct 27 10:44:19 2006 by:
  Graph::Easy v0.48
  Graph::Easy::As_svg v0.20
-->

<title>Untitled graph</title>
<defs>
 <!-- open arrow head -->
 <g id="ah" stroke-linecap="round" stroke-width="1">
  <line x1="-8" y1="-4" x2="1" y2="0" />
  <line x1="1" y1="0" x2="-8" y2="4" />
 </g>

 <!-- class definitions -->
 <style type="text/css"><![CDATA[
 .edge {
  fill: inherit;
  font-family: monospaced, courier-new, courier, sans-serif;
  font-size: 13px;
  stroke: black;
  text-anchor: middle;
 }
 .node,.node_action,.node_anon,.node_question,.node_start {
  text-anchor: middle;
  fill: white;
  font-size: 16px;
 }
 .node_action {
  fill: #8bef91;
 }
 .node_question {
  fill: #ffff8a;
 }
 .node_start {
  fill: #ffbfc9;
 }
 ]]></style>
</defs>

<!-- graph background with border (mainly for printing) -->
<rect x="0" y="0" width="905.92" height="2307" fill="white" stroke="none" stroke-dasharray="" stroke-width="1" />

<g class="edge">
 <!-- from newOrdinate =\nf(newAbscissa) to {fa,a,fb,b,fc,c} =\n{fb,b,fc,c,newOrdinate,newAbscissa} -->
 <!-- vertical -->
 <line x1="577.86" y1="2214" x2="577.86" y2="2233.8" stroke="#000000" stroke-width="1" />
 <use stroke="#000000" xlink:href="#ah" transform="translate(577.86 2234.8)rotate(90)"/>
</g>

<g class="edge">
 <!-- from iteration++ to newOrdinate =\nf(newAbscissa) -->
 <!-- vertical -->
 <line x1="577.86" y1="2128" x2="577.86" y2="2147.8" stroke="#000000" stroke-width="1" />
 <use stroke="#000000" xlink:href="#ah" transform="translate(577.86 2148.8)rotate(90)"/>
</g>

<g class="edge">
 <!-- from frameMinimumStopTest to newAbscissa = c + growthFactor*(c-b) -->
 <!-- vertical -->
 <line x1="577.86" y1="1304" x2="577.86" y2="1352.6" stroke="#000000" stroke-width="1" />
 <use stroke="#000000" xlink:href="#ah" transform="translate(577.86 1353.6)rotate(90)"/>
 <text x="585" y="1328" fill="#000000" stroke="none" text-anchor="start">else</text>
</g>

<g class="edge">
 <!-- from if fc &gt; fb to cdomain -->
 <!-- south/west corner -->
 <g stroke="#000000" stroke-width="1">
  <line x1="833.64" y1="227" x2="833.64" y2="289" />
  <line x1="787.82" y1="227.5" x2="834.14" y2="227.5" />
 </g>

 <!-- vertical -->
 <line x1="833.64" y1="289" x2="833.64" y2="421" stroke="#000000" stroke-width="1" />
 <text x="841" y="355" fill="#000000" stroke="none" text-anchor="start">else</text>

 <!-- north/west corner -->
 <g stroke="#000000" stroke-width="1">
  <line x1="833.64" y1="421" x2="833.64" y2="530.5" />
  <line x1="788.82" y1="530" x2="834.14" y2="530" />
 </g>
 <use stroke="#000000" xlink:href="#ah" transform="translate(787.82 530)rotate(180)"/>
</g>

<g class="edge">
 <!-- from Given: f, fa, a, fb, b, fc, c,\nlimitLeft,\nlimitRight,\ngrowthFactor,\niteration,\nmaxWideningIterations to if fc &gt; fb -->
 <!-- vertical -->
 <line x1="577.86" y1="142" x2="577.86" y2="161.8" stroke="#000000" stroke-width="1" />
 <use stroke="#000000" xlink:href="#ah" transform="translate(577.86 162.8)rotate(90)"/>
</g>

<g class="edge">
 <!-- from cdomain to if iteration ==\nmaxWideningIterations -->
 <!-- south/east corner -->
 <g stroke="#000000" stroke-width="1">
  <line x1="322.08" y1="529.5" x2="322.08" y2="639" />
  <line x1="321.58" y1="530" x2="367.9" y2="530" />
 </g>

 <!-- vertical -->
 <line x1="322.08" y1="639" x2="322.08" y2="771" stroke="#000000" stroke-width="1" />
 <text x="330" y="705" fill="#000000" stroke="none" text-anchor="start">else</text>

 <!-- north/east corner -->
 <g stroke="#000000" stroke-width="1">
  <line x1="322.08" y1="771" x2="322.08" y2="877" />
  <line x1="321.58" y1="876.5" x2="366.9" y2="876.5" />
 </g>
 <use stroke="#000000" xlink:href="#ah" x="367.9" y="876.5"/>
</g>

<g class="edge">
 <!-- from newAbscissa = c + growthFactor*(c-b) to if newAbscissa &lt;=\nlowerLimit -->
 <!-- vertical -->
 <line x1="577.86" y1="1404" x2="577.86" y2="1423.8" stroke="#000000" stroke-width="1" />
 <use stroke="#000000" xlink:href="#ah" transform="translate(577.86 1424.8)rotate(90)"/>
</g>

<g class="edge">
 <!-- from frameMinimumStopTest to exit subroutine -->
 <!-- horizontal -->
 <line x1="264.8" y1="1205" x2="367.9" y2="1205" stroke="#000000" stroke-width="1" />

 <!-- horizontal -->
 <line x1="171.88" y1="1205" x2="232.8" y2="1205" stroke="#000000" stroke-width="1" />
 <use stroke="#000000" xlink:href="#ah" transform="translate(170.88 1205)rotate(180)"/>
 <text x="201" y="1197" fill="#000000" stroke="none">then</text>
</g>

<g class="edge">
 <!-- from if newAbscissa &gt;=\nupperLimit to newAbscissa = upperLimit -->
 <!-- vertical -->
 <line x1="577.86" y1="1960" x2="577.86" y2="2008.6" stroke="#000000" stroke-width="1" />
 <use stroke="#000000" xlink:href="#ah" transform="translate(577.86 2009.6)rotate(90)"/>
 <text x="585" y="1984" fill="#000000" stroke="none" text-anchor="start">then</text>
</g>

<g class="edge">
 <!-- from frameBound = True to cdomain -->
 <!-- vertical -->
 <line x1="577.86" y1="397" x2="577.86" y2="416.8" stroke="#000000" stroke-width="1" />
 <use stroke="#000000" xlink:href="#ah" transform="translate(577.86 417.8)rotate(90)"/>
</g>

<g class="edge">
 <!-- from if newAbscissa &lt;=\nlowerLimit to newAbscissa = lowerLimit -->
 <!-- vertical -->
 <line x1="577.86" y1="1632" x2="577.86" y2="1680.6" stroke="#000000" stroke-width="1" />
 <use stroke="#000000" xlink:href="#ah" transform="translate(577.86 1681.6)rotate(90)"/>
 <text x="585" y="1656" fill="#000000" stroke="none" text-anchor="start">then</text>
</g>

<g class="edge">
 <!-- from newAbscissa = lowerLimit to if newAbscissa &gt;=\nupperLimit -->
 <!-- vertical -->
 <line x1="577.86" y1="1732" x2="577.86" y2="1751.8" stroke="#000000" stroke-width="1" />
 <use stroke="#000000" xlink:href="#ah" transform="translate(577.86 1752.8)rotate(90)"/>
</g>

<g class="edge">
 <!-- from {fa,a,fb,b,fc,c} =\n{fb,b,fc,c,newOrdinate,newAbscissa} to if fc &gt; fb -->
 <!-- north/east corner -->
 <g stroke="#000000" stroke-width="1">
  <line x1="322.08" y1="2238" x2="322.08" y2="2265.5" />
  <line x1="321.58" y1="2265" x2="367.9" y2="2265" />
 </g>

 <!-- vertical -->
 <line x1="322.08" y1="2152" x2="322.08" y2="2238" stroke="#000000" stroke-width="1" />

 <!-- south/west corner -->
 <g stroke="#000000" stroke-width="1">
  <line x1="322.08" y1="2135.5" x2="322.08" y2="2152" />
  <line x1="264.8" y1="2136" x2="322.58" y2="2136" />
 </g>

 <!-- north/east corner -->
 <g stroke="#000000" stroke-width="1">
  <line x1="248.8" y1="2120" x2="248.8" y2="2136.5" />
  <line x1="248.3" y1="2136" x2="264.8" y2="2136" />
 </g>

 <!-- vertical -->
 <line x1="248.8" y1="1296" x2="248.8" y2="2120" stroke="#000000" stroke-width="1" />

 <!-- crossing -->
 <g stroke="#000000" stroke-width="1">
  <line x1="232.8" y1="1205" x2="264.8" y2="1205" />
  <line x1="248.8" y1="1114" x2="248.8" y2="1296" stroke="#000000" stroke-dasharray="1 0"/>
 </g>

 <!-- vertical -->
 <line x1="248.8" y1="289" x2="248.8" y2="1114" stroke="#000000" stroke-width="1" />

 <!-- south/east corner -->
 <g stroke="#000000" stroke-width="1">
  <line x1="248.8" y1="227" x2="248.8" y2="289" />
  <line x1="248.3" y1="227.5" x2="264.8" y2="227.5" />
 </g>

 <!-- horizontal -->
 <line x1="264.8" y1="227.5" x2="366.9" y2="227.5" stroke="#000000" stroke-width="1" />
 <use stroke="#000000" xlink:href="#ah" x="367.9" y="227.5"/>
</g>

<g class="edge">
 <!-- from if iteration ==\nmaxWideningIterations to iterationBound = True -->
 <!-- vertical -->
 <line x1="577.86" y1="990" x2="577.86" y2="1038.6" stroke="#000000" stroke-width="1" />
 <use stroke="#000000" xlink:href="#ah" transform="translate(577.86 1039.6)rotate(90)"/>
 <text x="585" y="1014" fill="#000000" stroke="none" text-anchor="start">then</text>
</g>

<g class="edge">
 <!-- from iterationBound = True to frameMinimumStopTest -->
 <!-- vertical -->
 <line x1="577.86" y1="1090" x2="577.86" y2="1109.8" stroke="#000000" stroke-width="1" />
 <use stroke="#000000" xlink:href="#ah" transform="translate(577.86 1110.8)rotate(90)"/>
</g>

<g class="edge">
 <!-- from if newAbscissa &gt;=\nupperLimit to iteration++ -->
 <!-- south/east corner -->
 <g stroke="#000000" stroke-width="1">
  <line x1="322.08" y1="1853.5" x2="322.08" y2="1952" />
  <line x1="321.58" y1="1854" x2="367.9" y2="1854" />
 </g>

 <!-- vertical -->
 <line x1="322.08" y1="1952" x2="322.08" y2="2084" stroke="#000000" stroke-width="1" />
 <text x="330" y="2018" fill="#000000" stroke="none" text-anchor="start">else</text>

 <!-- north/east corner -->
 <g stroke="#000000" stroke-width="1">
  <line x1="322.08" y1="2084" x2="322.08" y2="2102.5" />
  <line x1="321.58" y1="2102" x2="366.9" y2="2102" />
 </g>
 <use stroke="#000000" xlink:href="#ah" x="367.9" y="2102"/>
</g>

<g class="edge">
 <!-- from cdomain to domainBound = True -->
 <!-- vertical -->
 <line x1="577.86" y1="647" x2="577.86" y2="695.6" stroke="#000000" stroke-width="1" />
 <use stroke="#000000" xlink:href="#ah" transform="translate(577.86 696.6)rotate(90)"/>
 <text x="585" y="671" fill="#000000" stroke="none" text-anchor="start">then</text>
</g>

<g class="edge">
 <!-- from if fc &gt; fb to frameBound = True -->
 <!-- vertical -->
 <line x1="577.86" y1="297" x2="577.86" y2="345.6" stroke="#000000" stroke-width="1" />
 <use stroke="#000000" xlink:href="#ah" transform="translate(577.86 346.6)rotate(90)"/>
 <text x="585" y="321" fill="#000000" stroke="none" text-anchor="start">then</text>
</g>

<g class="edge">
 <!-- from if newAbscissa &lt;=\nlowerLimit to if newAbscissa &gt;=\nupperLimit -->
 <!-- south/west corner -->
 <g stroke="#000000" stroke-width="1">
  <line x1="833.64" y1="1525.5" x2="833.64" y2="1624" />
  <line x1="787.82" y1="1526" x2="834.14" y2="1526" />
 </g>

 <!-- vertical -->
 <line x1="833.64" y1="1624" x2="833.64" y2="1756" stroke="#000000" stroke-width="1" />
 <text x="841" y="1690" fill="#000000" stroke="none" text-anchor="start">else</text>

 <!-- north/west corner -->
 <g stroke="#000000" stroke-width="1">
  <line x1="833.64" y1="1756" x2="833.64" y2="1854.5" />
  <line x1="788.82" y1="1854" x2="834.14" y2="1854" />
 </g>
 <use stroke="#000000" xlink:href="#ah" transform="translate(787.82 1854)rotate(180)"/>
</g>

<g class="edge">
 <!-- from domainBound = True to if iteration ==\nmaxWideningIterations -->
 <!-- vertical -->
 <line x1="577.86" y1="747" x2="577.86" y2="766.8" stroke="#000000" stroke-width="1" />
 <use stroke="#000000" xlink:href="#ah" transform="translate(577.86 767.8)rotate(90)"/>
</g>

<g class="edge">
 <!-- from if iteration ==\nmaxWideningIterations to frameMinimumStopTest -->
 <!-- south/west corner -->
 <g stroke="#000000" stroke-width="1">
  <line x1="833.64" y1="876" x2="833.64" y2="982" />
  <line x1="787.82" y1="876.5" x2="834.14" y2="876.5" />
 </g>

 <!-- vertical -->
 <line x1="833.64" y1="982" x2="833.64" y2="1114" stroke="#000000" stroke-width="1" />
 <text x="841" y="1048" fill="#000000" stroke="none" text-anchor="start">else</text>

 <!-- north/west corner -->
 <g stroke="#000000" stroke-width="1">
  <line x1="833.64" y1="1114" x2="833.64" y2="1205.5" />
  <line x1="788.82" y1="1205" x2="834.14" y2="1205" />
 </g>
 <use stroke="#000000" xlink:href="#ah" transform="translate(787.82 1205)rotate(180)"/>
</g>

<g class="edge">
 <!-- from newAbscissa = upperLimit to iteration++ -->
 <!-- vertical -->
 <line x1="577.86" y1="2060" x2="577.86" y2="2079.8" stroke="#000000" stroke-width="1" />
 <use stroke="#000000" xlink:href="#ah" transform="translate(577.86 2080.8)rotate(90)"/>
</g>

<g class="node-start">
 <!-- Given: f, fa, a, fb, b, fc, c,\nlimitLeft,\nlimitRight,\ngrowthFactor,\niteration,\nmaxWideningIterations, rounded -->
 <rect fill="#ffbfc9" height="125" rx="15" ry="15" stroke="#000000" width="396" x="379.86"
   y="8.5" />
 <text x="577" y="32" fill="#000000" text-anchor="middle">
  <tspan x="577" y="30">Given: f, fa, a, fb, b, fc, c,</tspan>
  <tspan x="577" y="48">limitLeft,</tspan>
  <tspan x="577" y="66">limitRight,</tspan>
  <tspan x="577" y="84">growthFactor,</tspan>
  <tspan x="577" y="102">iteration,</tspan>
  <tspan x="577" y="120">maxWideningIterations</tspan>
 </text>
</g>

<g class="node-question">
 <!-- if fc &gt; fb, diamond -->
 <polygon points="380.03,227.5, 577.86,166.5, 775.69,227.5, 577.86,288.5" fill="#ffff8a" stroke="#000000" />
 <text x="577" y="233" fill="#000000" text-anchor="middle">if fc &gt; fb</text>
</g>

<g class="node-action">
 <!-- frameBound = True, rounded -->
 <rect fill="#8bef91" height="35" rx="15" ry="15" stroke="#000000" width="396" x="379.86"
   y="353.5" />
 <text x="577" y="377" fill="#000000" text-anchor="middle">frameBound = True</text>
</g>

<g class="node-question">
 <!-- if Or(c == limitLeft,\nc == limitRight), diamond -->
 <polygon points="380.03,530, 577.86,421.5, 775.69,530, 577.86,638.5" fill="#ffff8a" stroke="#000000" />
 <text x="577" y="527" fill="#000000" text-anchor="middle">
  <tspan x="577" y="525">if Or(c == limitLeft,</tspan>
  <tspan x="577" y="543">c == limitRight)</tspan>
 </text>
</g>

<g class="node-action">
 <!-- domainBound = True, rounded -->
 <rect fill="#8bef91" height="35" rx="15" ry="15" stroke="#000000" width="396" x="379.86"
   y="703.5" />
 <text x="577" y="727" fill="#000000" text-anchor="middle">domainBound = True</text>
</g>

<g class="node-question">
 <!-- if iteration ==\nmaxWideningIterations, diamond -->
 <polygon points="380.03,876.5, 577.86,771.5, 775.69,876.5, 577.86,981.5" fill="#ffff8a" stroke="#000000" />
 <text x="577" y="873" fill="#000000" text-anchor="middle">
  <tspan x="577" y="871">if iteration ==</tspan>
  <tspan x="577" y="889">maxWideningIterations</tspan>
 </text>
</g>

<g class="node-action">
 <!-- iterationBound = True, rounded -->
 <rect fill="#8bef91" height="35" rx="15" ry="15" stroke="#000000" width="396" x="379.86"
   y="1046.5" />
 <text x="577" y="1070" fill="#000000" text-anchor="middle">iterationBound = True</text>
</g>

<g class="node-question">
 <!-- if Or(frameBound,\ndomainBound,\niterationBound), diamond -->
 <polygon points="380.03,1205, 577.86,1114.5, 775.69,1205, 577.86,1295.5" fill="#ffff8a" stroke="#000000" />
 <text x="577" y="1193" fill="#000000" text-anchor="middle">
  <tspan x="577" y="1191">if Or(frameBound,</tspan>
  <tspan x="577" y="1209">domainBound,</tspan>
  <tspan x="577" y="1227">iterationBound)</tspan>
 </text>
</g>

<g class="node-action">
 <!-- exit subroutine, rounded -->
 <rect fill="#8bef91" height="181" rx="15" ry="15" stroke="#000000" width="155" x="8.5"
   y="1114.5" />
 <text x="86" y="1211" fill="#000000" text-anchor="middle">exit subroutine</text>
</g>

<g class="node-action">
 <!-- newAbscissa = c + growthFactor*(c-b), rounded -->
 <rect fill="#8bef91" height="35" rx="15" ry="15" stroke="#000000" width="396" x="379.86"
   y="1360.5" />
 <text x="577" y="1384" fill="#000000" text-anchor="middle">newAbscissa = c + growthFactor*(c-b)</text>
</g>

<g class="node-question">
 <!-- if newAbscissa &lt;=\nlowerLimit, diamond -->
 <polygon points="380.03,1526, 577.86,1428.5, 775.69,1526, 577.86,1623.5" fill="#ffff8a" stroke="#000000" />
 <text x="577" y="1523" fill="#000000" text-anchor="middle">
  <tspan x="577" y="1521">if newAbscissa &lt;=</tspan>
  <tspan x="577" y="1539">lowerLimit</tspan>
 </text>
</g>

<g class="node-action">
 <!-- newAbscissa = lowerLimit, rounded -->
 <rect fill="#8bef91" height="35" rx="15" ry="15" stroke="#000000" width="396" x="379.86"
   y="1688.5" />
 <text x="577" y="1712" fill="#000000" text-anchor="middle">newAbscissa = lowerLimit</text>
</g>

<g class="node-question">
 <!-- if newAbscissa &gt;=\nupperLimit, diamond -->
 <polygon points="380.03,1854, 577.86,1756.5, 775.69,1854, 577.86,1951.5" fill="#ffff8a" stroke="#000000" />
 <text x="577" y="1851" fill="#000000" text-anchor="middle">
  <tspan x="577" y="1849">if newAbscissa &gt;=</tspan>
  <tspan x="577" y="1867">upperLimit</tspan>
 </text>
</g>

<g class="node-action">
 <!-- newAbscissa = upperLimit, rounded -->
 <rect fill="#8bef91" height="35" rx="15" ry="15" stroke="#000000" width="396" x="379.86"
   y="2016.5" />
 <text x="577" y="2040" fill="#000000" text-anchor="middle">newAbscissa = upperLimit</text>
</g>

<g class="node-action">
 <!-- iteration++, rounded -->
 <rect fill="#8bef91" height="35" rx="15" ry="15" stroke="#000000" width="396" x="379.86"
   y="2084.5" />
 <text x="577" y="2108" fill="#000000" text-anchor="middle">iteration++</text>
</g>

<g class="node-action">
 <!-- newOrdinate =\nf(newAbscissa), rounded -->
 <rect fill="#8bef91" height="53" rx="15" ry="15" stroke="#000000" width="396" x="379.86"
   y="2152.5" />
 <text x="577" y="2176" fill="#000000" text-anchor="middle">
  <tspan x="577" y="2174">newOrdinate =</tspan>
  <tspan x="577" y="2192">f(newAbscissa)</tspan>
 </text>
</g>

<g class="node-action">
 <!-- {fa,a,fb,b,fc,c} =\n{fb,b,fc,c,newOrdinate,newAbscissa}, rounded -->
 <rect fill="#8bef91" height="53" rx="15" ry="15" stroke="#000000" width="396" x="379.86"
   y="2238.5" />
 <text x="577" y="2262" fill="#000000" text-anchor="middle">
  <tspan x="577" y="2260">{fa,a,fb,b,fc,c} =</tspan>
  <tspan x="577" y="2278">{fb,b,fc,c,newOrdinate,newAbscissa}</tspan>
 </text>
</g>

</svg>
