<?xml version="1.0" encoding="UTF-8" standalone="yes"?>
<!DOCTYPE svg PUBLIC "-//W3C//DTD SVG 1.1//EN" "http://www.w3.org/Graphics/SVG/1.1/DTD/svg11.dtd">

<svg width="1263.72" height="5941" version="1.1" xmlns="http://www.w3.org/2000/svg" xmlns:xlink="http://www.w3.org/1999/xlink">
<!-- Generated at Thu Oct 26 21:48:22 2006 by:
  Graph::Easy v0.48
  Graph::Easy::As_svg v0.20
-->

<title>Untitled graph</title>
<defs>
 <!-- open arrow head -->
 <g id="ah" stroke-linecap="round" stroke-width="1">
  <line x1="-8" y1="-4" x2="1" y2="0" />
  <line x1="1" y1="0" x2="-8" y2="4" />
 </g>

 <!-- class definitions -->
 <style type="text/css"><![CDATA[
 .edge {
  fill: inherit;
  font-family: monospaced, courier-new, courier, sans-serif;
  font-size: 13px;
  stroke: black;
  text-anchor: middle;
 }
 .node,.node_action,.node_anon,.node_question,.node_start {
  text-anchor: middle;
  fill: white;
  font-size: 16px;
 }
 .node_action {
  fill: #8bef91;
 }
 .node_question {
  fill: #ffff8a;
 }
 .node_start {
  fill: #ffbfc9;
 }
 ]]></style>
</defs>

<!-- graph background with border (mainly for printing) -->
<rect x="0" y="0" width="1271.72" height="5949" fill="white" stroke="none" stroke-dasharray="" stroke-width="1" />

<g class="edge">
 <!-- from newAbscissa = upperLimit to iteration++ -->
 <!-- vertical -->
 <line x1="353.06" y1="3064" x2="353.06" y2="3083.8" stroke="#000000" stroke-width="1" />
 <use stroke="#000000" xlink:href="#ah" transform="translate(353.06 3084.8)rotate(90)"/>
</g>

<g class="edge">
 <!-- from frameMinimumStopTest to if And(Not(frameBound,\nNot(reverse)) -->
 <!-- vertical -->
 <line x1="884.62" y1="2198" x2="884.62" y2="2246.6" stroke="#000000" stroke-width="1" />
 <use stroke="#000000" xlink:href="#ah" transform="translate(884.62 2247.6)rotate(90)"/>
 <text x="892" y="2222" fill="#000000" stroke="none" text-anchor="start">then</text>
</g>

<g class="edge">
 <!-- from newAbscissa = lowerLimit to if newAbscissa &gt;=\nupperLimit -->
 <!-- vertical -->
 <line x1="353.06" y1="2646" x2="353.06" y2="2665.8" stroke="#000000" stroke-width="1" />
 <use stroke="#000000" xlink:href="#ah" transform="translate(353.06 2666.8)rotate(90)"/>
</g>

<g class="edge">
 <!-- from newOrdinate =\nf(newAbscissa) to {fa,a,fb,b,fc,c} =\n{fb,b,fc,c,newOrdinate,newAbscissa} -->
 <!-- vertical -->
 <line x1="353.06" y1="3308" x2="353.06" y2="3327.8" stroke="#000000" stroke-width="1" />
 <use stroke="#000000" xlink:href="#ah" transform="translate(353.06 3328.8)rotate(90)"/>
</g>

<g class="edge">
 <!-- from domainBound = True to if iteration ==\nmaxWideningIterations -->
 <!-- vertical -->
 <line x1="884.62" y1="1641" x2="884.62" y2="1660.8" stroke="#000000" stroke-width="1" />
 <use stroke="#000000" xlink:href="#ah" transform="translate(884.62 1661.8)rotate(90)"/>
</g>

<g class="edge">
 <!-- from Given: f, a, c,\nlimitLeft,\nlimitRight,\nreverse,\nshrinkFactor,\ngrowthFactor,\naccuracyGoal,\nprecisionGoal,\nmaxWideningIterations,\nmaxNarrowingIterations to {fa,fc} =\n{f(a),f(c)} -->
 <!-- vertical -->
 <line x1="884.62" y1="214" x2="884.62" y2="233.8" stroke="#000000" stroke-width="1" />
 <use stroke="#000000" xlink:href="#ah" transform="translate(884.62 234.8)rotate(90)"/>
</g>

<g class="edge">
 <!-- from if x &gt; (a + c)/2 to e = c - x -->
 <!-- horizontal -->
 <line x1="564.02" y1="3915" x2="654.66" y2="3915" stroke="#000000" stroke-width="1" />
 <use stroke="#000000" xlink:href="#ah" transform="translate(563.02 3915)rotate(180)"/>
 <text x="611" y="3907" fill="#000000" stroke="none">else</text>
</g>

<g class="edge">
 <!-- from iteration = 1 to if fc &gt; fb -->
 <!-- vertical -->
 <line x1="884.62" y1="1036" x2="884.62" y2="1055.8" stroke="#000000" stroke-width="1" />
 <use stroke="#000000" xlink:href="#ah" transform="translate(884.62 1056.8)rotate(90)"/>
</g>

<g class="edge">
 <!-- from {fa,a,fb,b,fc,c} =\n{fb,b,fc,c,newOrdinate,newAbscissa} to if fc &gt; fb -->
 <!-- north/east corner -->
 <g stroke="#000000" stroke-width="1">
  <line x1="97.28" y1="3332" x2="97.28" y2="3359.5" />
  <line x1="96.78" y1="3359" x2="143.1" y2="3359" />
 </g>

 <!-- vertical -->
 <line x1="97.28" y1="3174" x2="97.28" y2="3332" stroke="#000000" stroke-width="1" />

 <!-- south/west corner -->
 <g stroke="#000000" stroke-width="1">
  <line x1="97.28" y1="3157.5" x2="97.28" y2="3174" />
  <line x1="40" y1="3158" x2="97.78" y2="3158" />
 </g>

 <!-- north/east corner -->
 <g stroke="#000000" stroke-width="1">
  <line x1="24" y1="3142" x2="24" y2="3158.5" />
  <line x1="23.5" y1="3158" x2="40" y2="3158" />
 </g>

 <!-- vertical -->
 <line x1="24" y1="1183" x2="24" y2="3142" stroke="#000000" stroke-width="1" />

 <!-- south/east corner -->
 <g stroke="#000000" stroke-width="1">
  <line x1="24" y1="1121" x2="24" y2="1183" />
  <line x1="23.5" y1="1121.5" x2="40" y2="1121.5" />
 </g>

 <!-- horizontal -->
 <line x1="40" y1="1121.5" x2="551.56" y2="1121.5" stroke="#000000" stroke-width="1" />

 <!-- horizontal -->
 <line x1="551.56" y1="1121.5" x2="653.66" y2="1121.5" stroke="#000000" stroke-width="1" />
 <use stroke="#000000" xlink:href="#ah" x="654.66" y="1121.5"/>
</g>

<g class="edge">
 <!-- from iterationBound = True to frameMinimumStopTest -->
 <!-- vertical -->
 <line x1="884.62" y1="1984" x2="884.62" y2="2003.8" stroke="#000000" stroke-width="1" />
 <use stroke="#000000" xlink:href="#ah" transform="translate(884.62 2004.8)rotate(90)"/>
</g>

<g class="edge">
 <!-- from fb = f(b) to iteration = 1 -->
 <!-- vertical -->
 <line x1="884.62" y1="968" x2="884.62" y2="987.8" stroke="#000000" stroke-width="1" />
 <use stroke="#000000" xlink:href="#ah" transform="translate(884.62 988.8)rotate(90)"/>
</g>

<g class="edge">
 <!-- from {fv,v,fw,w,fx,x} =\npair sorted\n{fa,a,fb,b,fc,c}\nin order of\ndecreasing\nordinate to maxDisplacement =\nc-a -->
 <!-- vertical -->
 <line x1="884.62" y1="3308" x2="884.62" y2="3327.8" stroke="#000000" stroke-width="1" />
 <use stroke="#000000" xlink:href="#ah" transform="translate(884.62 3328.8)rotate(90)"/>
</g>

<g class="edge">
 <!-- from if j &gt;\nLength(sameTestAbscissas) to if Abs(sameTestAbscissas(j) -\nperturbed(i)) &lt; ptol -->
 <!-- vertical -->
 <line x1="884.62" y1="5446" x2="884.62" y2="5494.6" stroke="#000000" stroke-width="1" />
 <use stroke="#000000" xlink:href="#ah" transform="translate(884.62 5495.6)rotate(90)"/>
 <text x="892" y="5470" fill="#000000" stroke="none" text-anchor="start">else</text>
</g>

<g class="edge">
 <!-- from if iteration ==\nmaxWideningIterations to frameMinimumStopTest -->
 <!-- south/west corner -->
 <g stroke="#000000" stroke-width="1">
  <line x1="1163.92" y1="1770" x2="1163.92" y2="1876" />
  <line x1="1115.28" y1="1770.5" x2="1164.42" y2="1770.5" />
 </g>

 <!-- vertical -->
 <line x1="1163.92" y1="1876" x2="1163.92" y2="2008" stroke="#000000" stroke-width="1" />
 <text x="1171" y="1942" fill="#000000" stroke="none" text-anchor="start">else</text>

 <!-- north/west corner -->
 <g stroke="#000000" stroke-width="1">
  <line x1="1163.92" y1="2008" x2="1163.92" y2="2099.5" />
  <line x1="1116.28" y1="2099" x2="1164.42" y2="2099" />
 </g>
 <use stroke="#000000" xlink:href="#ah" transform="translate(1115.28 2099)rotate(180)"/>
</g>

<g class="edge">
 <!-- from if newAbscissa &gt;=\nupperLimit to iteration++ -->
 <!-- south/east corner -->
 <g stroke="#000000" stroke-width="1">
  <line x1="97.28" y1="2767.5" x2="97.28" y2="2866" />
  <line x1="96.78" y1="2768" x2="143.1" y2="2768" />
 </g>

 <!-- vertical -->
 <line x1="97.28" y1="2866" x2="97.28" y2="3088" stroke="#000000" stroke-width="1" />
 <text x="105" y="2977" fill="#000000" stroke="none" text-anchor="start">else</text>

 <!-- north/east corner -->
 <g stroke="#000000" stroke-width="1">
  <line x1="97.28" y1="3088" x2="97.28" y2="3115.5" />
  <line x1="96.78" y1="3115" x2="142.1" y2="3115" />
 </g>
 <use stroke="#000000" xlink:href="#ah" x="143.1" y="3115"/>
</g>

<g class="edge">
 <!-- from if iteration ==\nmaxWideningIterations to iterationBound = True -->
 <!-- vertical -->
 <line x1="884.62" y1="1884" x2="884.62" y2="1932.6" stroke="#000000" stroke-width="1" />
 <use stroke="#000000" xlink:href="#ah" transform="translate(884.62 1933.6)rotate(90)"/>
 <text x="892" y="1908" fill="#000000" stroke="none" text-anchor="start">then</text>
</g>

<g class="edge">
 <!-- from i++ to if i &gt;\nLength(perturbed) -->
 <!-- vertical -->
 <line x1="884.62" y1="4673" x2="884.62" y2="4692.8" stroke="#000000" stroke-width="1" />
 <use stroke="#000000" xlink:href="#ah" transform="translate(884.62 4693.8)rotate(90)"/>
</g>

<g class="edge">
 <!-- from define candidateAbsicssa(1)\nvia inverse polynomial\ninterpolation to candidateAbscissa(2) = x + e*shrinkFactor -->
 <!-- vertical -->
 <line x1="884.62" y1="4229" x2="884.62" y2="4248.8" stroke="#000000" stroke-width="1" />
 <use stroke="#000000" xlink:href="#ah" transform="translate(884.62 4249.8)rotate(90)"/>
</g>

<g class="edge">
 <!-- from if And(Not(frameBound,\nNot(reverse)) to if frameBound -->
 <!-- south/west corner -->
 <g stroke="#000000" stroke-width="1">
  <line x1="1163.92" y1="2368.5" x2="1163.92" y2="2484" />
  <line x1="1115.28" y1="2369" x2="1164.42" y2="2369" />
 </g>

 <!-- vertical -->
 <line x1="1163.92" y1="2484" x2="1163.92" y2="2670" stroke="#000000" stroke-width="1" />
 <text x="1171" y="2577" fill="#000000" stroke="none" text-anchor="start">else</text>

 <!-- north/west corner -->
 <g stroke="#000000" stroke-width="1">
  <line x1="1163.92" y1="2670" x2="1163.92" y2="2768.5" />
  <line x1="1116.28" y1="2768" x2="1164.42" y2="2768" />
 </g>
 <use stroke="#000000" xlink:href="#ah" transform="translate(1115.28 2768)rotate(180)"/>
</g>

<g class="edge">
 <!-- from frameMinimumStopTest to newAbscissa = c + growthFactor*(c-b) -->
 <!-- horizontal -->
 <line x1="564.02" y1="2099" x2="654.66" y2="2099" stroke="#000000" stroke-width="1" />
 <use stroke="#000000" xlink:href="#ah" transform="translate(563.02 2099)rotate(180)"/>
 <text x="611" y="2091" fill="#000000" stroke="none">else</text>
</g>

<g class="edge">
 <!-- from {fa,a,fb,b,fc,c} =\npair sorted\n{fa,a,fb,b,fc,c}\nin order of\nincreasing\nabscissa to {fu,u} =\n{fc,c} -->
 <!-- vertical -->
 <line x1="884.62" y1="3064" x2="884.62" y2="3083.8" stroke="#000000" stroke-width="1" />
 <use stroke="#000000" xlink:href="#ah" transform="translate(884.62 3084.8)rotate(90)"/>
</g>

<g class="edge">
 <!-- from if newAbscissa &lt;=\nlowerLimit to newAbscissa = lowerLimit -->
 <!-- vertical -->
 <line x1="353.06" y1="2492" x2="353.06" y2="2540.6" stroke="#000000" stroke-width="1" />
 <use stroke="#000000" xlink:href="#ah" transform="translate(353.06 2541.6)rotate(90)"/>
 <text x="361" y="2516" fill="#000000" stroke="none" text-anchor="start">then</text>
</g>

<g class="edge">
 <!-- from if j &gt;\nLength(sameTestAbscissas) to i++ -->
 <!-- north/west corner -->
 <g stroke="#000000" stroke-width="1">
  <line x1="1163.92" y1="5183" x2="1163.92" y2="5311" />
  <line x1="1115.28" y1="5310.5" x2="1164.42" y2="5310.5" />
 </g>

 <!-- vertical -->
 <line x1="1163.92" y1="5151" x2="1163.92" y2="5183" stroke="#000000" stroke-width="1" />

 <!-- crossing -->
 <g stroke="#000000" stroke-width="1">
  <line x1="1116.28" y1="5119" x2="1224.72" y2="5119" />
  <line x1="1163.92" y1="5087" x2="1163.92" y2="5151" stroke="#000000" stroke-dasharray="1 0"/>
 </g>
 <use stroke="#000000" xlink:href="#ah" transform="translate(1115.28 5119)rotate(180)"/>
 <text x="1163" y="5111" fill="#000000" stroke="none" text-anchor="start">then</text>

 <!-- vertical -->
 <line x1="1163.92" y1="4665" x2="1163.92" y2="5087" stroke="#000000" stroke-width="1" />
 <text x="1171" y="4876" fill="#000000" stroke="none" text-anchor="start">then</text>

 <!-- south/west corner -->
 <g stroke="#000000" stroke-width="1">
  <line x1="1163.92" y1="4646.5" x2="1163.92" y2="4665" />
  <line x1="1116.28" y1="4647" x2="1164.42" y2="4647" />
 </g>
 <use stroke="#000000" xlink:href="#ah" transform="translate(1115.28 4647)rotate(180)"/>
</g>

<g class="edge">
 <!-- from b = c + shrinkFactor*(a-c) to fb = f(b) -->
 <!-- vertical -->
 <line x1="884.62" y1="900" x2="884.62" y2="919.8" stroke="#000000" stroke-width="1" />
 <use stroke="#000000" xlink:href="#ah" transform="translate(884.62 920.8)rotate(90)"/>
</g>

<g class="edge">
 <!-- from if fc &gt; fb to frameBound = True -->
 <!-- vertical -->
 <line x1="884.62" y1="1191" x2="884.62" y2="1239.6" stroke="#000000" stroke-width="1" />
 <use stroke="#000000" xlink:href="#ah" transform="translate(884.62 1240.6)rotate(90)"/>
 <text x="892" y="1215" fill="#000000" stroke="none" text-anchor="start">then</text>
</g>

<g class="edge">
 <!-- from if Abs(sameTestAbscissas(j) -\nperturbed(i)) &lt; ptol to perturbed(i) =\n perturbed(i) +\nperturbFactor*tol -->
 <!-- vertical -->
 <line x1="884.62" y1="5806" x2="884.62" y2="5854.6" stroke="#000000" stroke-width="1" />
 <use stroke="#000000" xlink:href="#ah" transform="translate(884.62 5855.6)rotate(90)"/>
 <text x="892" y="5830" fill="#000000" stroke="none" text-anchor="start">then</text>
</g>

<g class="edge">
 <!-- from iteration++ to newOrdinate =\nf(newAbscissa) -->
 <!-- vertical -->
 <line x1="353.06" y1="3150" x2="353.06" y2="3169.8" stroke="#000000" stroke-width="1" />
 <use stroke="#000000" xlink:href="#ah" transform="translate(353.06 3170.8)rotate(90)"/>
</g>

<g class="edge">
 <!-- from newAbscissa = c + growthFactor*(c-b) to if newAbscissa &lt;=\nlowerLimit -->
 <!-- vertical -->
 <line x1="353.06" y1="2198" x2="353.06" y2="2246.6" stroke="#000000" stroke-width="1" />
 <use stroke="#000000" xlink:href="#ah" transform="translate(353.06 2247.6)rotate(90)"/>
</g>

<g class="edge">
 <!-- from ptol = 10^-accuracyGoal +\nAbs(perturbed(i))*10^-precisionGoal to j = 0 -->
 <!-- vertical -->
 <line x1="884.62" y1="4995" x2="884.62" y2="5014.8" stroke="#000000" stroke-width="1" />
 <use stroke="#000000" xlink:href="#ah" transform="translate(884.62 5015.8)rotate(90)"/>
</g>

<g class="edge">
 <!-- from perturbationFactor =\nSign(e)/2 to sameTestAbscissas =\n{x,u,c,a,w,c} -->
 <!-- vertical -->
 <line x1="884.62" y1="4451" x2="884.62" y2="4470.8" stroke="#000000" stroke-width="1" />
 <use stroke="#000000" xlink:href="#ah" transform="translate(884.62 4471.8)rotate(90)"/>
</g>

<g class="edge">
 <!-- from cdomain to domainBound = True -->
 <!-- vertical -->
 <line x1="884.62" y1="1541" x2="884.62" y2="1589.6" stroke="#000000" stroke-width="1" />
 <use stroke="#000000" xlink:href="#ah" transform="translate(884.62 1590.6)rotate(90)"/>
 <text x="892" y="1565" fill="#000000" stroke="none" text-anchor="start">then</text>
</g>

<g class="edge">
 <!-- from if reverse to {fc,c,fa,a} =\n{fa,a,fc,c} -->
 <!-- vertical -->
 <line x1="884.62" y1="714" x2="884.62" y2="762.6" stroke="#000000" stroke-width="1" />
 <use stroke="#000000" xlink:href="#ah" transform="translate(884.62 763.6)rotate(90)"/>
 <text x="892" y="738" fill="#000000" stroke="none" text-anchor="start">then</text>
</g>

<g class="edge">
 <!-- from perturbed(i) =\n perturbed(i) +\nperturbFactor*tol to ptol = 10^-accuracyGoal +\nAbs(perturbed(i))*10^-precisionGoal -->
 <!-- north/east corner -->
 <g stroke="#000000" stroke-width="1">
  <line x1="608.84" y1="5862" x2="608.84" y2="5898.5" />
  <line x1="608.34" y1="5898" x2="654.66" y2="5898" />
 </g>

 <!-- vertical -->
 <line x1="608.84" y1="4987" x2="608.84" y2="5862" stroke="#000000" stroke-width="1" />

 <!-- south/east corner -->
 <g stroke="#000000" stroke-width="1">
  <line x1="608.84" y1="4959.5" x2="608.84" y2="4987" />
  <line x1="608.34" y1="4960" x2="653.66" y2="4960" />
 </g>
 <use stroke="#000000" xlink:href="#ah" x="654.66" y="4960"/>
</g>

<g class="edge">
 <!-- from if fc &gt; fb to cdomain -->
 <!-- south/west corner -->
 <g stroke="#000000" stroke-width="1">
  <line x1="1163.92" y1="1121" x2="1163.92" y2="1183" />
  <line x1="1115.28" y1="1121.5" x2="1164.42" y2="1121.5" />
 </g>

 <!-- vertical -->
 <line x1="1163.92" y1="1183" x2="1163.92" y2="1315" stroke="#000000" stroke-width="1" />
 <text x="1171" y="1249" fill="#000000" stroke="none" text-anchor="start">else</text>

 <!-- north/west corner -->
 <g stroke="#000000" stroke-width="1">
  <line x1="1163.92" y1="1315" x2="1163.92" y2="1424.5" />
  <line x1="1116.28" y1="1424" x2="1164.42" y2="1424" />
 </g>
 <use stroke="#000000" xlink:href="#ah" transform="translate(1115.28 1424)rotate(180)"/>
</g>

<g class="edge">
 <!-- from sameTestAbscissas =\n{x,u,c,a,w,c} to i = 0 -->
 <!-- vertical -->
 <line x1="884.62" y1="4537" x2="884.62" y2="4556.8" stroke="#000000" stroke-width="1" />
 <use stroke="#000000" xlink:href="#ah" transform="translate(884.62 4557.8)rotate(90)"/>
</g>

<g class="edge">
 <!-- from j++ to if j &gt;\nLength(sameTestAbscissas) -->
 <!-- vertical -->
 <line x1="884.62" y1="5159" x2="884.62" y2="5178.8" stroke="#000000" stroke-width="1" />
 <use stroke="#000000" xlink:href="#ah" transform="translate(884.62 5179.8)rotate(90)"/>
</g>

<g class="edge">
 <!-- from if x &gt; (a + c)/2 to e = a - x -->
 <!-- vertical -->
 <line x1="884.62" y1="4025" x2="884.62" y2="4073.6" stroke="#000000" stroke-width="1" />
 <use stroke="#000000" xlink:href="#ah" transform="translate(884.62 4074.6)rotate(90)"/>
 <text x="892" y="4049" fill="#000000" stroke="none" text-anchor="start">then</text>
</g>

<g class="edge">
 <!-- from xtol = 10^-accuracyGoal +\nAbs(x)*10^-precisionGoal to if And(Abs(a-x) &lt; xtol,\nAbs(c-x) &lt; xtol) -->
 <!-- vertical -->
 <line x1="884.62" y1="3480" x2="884.62" y2="3499.8" stroke="#000000" stroke-width="1" />
 <use stroke="#000000" xlink:href="#ah" transform="translate(884.62 3500.8)rotate(90)"/>
</g>

<g class="edge">
 <!-- from frameBound = True to cdomain -->
 <!-- vertical -->
 <line x1="884.62" y1="1291" x2="884.62" y2="1310.8" stroke="#000000" stroke-width="1" />
 <use stroke="#000000" xlink:href="#ah" transform="translate(884.62 1311.8)rotate(90)"/>
</g>

<g class="edge">
 <!-- from {fu,u} =\n{fc,c} to {fv,v,fw,w,fx,x} =\npair sorted\n{fa,a,fb,b,fc,c}\nin order of\ndecreasing\nordinate -->
 <!-- vertical -->
 <line x1="884.62" y1="3150" x2="884.62" y2="3169.8" stroke="#000000" stroke-width="1" />
 <use stroke="#000000" xlink:href="#ah" transform="translate(884.62 3170.8)rotate(90)"/>
</g>

<g class="edge">
 <!-- from perturbed = candidateAbscissa to perturbationFactor =\nSign(e)/2 -->
 <!-- vertical -->
 <line x1="884.62" y1="4365" x2="884.62" y2="4384.8" stroke="#000000" stroke-width="1" />
 <use stroke="#000000" xlink:href="#ah" transform="translate(884.62 4385.8)rotate(90)"/>
</g>

<g class="edge">
 <!-- from i = 0 to i++ -->
 <!-- vertical -->
 <line x1="884.62" y1="4605" x2="884.62" y2="4624.8" stroke="#000000" stroke-width="1" />
 <use stroke="#000000" xlink:href="#ah" transform="translate(884.62 4625.8)rotate(90)"/>
</g>

<g class="edge">
 <!-- from if And(Abs(a-x) &lt; xtol,\nAbs(c-x) &lt; xtol) to if x &gt; (a + c)/2 -->
 <!-- vertical -->
 <line x1="884.62" y1="3757" x2="884.62" y2="3805.6" stroke="#000000" stroke-width="1" />
 <use stroke="#000000" xlink:href="#ah" transform="translate(884.62 3806.6)rotate(90)"/>
 <text x="892" y="3781" fill="#000000" stroke="none" text-anchor="start">else</text>
</g>

<g class="edge">
 <!-- from maxDisplacement =\nc-a to xtol = 10^-accuracyGoal +\nAbs(x)*10^-precisionGoal -->
 <!-- vertical -->
 <line x1="884.62" y1="3394" x2="884.62" y2="3413.8" stroke="#000000" stroke-width="1" />
 <use stroke="#000000" xlink:href="#ah" transform="translate(884.62 3414.8)rotate(90)"/>
</g>

<g class="edge">
 <!-- from j = 0 to j++ -->
 <!-- vertical -->
 <line x1="884.62" y1="5063" x2="884.62" y2="5082.8" stroke="#000000" stroke-width="1" />
 <use stroke="#000000" xlink:href="#ah" transform="translate(884.62 5083.8)rotate(90)"/>
</g>

<g class="edge">
 <!-- from if newAbscissa &gt;=\nupperLimit to newAbscissa = upperLimit -->
 <!-- vertical -->
 <line x1="353.06" y1="2874" x2="353.06" y2="2922.6" stroke="#000000" stroke-width="1" />
 <use stroke="#000000" xlink:href="#ah" transform="translate(353.06 2923.6)rotate(90)"/>
 <text x="361" y="2898" fill="#000000" stroke="none" text-anchor="start">then</text>
</g>

<g class="edge">
 <!-- from if fc &gt; fa to {fa,a,fc,c} =\n{fc,c,fa,a} -->
 <!-- vertical -->
 <line x1="884.62" y1="454" x2="884.62" y2="502.6" stroke="#000000" stroke-width="1" />
 <use stroke="#000000" xlink:href="#ah" transform="translate(884.62 503.6)rotate(90)"/>
 <text x="892" y="478" fill="#000000" stroke="none" text-anchor="start">then</text>
</g>

<g class="edge">
 <!-- from if And(Abs(a-x) &lt; xtol,\nAbs(c-x) &lt; xtol) to done with frame narrow -->
 <!-- horizontal -->
 <line x1="564.02" y1="3626.5" x2="654.66" y2="3626.5" stroke="#000000" stroke-width="1" />
 <use stroke="#000000" xlink:href="#ah" transform="translate(563.02 3626.5)rotate(180)"/>
 <text x="611" y="3618" fill="#000000" stroke="none">then</text>
</g>

<g class="edge">
 <!-- from candidateAbscissa(2) = x + e*shrinkFactor to perturbed = candidateAbscissa -->
 <!-- vertical -->
 <line x1="884.62" y1="4297" x2="884.62" y2="4316.8" stroke="#000000" stroke-width="1" />
 <use stroke="#000000" xlink:href="#ah" transform="translate(884.62 4317.8)rotate(90)"/>
</g>

<g class="edge">
 <!-- from Sow (a.k.a. store)\nthe results of running\nthis algorithm with\nreverse = False to if frameBound -->
 <!-- vertical -->
 <line x1="884.62" y1="2646" x2="884.62" y2="2665.8" stroke="#000000" stroke-width="1" />
 <use stroke="#000000" xlink:href="#ah" transform="translate(884.62 2666.8)rotate(90)"/>
</g>

<g class="edge">
 <!-- from if i &gt;\nLength(perturbed) to done with perturbation -->
 <!-- horizontal -->
 <line x1="564.02" y1="4783" x2="654.66" y2="4783" stroke="#000000" stroke-width="1" />
 <use stroke="#000000" xlink:href="#ah" transform="translate(563.02 4783)rotate(180)"/>
 <text x="611" y="4775" fill="#000000" stroke="none">then</text>
</g>

<g class="edge">
 <!-- from if Abs(sameTestAbscissas(j) -\nperturbed(i)) &lt; ptol to j++ -->
 <!-- horizontal -->
 <line x1="1115.28" y1="5650" x2="1224.72" y2="5650" stroke="#000000" stroke-width="1" />

 <!-- north/west corner -->
 <g stroke="#000000" stroke-width="1">
  <line x1="1240.72" y1="5502" x2="1240.72" y2="5650.5" />
  <line x1="1224.72" y1="5650" x2="1241.22" y2="5650" />
 </g>

 <!-- vertical -->
 <line x1="1240.72" y1="5151" x2="1240.72" y2="5502" stroke="#000000" stroke-width="1" />

 <!-- south/west corner -->
 <g stroke="#000000" stroke-width="1">
  <line x1="1240.72" y1="5118.5" x2="1240.72" y2="5151" />
  <line x1="1224.72" y1="5119" x2="1241.22" y2="5119" />
 </g>
</g>

<g class="edge">
 <!-- from if fc &gt; fa to if reverse -->
 <!-- south/west corner -->
 <g stroke="#000000" stroke-width="1">
  <line x1="1163.92" y1="384.5" x2="1163.92" y2="446" />
  <line x1="1115.28" y1="385" x2="1164.42" y2="385" />
 </g>

 <!-- vertical -->
 <line x1="1163.92" y1="446" x2="1163.92" y2="596" stroke="#000000" stroke-width="1" />
 <text x="1171" y="521" fill="#000000" stroke="none" text-anchor="start">else</text>

 <!-- north/west corner -->
 <g stroke="#000000" stroke-width="1">
  <line x1="1163.92" y1="596" x2="1163.92" y2="651.5" />
  <line x1="1116.28" y1="651" x2="1164.42" y2="651" />
 </g>
 <use stroke="#000000" xlink:href="#ah" transform="translate(1115.28 651)rotate(180)"/>
</g>

<g class="edge">
 <!-- from {fc,c,fa,a} =\n{fa,a,fc,c} to b = c + shrinkFactor*(a-c) -->
 <!-- vertical -->
 <line x1="884.62" y1="832" x2="884.62" y2="851.8" stroke="#000000" stroke-width="1" />
 <use stroke="#000000" xlink:href="#ah" transform="translate(884.62 852.8)rotate(90)"/>
</g>

<g class="edge">
 <!-- from e = a - x to define candidateAbsicssa(1)\nvia inverse polynomial\ninterpolation -->
 <!-- vertical -->
 <line x1="884.62" y1="4125" x2="884.62" y2="4144.8" stroke="#000000" stroke-width="1" />
 <use stroke="#000000" xlink:href="#ah" transform="translate(884.62 4145.8)rotate(90)"/>
</g>

<g class="edge">
 <!-- from {fa,a,fc,c} =\n{fc,c,fa,a} to if reverse -->
 <!-- vertical -->
 <line x1="884.62" y1="572" x2="884.62" y2="591.8" stroke="#000000" stroke-width="1" />
 <use stroke="#000000" xlink:href="#ah" transform="translate(884.62 592.8)rotate(90)"/>
</g>

<g class="edge">
 <!-- from if frameBound to {fa,a,fb,b,fc,c} =\npair sorted\n{fa,a,fb,b,fc,c}\nin order of\nincreasing\nabscissa -->
 <!-- vertical -->
 <line x1="884.62" y1="2874" x2="884.62" y2="2922.6" stroke="#000000" stroke-width="1" />
 <use stroke="#000000" xlink:href="#ah" transform="translate(884.62 2923.6)rotate(90)"/>
 <text x="892" y="2898" fill="#000000" stroke="none" text-anchor="start">then</text>
</g>

<g class="edge">
 <!-- from if reverse to b = c + shrinkFactor*(a-c) -->
 <!-- south/east corner -->
 <g stroke="#000000" stroke-width="1">
  <line x1="608.84" y1="650.5" x2="608.84" y2="706" />
  <line x1="608.34" y1="651" x2="654.66" y2="651" />
 </g>

 <!-- vertical -->
 <line x1="608.84" y1="706" x2="608.84" y2="856" stroke="#000000" stroke-width="1" />
 <text x="616" y="781" fill="#000000" stroke="none" text-anchor="start">else</text>

 <!-- north/east corner -->
 <g stroke="#000000" stroke-width="1">
  <line x1="608.84" y1="856" x2="608.84" y2="874.5" />
  <line x1="608.34" y1="874" x2="653.66" y2="874" />
 </g>
 <use stroke="#000000" xlink:href="#ah" x="654.66" y="874"/>
</g>

<g class="edge">
 <!-- from {fa,fc} =\n{f(a),f(c)} to if fc &gt; fa -->
 <!-- vertical -->
 <line x1="884.62" y1="300" x2="884.62" y2="319.8" stroke="#000000" stroke-width="1" />
 <use stroke="#000000" xlink:href="#ah" transform="translate(884.62 320.8)rotate(90)"/>
</g>

<g class="edge">
 <!-- from if And(Not(frameBound,\nNot(reverse)) to Sow (a.k.a. store)\nthe results of running\nthis algorithm with\nreverse = False -->
 <!-- vertical -->
 <line x1="884.62" y1="2492" x2="884.62" y2="2540.6" stroke="#000000" stroke-width="1" />
 <use stroke="#000000" xlink:href="#ah" transform="translate(884.62 2541.6)rotate(90)"/>
 <text x="892" y="2516" fill="#000000" stroke="none" text-anchor="start">then</text>
</g>

<g class="edge">
 <!-- from if i &gt;\nLength(perturbed) to ptol = 10^-accuracyGoal +\nAbs(perturbed(i))*10^-precisionGoal -->
 <!-- vertical -->
 <line x1="884.62" y1="4877" x2="884.62" y2="4925.6" stroke="#000000" stroke-width="1" />
 <use stroke="#000000" xlink:href="#ah" transform="translate(884.62 4926.6)rotate(90)"/>
 <text x="892" y="4901" fill="#000000" stroke="none" text-anchor="start">else</text>
</g>

<g class="edge">
 <!-- from if newAbscissa &lt;=\nlowerLimit to if newAbscissa &gt;=\nupperLimit -->
 <!-- south/west corner -->
 <g stroke="#000000" stroke-width="1">
  <line x1="608.84" y1="2368.5" x2="608.84" y2="2484" />
  <line x1="563.02" y1="2369" x2="609.34" y2="2369" />
 </g>

 <!-- vertical -->
 <line x1="608.84" y1="2484" x2="608.84" y2="2670" stroke="#000000" stroke-width="1" />
 <text x="616" y="2577" fill="#000000" stroke="none" text-anchor="start">else</text>

 <!-- north/west corner -->
 <g stroke="#000000" stroke-width="1">
  <line x1="608.84" y1="2670" x2="608.84" y2="2768.5" />
  <line x1="564.02" y1="2768" x2="609.34" y2="2768" />
 </g>
 <use stroke="#000000" xlink:href="#ah" transform="translate(563.02 2768)rotate(180)"/>
</g>

<g class="edge">
 <!-- from cdomain to if iteration ==\nmaxWideningIterations -->
 <!-- south/east corner -->
 <g stroke="#000000" stroke-width="1">
  <line x1="608.84" y1="1423.5" x2="608.84" y2="1533" />
  <line x1="608.34" y1="1424" x2="654.66" y2="1424" />
 </g>

 <!-- vertical -->
 <line x1="608.84" y1="1533" x2="608.84" y2="1665" stroke="#000000" stroke-width="1" />
 <text x="616" y="1599" fill="#000000" stroke="none" text-anchor="start">else</text>

 <!-- north/east corner -->
 <g stroke="#000000" stroke-width="1">
  <line x1="608.84" y1="1665" x2="608.84" y2="1771" />
  <line x1="608.34" y1="1770.5" x2="653.66" y2="1770.5" />
 </g>
 <use stroke="#000000" xlink:href="#ah" x="654.66" y="1770.5"/>
</g>

<g class="node-start">
 <!-- Given: f, a, c,\nlimitLeft,\nlimitRight,\nreverse,\nshrinkFactor,\ngrowthFactor,\naccuracyGoal,\nprecisionGoal,\nmaxWideningIterations,\nmaxNarrowingIterations, rounded -->
 <rect fill="#ffbfc9" height="197" rx="15" ry="15" stroke="#000000" width="436" x="666.62"
   y="8.5" />
 <text x="884" y="32" fill="#000000" text-anchor="middle">
  <tspan x="884" y="30">Given: f, a, c,</tspan>
  <tspan x="884" y="48">limitLeft,</tspan>
  <tspan x="884" y="66">limitRight,</tspan>
  <tspan x="884" y="84">reverse,</tspan>
  <tspan x="884" y="102">shrinkFactor,</tspan>
  <tspan x="884" y="120">growthFactor,</tspan>
  <tspan x="884" y="138">accuracyGoal,</tspan>
  <tspan x="884" y="156">precisionGoal,</tspan>
  <tspan x="884" y="174">maxWideningIterations,</tspan>
  <tspan x="884" y="192">maxNarrowingIterations</tspan>
 </text>
</g>

<g class="node-action">
 <!-- {fa,fc} =\n{f(a),f(c)}, rounded -->
 <rect fill="#8bef91" height="53" rx="15" ry="15" stroke="#000000" width="436" x="666.62"
   y="238.5" />
 <text x="884" y="262" fill="#000000" text-anchor="middle">
  <tspan x="884" y="260">{fa,fc} =</tspan>
  <tspan x="884" y="278">{f(a),f(c)}</tspan>
 </text>
</g>

<g class="node-question">
 <!-- if fc &gt; fa, diamond -->
 <polygon points="666.79,385, 884.62,324.5, 1102.45,385, 884.62,445.5" fill="#ffff8a" stroke="#000000" />
 <text x="884" y="391" fill="#000000" text-anchor="middle">if fc &gt; fa</text>
</g>

<g class="node-action">
 <!-- {fa,a,fc,c} =\n{fc,c,fa,a}, rounded -->
 <rect fill="#8bef91" height="53" rx="15" ry="15" stroke="#000000" width="436" x="666.62"
   y="510.5" />
 <text x="884" y="534" fill="#000000" text-anchor="middle">
  <tspan x="884" y="532">{fa,a,fc,c} =</tspan>
  <tspan x="884" y="550">{fc,c,fa,a}</tspan>
 </text>
</g>

<g class="node-question">
 <!-- if reverse, diamond -->
 <polygon points="666.79,651, 884.62,596.5, 1102.45,651, 884.62,705.5" fill="#ffff8a" stroke="#000000" />
 <text x="884" y="657" fill="#000000" text-anchor="middle">if reverse</text>
</g>

<g class="node-action">
 <!-- {fc,c,fa,a} =\n{fa,a,fc,c}, rounded -->
 <rect fill="#8bef91" height="53" rx="15" ry="15" stroke="#000000" width="436" x="666.62"
   y="770.5" />
 <text x="884" y="794" fill="#000000" text-anchor="middle">
  <tspan x="884" y="792">{fc,c,fa,a} =</tspan>
  <tspan x="884" y="810">{fa,a,fc,c}</tspan>
 </text>
</g>

<g class="node-action">
 <!-- b = c + shrinkFactor*(a-c), rounded -->
 <rect fill="#8bef91" height="35" rx="15" ry="15" stroke="#000000" width="436" x="666.62"
   y="856.5" />
 <text x="884" y="880" fill="#000000" text-anchor="middle">b = c + shrinkFactor*(a-c)</text>
</g>

<g class="node-action">
 <!-- fb = f(b), rounded -->
 <rect fill="#8bef91" height="35" rx="15" ry="15" stroke="#000000" width="436" x="666.62"
   y="924.5" />
 <text x="884" y="948" fill="#000000" text-anchor="middle">fb = f(b)</text>
</g>

<g class="node-action">
 <!-- iteration = 1, rounded -->
 <rect fill="#8bef91" height="35" rx="15" ry="15" stroke="#000000" width="436" x="666.62"
   y="992.5" />
 <text x="884" y="1016" fill="#000000" text-anchor="middle">iteration = 1</text>
</g>

<g class="node-question">
 <!-- if fc &gt; fb, diamond -->
 <polygon points="666.79,1121.5, 884.62,1060.5, 1102.45,1121.5, 884.62,1182.5" fill="#ffff8a" stroke="#000000" />
 <text x="884" y="1127" fill="#000000" text-anchor="middle">if fc &gt; fb</text>
</g>

<g class="node-action">
 <!-- frameBound = True, rounded -->
 <rect fill="#8bef91" height="35" rx="15" ry="15" stroke="#000000" width="436" x="666.62"
   y="1247.5" />
 <text x="884" y="1271" fill="#000000" text-anchor="middle">frameBound = True</text>
</g>

<g class="node-question">
 <!-- if Or(c == limitLeft,\nc == limitRight), diamond -->
 <polygon points="666.79,1424, 884.62,1315.5, 1102.45,1424, 884.62,1532.5" fill="#ffff8a" stroke="#000000" />
 <text x="884" y="1421" fill="#000000" text-anchor="middle">
  <tspan x="884" y="1419">if Or(c == limitLeft,</tspan>
  <tspan x="884" y="1437">c == limitRight)</tspan>
 </text>
</g>

<g class="node-action">
 <!-- domainBound = True, rounded -->
 <rect fill="#8bef91" height="35" rx="15" ry="15" stroke="#000000" width="436" x="666.62"
   y="1597.5" />
 <text x="884" y="1621" fill="#000000" text-anchor="middle">domainBound = True</text>
</g>

<g class="node-question">
 <!-- if iteration ==\nmaxWideningIterations, diamond -->
 <polygon points="666.79,1770.5, 884.62,1665.5, 1102.45,1770.5, 884.62,1875.5" fill="#ffff8a" stroke="#000000" />
 <text x="884" y="1767" fill="#000000" text-anchor="middle">
  <tspan x="884" y="1765">if iteration ==</tspan>
  <tspan x="884" y="1783">maxWideningIterations</tspan>
 </text>
</g>

<g class="node-action">
 <!-- iterationBound = True, rounded -->
 <rect fill="#8bef91" height="35" rx="15" ry="15" stroke="#000000" width="436" x="666.62"
   y="1940.5" />
 <text x="884" y="1964" fill="#000000" text-anchor="middle">iterationBound = True</text>
</g>

<g class="node-question">
 <!-- if Or(frameBound,\ndomainBound,\niterationBound), diamond -->
 <polygon points="666.79,2099, 884.62,2008.5, 1102.45,2099, 884.62,2189.5" fill="#ffff8a" stroke="#000000" />
 <text x="884" y="2087" fill="#000000" text-anchor="middle">
  <tspan x="884" y="2085">if Or(frameBound,</tspan>
  <tspan x="884" y="2103">domainBound,</tspan>
  <tspan x="884" y="2121">iterationBound)</tspan>
 </text>
</g>

<g class="node-question">
 <!-- if And(Not(frameBound,\nNot(reverse)), diamond -->
 <polygon points="666.79,2369, 884.62,2254.5, 1102.45,2369, 884.62,2483.5" fill="#ffff8a" stroke="#000000" />
 <text x="884" y="2366" fill="#000000" text-anchor="middle">
  <tspan x="884" y="2364">if And(Not(frameBound,</tspan>
  <tspan x="884" y="2382">Not(reverse))</tspan>
 </text>
</g>

<g class="node-action">
 <!-- Sow (a.k.a. store)\nthe results of running\nthis algorithm with\nreverse = False, rounded -->
 <rect fill="#8bef91" height="89" rx="15" ry="15" stroke="#000000" width="436" x="666.62"
   y="2548.5" />
 <text x="884" y="2572" fill="#000000" text-anchor="middle">
  <tspan x="884" y="2570">Sow (a.k.a. store)</tspan>
  <tspan x="884" y="2588">the results of running</tspan>
  <tspan x="884" y="2606">this algorithm with</tspan>
  <tspan x="884" y="2624">reverse = False</tspan>
 </text>
</g>

<g class="node-question">
 <!-- if frameBound, diamond -->
 <polygon points="666.79,2768, 884.62,2670.5, 1102.45,2768, 884.62,2865.5" fill="#ffff8a" stroke="#000000" />
 <text x="884" y="2774" fill="#000000" text-anchor="middle">if frameBound</text>
</g>

<g class="node-action">
 <!-- {fa,a,fb,b,fc,c} =\npair sorted\n{fa,a,fb,b,fc,c}\nin order of\nincreasing\nabscissa, rounded -->
 <rect fill="#8bef91" height="125" rx="15" ry="15" stroke="#000000" width="436" x="666.62"
   y="2930.5" />
 <text x="884" y="2954" fill="#000000" text-anchor="middle">
  <tspan x="884" y="2952">{fa,a,fb,b,fc,c} =</tspan>
  <tspan x="884" y="2970">pair sorted</tspan>
  <tspan x="884" y="2988">{fa,a,fb,b,fc,c}</tspan>
  <tspan x="884" y="3006">in order of</tspan>
  <tspan x="884" y="3024">increasing</tspan>
  <tspan x="884" y="3042">abscissa</tspan>
 </text>
</g>

<g class="node-action">
 <!-- {fu,u} =\n{fc,c}, rounded -->
 <rect fill="#8bef91" height="53" rx="15" ry="15" stroke="#000000" width="436" x="666.62"
   y="3088.5" />
 <text x="884" y="3112" fill="#000000" text-anchor="middle">
  <tspan x="884" y="3110">{fu,u} =</tspan>
  <tspan x="884" y="3128">{fc,c}</tspan>
 </text>
</g>

<g class="node-action">
 <!-- {fv,v,fw,w,fx,x} =\npair sorted\n{fa,a,fb,b,fc,c}\nin order of\ndecreasing\nordinate, rounded -->
 <rect fill="#8bef91" height="125" rx="15" ry="15" stroke="#000000" width="436" x="666.62"
   y="3174.5" />
 <text x="884" y="3198" fill="#000000" text-anchor="middle">
  <tspan x="884" y="3196">{fv,v,fw,w,fx,x} =</tspan>
  <tspan x="884" y="3214">pair sorted</tspan>
  <tspan x="884" y="3232">{fa,a,fb,b,fc,c}</tspan>
  <tspan x="884" y="3250">in order of</tspan>
  <tspan x="884" y="3268">decreasing</tspan>
  <tspan x="884" y="3286">ordinate</tspan>
 </text>
</g>

<g class="node-action">
 <!-- maxDisplacement =\nc-a, rounded -->
 <rect fill="#8bef91" height="53" rx="15" ry="15" stroke="#000000" width="436" x="666.62"
   y="3332.5" />
 <text x="884" y="3356" fill="#000000" text-anchor="middle">
  <tspan x="884" y="3354">maxDisplacement =</tspan>
  <tspan x="884" y="3372">c-a</tspan>
 </text>
</g>

<g class="node-action">
 <!-- xtol = 10^-accuracyGoal +\nAbs(x)*10^-precisionGoal, rounded -->
 <rect fill="#8bef91" height="53" rx="15" ry="15" stroke="#000000" width="436" x="666.62"
   y="3418.5" />
 <text x="884" y="3442" fill="#000000" text-anchor="middle">
  <tspan x="884" y="3440">xtol = 10^-accuracyGoal +</tspan>
  <tspan x="884" y="3458">Abs(x)*10^-precisionGoal</tspan>
 </text>
</g>

<g class="node-question">
 <!-- if And(Abs(a-x) &lt; xtol,\nAbs(c-x) &lt; xtol), diamond -->
 <polygon points="666.79,3626.5, 884.62,3504.5, 1102.45,3626.5, 884.62,3748.5" fill="#ffff8a" stroke="#000000" />
 <text x="884" y="3623" fill="#000000" text-anchor="middle">
  <tspan x="884" y="3621">if And(Abs(a-x) &lt; xtol,</tspan>
  <tspan x="884" y="3639">Abs(c-x) &lt; xtol)</tspan>
 </text>
</g>

<g class="node">
 <!-- done with frame narrow, rect -->
 <rect fill="#ffffff" height="244" stroke="#000000" width="396" x="155.06" y="3504.5" />
 <text x="353" y="3632" fill="#000000" text-anchor="middle">done with frame narrow</text>
</g>

<g class="node-action">
 <!-- newAbscissa = c + growthFactor*(c-b), rounded -->
 <rect fill="#8bef91" height="181" rx="15" ry="15" stroke="#000000" width="396" x="155.06"
   y="2008.5" />
 <text x="353" y="2105" fill="#000000" text-anchor="middle">newAbscissa = c + growthFactor*(c-b)</text>
</g>

<g class="node-question">
 <!-- if newAbscissa &lt;=\nlowerLimit, diamond -->
 <polygon points="155.23,2369, 353.06,2254.5, 550.89,2369, 353.06,2483.5" fill="#ffff8a" stroke="#000000" />
 <text x="353" y="2366" fill="#000000" text-anchor="middle">
  <tspan x="353" y="2364">if newAbscissa &lt;=</tspan>
  <tspan x="353" y="2382">lowerLimit</tspan>
 </text>
</g>

<g class="node-action">
 <!-- newAbscissa = lowerLimit, rounded -->
 <rect fill="#8bef91" height="89" rx="15" ry="15" stroke="#000000" width="396" x="155.06"
   y="2548.5" />
 <text x="353" y="2599" fill="#000000" text-anchor="middle">newAbscissa = lowerLimit</text>
</g>

<g class="node-question">
 <!-- if newAbscissa &gt;=\nupperLimit, diamond -->
 <polygon points="155.23,2768, 353.06,2670.5, 550.89,2768, 353.06,2865.5" fill="#ffff8a" stroke="#000000" />
 <text x="353" y="2765" fill="#000000" text-anchor="middle">
  <tspan x="353" y="2763">if newAbscissa &gt;=</tspan>
  <tspan x="353" y="2781">upperLimit</tspan>
 </text>
</g>

<g class="node-action">
 <!-- newAbscissa = upperLimit, rounded -->
 <rect fill="#8bef91" height="125" rx="15" ry="15" stroke="#000000" width="396" x="155.06"
   y="2930.5" />
 <text x="353" y="2999" fill="#000000" text-anchor="middle">newAbscissa = upperLimit</text>
</g>

<g class="node-action">
 <!-- iteration++, rounded -->
 <rect fill="#8bef91" height="53" rx="15" ry="15" stroke="#000000" width="396" x="155.06"
   y="3088.5" />
 <text x="353" y="3121" fill="#000000" text-anchor="middle">iteration++</text>
</g>

<g class="node-action">
 <!-- newOrdinate =\nf(newAbscissa), rounded -->
 <rect fill="#8bef91" height="125" rx="15" ry="15" stroke="#000000" width="396" x="155.06"
   y="3174.5" />
 <text x="353" y="3234" fill="#000000" text-anchor="middle">
  <tspan x="353" y="3232">newOrdinate =</tspan>
  <tspan x="353" y="3250">f(newAbscissa)</tspan>
 </text>
</g>

<g class="node-action">
 <!-- {fa,a,fb,b,fc,c} =\n{fb,b,fc,c,newOrdinate,newAbscissa}, rounded -->
 <rect fill="#8bef91" height="53" rx="15" ry="15" stroke="#000000" width="396" x="155.06"
   y="3332.5" />
 <text x="353" y="3356" fill="#000000" text-anchor="middle">
  <tspan x="353" y="3354">{fa,a,fb,b,fc,c} =</tspan>
  <tspan x="353" y="3372">{fb,b,fc,c,newOrdinate,newAbscissa}</tspan>
 </text>
</g>

<g class="node-question">
 <!-- if x &gt; (a + c)/2, diamond -->
 <polygon points="666.79,3915, 884.62,3813.5, 1102.45,3915, 884.62,4016.5" fill="#ffff8a" stroke="#000000" />
 <text x="884" y="3921" fill="#000000" text-anchor="middle">if x &gt; (a + c)/2</text>
</g>

<g class="node-action">
 <!-- e = a - x, rounded -->
 <rect fill="#8bef91" height="35" rx="15" ry="15" stroke="#000000" width="436" x="666.62"
   y="4081.5" />
 <text x="884" y="4105" fill="#000000" text-anchor="middle">e = a - x</text>
</g>

<g class="node-action">
 <!-- define candidateAbsicssa(1)\nvia inverse polynomial\ninterpolation, rounded -->
 <rect fill="#8bef91" height="71" rx="15" ry="15" stroke="#000000" width="436" x="666.62"
   y="4149.5" />
 <text x="884" y="4173" fill="#000000" text-anchor="middle">
  <tspan x="884" y="4171">define candidateAbsicssa(1)</tspan>
  <tspan x="884" y="4189">via inverse polynomial</tspan>
  <tspan x="884" y="4207">interpolation</tspan>
 </text>
</g>

<g class="node-action">
 <!-- candidateAbscissa(2) = x + e*shrinkFactor, rounded -->
 <rect fill="#8bef91" height="35" rx="15" ry="15" stroke="#000000" width="436" x="666.62"
   y="4253.5" />
 <text x="884" y="4277" fill="#000000" text-anchor="middle">candidateAbscissa(2) = x + e*shrinkFactor</text>
</g>

<g class="node-action">
 <!-- perturbed = candidateAbscissa, rounded -->
 <rect fill="#8bef91" height="35" rx="15" ry="15" stroke="#000000" width="436" x="666.62"
   y="4321.5" />
 <text x="884" y="4345" fill="#000000" text-anchor="middle">perturbed = candidateAbscissa</text>
</g>

<g class="node-action">
 <!-- perturbationFactor =\nSign(e)/2, rounded -->
 <rect fill="#8bef91" height="53" rx="15" ry="15" stroke="#000000" width="436" x="666.62"
   y="4389.5" />
 <text x="884" y="4413" fill="#000000" text-anchor="middle">
  <tspan x="884" y="4411">perturbationFactor =</tspan>
  <tspan x="884" y="4429">Sign(e)/2</tspan>
 </text>
</g>

<g class="node-action">
 <!-- sameTestAbscissas =\n{x,u,c,a,w,c}, rounded -->
 <rect fill="#8bef91" height="53" rx="15" ry="15" stroke="#000000" width="436" x="666.62"
   y="4475.5" />
 <text x="884" y="4499" fill="#000000" text-anchor="middle">
  <tspan x="884" y="4497">sameTestAbscissas =</tspan>
  <tspan x="884" y="4515">{x,u,c,a,w,c}</tspan>
 </text>
</g>

<g class="node-action">
 <!-- i = 0, rounded -->
 <rect fill="#8bef91" height="35" rx="15" ry="15" stroke="#000000" width="436" x="666.62"
   y="4561.5" />
 <text x="884" y="4585" fill="#000000" text-anchor="middle">i = 0</text>
</g>

<g class="node-action">
 <!-- i++, rounded -->
 <rect fill="#8bef91" height="35" rx="15" ry="15" stroke="#000000" width="436" x="666.62"
   y="4629.5" />
 <text x="884" y="4653" fill="#000000" text-anchor="middle">i++</text>
</g>

<g class="node-question">
 <!-- if i &gt;\nLength(perturbed), diamond -->
 <polygon points="666.79,4783, 884.62,4697.5, 1102.45,4783, 884.62,4868.5" fill="#ffff8a" stroke="#000000" />
 <text x="884" y="4780" fill="#000000" text-anchor="middle">
  <tspan x="884" y="4778">if i &gt;</tspan>
  <tspan x="884" y="4796">Length(perturbed)</tspan>
 </text>
</g>

<g class="node">
 <!-- done with perturbation, rect -->
 <rect fill="#ffffff" height="171" stroke="#000000" width="396" x="155.06" y="4697.5" />
 <text x="353" y="4789" fill="#000000" text-anchor="middle">done with perturbation</text>
</g>

<g class="node-action">
 <!-- e = c - x, rounded -->
 <rect fill="#8bef91" height="203" rx="15" ry="15" stroke="#000000" width="396" x="155.06"
   y="3813.5" />
 <text x="353" y="3921" fill="#000000" text-anchor="middle">e = c - x</text>
</g>

<g class="node-action">
 <!-- ptol = 10^-accuracyGoal +\nAbs(perturbed(i))*10^-precisionGoal, rounded -->
 <rect fill="#8bef91" height="53" rx="15" ry="15" stroke="#000000" width="436" x="666.62"
   y="4933.5" />
 <text x="884" y="4957" fill="#000000" text-anchor="middle">
  <tspan x="884" y="4955">ptol = 10^-accuracyGoal +</tspan>
  <tspan x="884" y="4973">Abs(perturbed(i))*10^-precisionGoal</tspan>
 </text>
</g>

<g class="node-action">
 <!-- j = 0, rounded -->
 <rect fill="#8bef91" height="35" rx="15" ry="15" stroke="#000000" width="436" x="666.62"
   y="5019.5" />
 <text x="884" y="5043" fill="#000000" text-anchor="middle">j = 0</text>
</g>

<g class="node-action">
 <!-- j++, rounded -->
 <rect fill="#8bef91" height="63" rx="15" ry="15" stroke="#000000" width="436" x="666.62"
   y="5087.5" />
 <text x="884" y="5125" fill="#000000" text-anchor="middle">j++</text>
</g>

<g class="node-question">
 <!-- if j &gt;\nLength(sameTestAbscissas), diamond -->
 <polygon points="666.79,5310.5, 884.62,5183.5, 1102.45,5310.5, 884.62,5437.5" fill="#ffff8a" stroke="#000000" />
 <text x="884" y="5307" fill="#000000" text-anchor="middle">
  <tspan x="884" y="5305">if j &gt;</tspan>
  <tspan x="884" y="5323">Length(sameTestAbscissas)</tspan>
 </text>
</g>

<g class="node-question">
 <!-- if Abs(sameTestAbscissas(j) -\nperturbed(i)) &lt; ptol, diamond -->
 <polygon points="666.79,5650, 884.62,5502.5, 1102.45,5650, 884.62,5797.5" fill="#ffff8a" stroke="#000000" />
 <text x="884" y="5647" fill="#000000" text-anchor="middle">
  <tspan x="884" y="5645">if Abs(sameTestAbscissas(j) -</tspan>
  <tspan x="884" y="5663">perturbed(i)) &lt; ptol</tspan>
 </text>
</g>

<g class="node-action">
 <!-- perturbed(i) =\n perturbed(i) +\nperturbFactor*tol, rounded -->
 <rect fill="#8bef91" height="71" rx="15" ry="15" stroke="#000000" width="436" x="666.62"
   y="5862.5" />
 <text x="884" y="5886" fill="#000000" text-anchor="middle">
  <tspan x="884" y="5884">perturbed(i) =</tspan>
  <tspan x="884" y="5902">perturbed(i) +</tspan>
  <tspan x="884" y="5920">perturbFactor*tol</tspan>
 </text>
</g>

</svg>
